<svg width="514" height="514" viewBox="0 0 514 514" fill="none" xmlns="http://www.w3.org/2000/svg">
<rect width="514" height="514" fill="url(#paint0_linear_7_60)"/>
<g filter="url(#filter0_d_7_60)">
<rect x="47" y="47" width="419" height="419" rx="10" fill="white"/>
</g>
<path d="M61.4858 64.1818H63.402L67.2344 70.6321H67.3963L71.2287 64.1818H73.1449L68.152 72.3054V78H66.4787V72.3054L61.4858 64.1818ZM77.8375 78.2159C76.9019 78.2159 76.081 77.9933 75.3748 77.5479C74.6731 77.1026 74.1243 76.4796 73.7285 75.679C73.3372 74.8783 73.1415 73.9427 73.1415 72.8722C73.1415 71.7926 73.3372 70.8503 73.7285 70.0451C74.1243 69.2399 74.6731 68.6147 75.3748 68.1694C76.081 67.7241 76.9019 67.5014 77.8375 67.5014C78.7731 67.5014 79.5918 67.7241 80.2935 68.1694C80.9997 68.6147 81.5485 69.2399 81.9398 70.0451C82.3356 70.8503 82.5336 71.7926 82.5336 72.8722C82.5336 73.9427 82.3356 74.8783 81.9398 75.679C81.5485 76.4796 80.9997 77.1026 80.2935 77.5479C79.5918 77.9933 78.7731 78.2159 77.8375 78.2159ZM77.8375 76.7855C78.5482 76.7855 79.133 76.6033 79.5918 76.239C80.0506 75.8746 80.3902 75.3956 80.6106 74.8018C80.831 74.2081 80.9412 73.5649 80.9412 72.8722C80.9412 72.1795 80.831 71.534 80.6106 70.9357C80.3902 70.3375 80.0506 69.8539 79.5918 69.4851C79.133 69.1162 78.5482 68.9318 77.8375 68.9318C77.1268 68.9318 76.5421 69.1162 76.0833 69.4851C75.6245 69.8539 75.2849 70.3375 75.0645 70.9357C74.844 71.534 74.7338 72.1795 74.7338 72.8722C74.7338 73.5649 74.844 74.2081 75.0645 74.8018C75.2849 75.3956 75.6245 75.8746 76.0833 76.239C76.5421 76.6033 77.1268 76.7855 77.8375 76.7855ZM91.4955 73.7628V67.6364H93.0878V78H91.4955V76.2457H91.3875C91.1446 76.772 90.7668 77.2196 90.254 77.5884C89.7412 77.9528 89.0935 78.1349 88.3108 78.1349C87.6631 78.1349 87.0873 77.9933 86.5835 77.7099C86.0798 77.422 85.6839 76.9902 85.396 76.4144C85.1082 75.8342 84.9642 75.1032 84.9642 74.2216V67.6364H86.5566V74.1136C86.5566 74.8693 86.768 75.4721 87.1908 75.9219C87.6181 76.3717 88.1624 76.5966 88.8236 76.5966C89.2194 76.5966 89.622 76.4954 90.0313 76.293C90.4452 76.0906 90.7915 75.7802 91.0704 75.3619C91.3538 74.9435 91.4955 74.4105 91.4955 73.7628ZM96.0043 78V67.6364H97.5426V69.2017H97.6506C97.8395 68.6889 98.1813 68.2728 98.6761 67.9535C99.1709 67.6341 99.7287 67.4744 100.349 67.4744C100.466 67.4744 100.613 67.4767 100.788 67.4812C100.963 67.4857 101.096 67.4924 101.186 67.5014V69.1207C101.132 69.1072 101.008 69.087 100.815 69.06C100.626 69.0285 100.426 69.0128 100.214 69.0128C99.7107 69.0128 99.2609 69.1185 98.8651 69.3299C98.4737 69.5368 98.1634 69.8247 97.9339 70.1935C97.709 70.5579 97.5966 70.974 97.5966 71.4418V78H96.0043ZM112.763 78.2159C111.764 78.2159 110.903 77.9955 110.178 77.5547C109.459 77.1094 108.903 76.4886 108.512 75.6925C108.125 74.8918 107.932 73.9607 107.932 72.8991C107.932 71.8376 108.125 70.902 108.512 70.0923C108.903 69.2782 109.447 68.6439 110.145 68.1896C110.846 67.7308 111.665 67.5014 112.601 67.5014C113.14 67.5014 113.673 67.5914 114.2 67.7713C114.726 67.9512 115.205 68.2436 115.637 68.6484C116.069 69.0488 116.413 69.5795 116.669 70.2408C116.926 70.902 117.054 71.7161 117.054 72.6832V73.358H109.065V71.9815H115.434C115.434 71.3968 115.317 70.875 115.084 70.4162C114.854 69.9574 114.526 69.5953 114.098 69.3299C113.676 69.0645 113.176 68.9318 112.601 68.9318C111.966 68.9318 111.418 69.0893 110.954 69.4041C110.495 69.7145 110.142 70.1193 109.895 70.6186C109.648 71.1179 109.524 71.6532 109.524 72.2244V73.142C109.524 73.9247 109.659 74.5882 109.929 75.1325C110.203 75.6722 110.583 76.0838 111.069 76.3672C111.555 76.6461 112.119 76.7855 112.763 76.7855C113.181 76.7855 113.559 76.727 113.896 76.6101C114.238 76.4886 114.533 76.3087 114.78 76.0703C115.027 75.8274 115.218 75.526 115.353 75.1662L116.892 75.598C116.73 76.1198 116.458 76.5786 116.075 76.9744C115.693 77.3658 115.221 77.6716 114.658 77.892C114.096 78.108 113.464 78.2159 112.763 78.2159ZM121.068 71.7656V78H119.476V67.6364H121.014V69.2557H121.149C121.392 68.7294 121.761 68.3066 122.256 67.9872C122.751 67.6634 123.389 67.5014 124.172 67.5014C124.874 67.5014 125.488 67.6454 126.014 67.9332C126.54 68.2166 126.95 68.6484 127.242 69.2287C127.534 69.8045 127.68 70.5331 127.68 71.4148V78H126.088V71.5227C126.088 70.7086 125.877 70.0743 125.454 69.62C125.031 69.1612 124.451 68.9318 123.713 68.9318C123.205 68.9318 122.751 69.042 122.35 69.2624C121.954 69.4828 121.642 69.8045 121.412 70.2273C121.183 70.6501 121.068 71.1629 121.068 71.7656ZM138.694 67.6364L134.861 78H133.242L129.409 67.6364H131.137L133.998 75.8949H134.105L136.966 67.6364H138.694ZM140.795 78V67.6364H142.388V78H140.795ZM141.605 65.9091C141.295 65.9091 141.027 65.8034 140.802 65.592C140.582 65.3806 140.471 65.1264 140.471 64.8295C140.471 64.5327 140.582 64.2785 140.802 64.0671C141.027 63.8557 141.295 63.75 141.605 63.75C141.915 63.75 142.181 63.8557 142.401 64.0671C142.626 64.2785 142.738 64.5327 142.738 64.8295C142.738 65.1264 142.626 65.3806 142.401 65.592C142.181 65.8034 141.915 65.9091 141.605 65.9091ZM145.304 78V67.6364H146.842V69.2017H146.95C147.139 68.6889 147.481 68.2728 147.976 67.9535C148.471 67.6341 149.028 67.4744 149.649 67.4744C149.766 67.4744 149.912 67.4767 150.088 67.4812C150.263 67.4857 150.396 67.4924 150.486 67.5014V69.1207C150.432 69.1072 150.308 69.087 150.115 69.06C149.926 69.0285 149.726 69.0128 149.514 69.0128C149.011 69.0128 148.561 69.1185 148.165 69.3299C147.774 69.5368 147.463 69.8247 147.234 70.1935C147.009 70.5579 146.896 70.974 146.896 71.4418V78H145.304ZM156.268 78.2159C155.333 78.2159 154.512 77.9933 153.805 77.5479C153.104 77.1026 152.555 76.4796 152.159 75.679C151.768 74.8783 151.572 73.9427 151.572 72.8722C151.572 71.7926 151.768 70.8503 152.159 70.0451C152.555 69.2399 153.104 68.6147 153.805 68.1694C154.512 67.7241 155.333 67.5014 156.268 67.5014C157.204 67.5014 158.022 67.7241 158.724 68.1694C159.43 68.6147 159.979 69.2399 160.37 70.0451C160.766 70.8503 160.964 71.7926 160.964 72.8722C160.964 73.9427 160.766 74.8783 160.37 75.679C159.979 76.4796 159.43 77.1026 158.724 77.5479C158.022 77.9933 157.204 78.2159 156.268 78.2159ZM156.268 76.7855C156.979 76.7855 157.564 76.6033 158.022 76.239C158.481 75.8746 158.821 75.3956 159.041 74.8018C159.262 74.2081 159.372 73.5649 159.372 72.8722C159.372 72.1795 159.262 71.534 159.041 70.9357C158.821 70.3375 158.481 69.8539 158.022 69.4851C157.564 69.1162 156.979 68.9318 156.268 68.9318C155.557 68.9318 154.973 69.1162 154.514 69.4851C154.055 69.8539 153.716 70.3375 153.495 70.9357C153.275 71.534 153.165 72.1795 153.165 72.8722C153.165 73.5649 153.275 74.2081 153.495 74.8018C153.716 75.3956 154.055 75.8746 154.514 76.239C154.973 76.6033 155.557 76.7855 156.268 76.7855ZM164.987 71.7656V78H163.395V67.6364H164.933V69.2557H165.068C165.311 68.7294 165.68 68.3066 166.175 67.9872C166.67 67.6634 167.308 67.5014 168.091 67.5014C168.793 67.5014 169.407 67.6454 169.933 67.9332C170.459 68.2166 170.868 68.6484 171.161 69.2287C171.453 69.8045 171.599 70.5331 171.599 71.4148V78H170.007V71.5227C170.007 70.7086 169.796 70.0743 169.373 69.62C168.95 69.1612 168.37 68.9318 167.632 68.9318C167.124 68.9318 166.67 69.042 166.269 69.2624C165.873 69.4828 165.561 69.8045 165.331 70.2273C165.102 70.6501 164.987 71.1629 164.987 71.7656ZM174.509 78V67.6364H176.047V69.2557H176.182C176.398 68.7024 176.747 68.2728 177.228 67.967C177.71 67.6566 178.288 67.5014 178.962 67.5014C179.646 67.5014 180.215 67.6566 180.669 67.967C181.128 68.2728 181.486 68.7024 181.742 69.2557H181.85C182.115 68.7204 182.514 68.2953 183.044 67.9805C183.575 67.6611 184.212 67.5014 184.954 67.5014C185.88 67.5014 186.638 67.7915 187.228 68.3718C187.817 68.9476 188.111 69.8449 188.111 71.0639V78H186.519V71.0639C186.519 70.2992 186.31 69.7527 185.892 69.4244C185.473 69.096 184.981 68.9318 184.414 68.9318C183.685 68.9318 183.121 69.1522 182.72 69.593C182.32 70.0294 182.12 70.5826 182.12 71.2528V78H180.501V70.902C180.501 70.3127 180.309 69.8382 179.927 69.4783C179.545 69.114 179.052 68.9318 178.449 68.9318C178.036 68.9318 177.649 69.042 177.289 69.2624C176.934 69.4828 176.646 69.7887 176.425 70.18C176.209 70.5669 176.101 71.0144 176.101 71.5227V78H174.509ZM195.368 78.2159C194.369 78.2159 193.508 77.9955 192.784 77.5547C192.064 77.1094 191.509 76.4886 191.117 75.6925C190.73 74.8918 190.537 73.9607 190.537 72.8991C190.537 71.8376 190.73 70.902 191.117 70.0923C191.509 69.2782 192.053 68.6439 192.75 68.1896C193.452 67.7308 194.27 67.5014 195.206 67.5014C195.746 67.5014 196.279 67.5914 196.805 67.7713C197.331 67.9512 197.81 68.2436 198.242 68.6484C198.674 69.0488 199.018 69.5795 199.275 70.2408C199.531 70.902 199.659 71.7161 199.659 72.6832V73.358H191.671V71.9815H198.04C198.04 71.3968 197.923 70.875 197.689 70.4162C197.46 69.9574 197.131 69.5953 196.704 69.3299C196.281 69.0645 195.782 68.9318 195.206 68.9318C194.572 68.9318 194.023 69.0893 193.56 69.4041C193.101 69.7145 192.748 70.1193 192.5 70.6186C192.253 71.1179 192.129 71.6532 192.129 72.2244V73.142C192.129 73.9247 192.264 74.5882 192.534 75.1325C192.809 75.6722 193.189 76.0838 193.674 76.3672C194.16 76.6461 194.725 76.7855 195.368 76.7855C195.786 76.7855 196.164 76.727 196.502 76.6101C196.843 76.4886 197.138 76.3087 197.385 76.0703C197.633 75.8274 197.824 75.526 197.959 75.1662L199.497 75.598C199.335 76.1198 199.063 76.5786 198.681 76.9744C198.299 77.3658 197.826 77.6716 197.264 77.892C196.702 78.108 196.07 78.2159 195.368 78.2159ZM203.674 71.7656V78H202.081V67.6364H203.62V69.2557H203.755C203.998 68.7294 204.366 68.3066 204.861 67.9872C205.356 67.6634 205.995 67.5014 206.777 67.5014C207.479 67.5014 208.093 67.6454 208.619 67.9332C209.146 68.2166 209.555 68.6484 209.847 69.2287C210.14 69.8045 210.286 70.5331 210.286 71.4148V78H208.694V71.5227C208.694 70.7086 208.482 70.0743 208.059 69.62C207.637 69.1612 207.056 68.9318 206.319 68.9318C205.81 68.9318 205.356 69.042 204.956 69.2624C204.56 69.4828 204.247 69.8045 204.018 70.2273C203.788 70.6501 203.674 71.1629 203.674 71.7656ZM217.703 67.6364V68.9858H212.332V67.6364H217.703ZM213.897 65.1534H215.49V75.0312C215.49 75.4811 215.555 75.8184 215.685 76.0433C215.82 76.2637 215.991 76.4122 216.198 76.4886C216.41 76.5606 216.632 76.5966 216.866 76.5966C217.042 76.5966 217.185 76.5876 217.298 76.5696C217.41 76.5471 217.5 76.5291 217.568 76.5156L217.892 77.946C217.784 77.9865 217.633 78.027 217.44 78.0675C217.246 78.1125 217.001 78.1349 216.704 78.1349C216.254 78.1349 215.814 78.0382 215.382 77.8448C214.954 77.6514 214.599 77.3568 214.316 76.9609C214.037 76.5651 213.897 76.0658 213.897 75.4631V65.1534ZM227.253 69.9574L225.823 70.3622C225.733 70.1238 225.6 69.8922 225.425 69.6673C225.254 69.4379 225.02 69.2489 224.723 69.1005C224.426 68.9521 224.046 68.8778 223.583 68.8778C222.949 68.8778 222.42 69.024 221.997 69.3164C221.579 69.6043 221.37 69.9709 221.37 70.4162C221.37 70.812 221.514 71.1246 221.802 71.354C222.09 71.5835 222.539 71.7746 223.151 71.9276L224.689 72.3054C225.616 72.5303 226.307 72.8744 226.761 73.3377C227.215 73.7965 227.442 74.388 227.442 75.1122C227.442 75.706 227.271 76.2367 226.93 76.7045C226.592 77.1723 226.12 77.5412 225.513 77.8111C224.905 78.081 224.199 78.2159 223.394 78.2159C222.337 78.2159 221.462 77.9865 220.769 77.5277C220.077 77.0689 219.638 76.3987 219.454 75.517L220.965 75.1392C221.109 75.697 221.381 76.1153 221.781 76.3942C222.186 76.6731 222.715 76.8125 223.367 76.8125C224.109 76.8125 224.698 76.6551 225.135 76.3402C225.576 76.0208 225.796 75.6385 225.796 75.1932C225.796 74.8333 225.67 74.532 225.418 74.2891C225.166 74.0417 224.779 73.8572 224.258 73.7358L222.53 73.331C221.581 73.1061 220.884 72.7575 220.439 72.2852C219.998 71.8084 219.778 71.2124 219.778 70.4972C219.778 69.9124 219.942 69.3951 220.27 68.9453C220.603 68.4955 221.055 68.1424 221.626 67.886C222.202 67.6296 222.854 67.5014 223.583 67.5014C224.608 67.5014 225.414 67.7263 225.998 68.1761C226.588 68.6259 227.006 69.2197 227.253 69.9574ZM239.474 78.1889C238.682 78.1889 237.97 78.0315 237.335 77.7166C236.701 77.4018 236.193 76.9699 235.81 76.4212C235.428 75.8724 235.219 75.2472 235.183 74.5455H236.802C236.865 75.1707 237.149 75.688 237.652 76.0973C238.161 76.5021 238.768 76.7045 239.474 76.7045C240.041 76.7045 240.545 76.5719 240.986 76.3065C241.431 76.0411 241.779 75.6767 242.031 75.2134C242.288 74.7456 242.416 74.2171 242.416 73.6278C242.416 73.0251 242.283 72.4876 242.018 72.0153C241.757 71.5385 241.397 71.1629 240.938 70.8885C240.479 70.6141 239.955 70.4747 239.366 70.4702C238.943 70.4657 238.509 70.5309 238.064 70.6658C237.619 70.7963 237.252 70.965 236.964 71.1719L235.399 70.983L236.236 64.1818H243.415V65.6662H237.639L237.153 69.7415H237.234C237.517 69.5166 237.873 69.3299 238.3 69.1815C238.727 69.033 239.173 68.9588 239.636 68.9588C240.482 68.9588 241.235 69.1612 241.896 69.5661C242.562 69.9664 243.084 70.5152 243.462 71.2124C243.844 71.9096 244.035 72.7057 244.035 73.6009C244.035 74.4825 243.837 75.2696 243.441 75.9624C243.05 76.6506 242.51 77.1948 241.822 77.5952C241.134 77.991 240.351 78.1889 239.474 78.1889ZM251.627 63.5341L247.174 80.0781H245.717L250.17 63.5341H251.627ZM258.076 78.1889C257.509 78.1799 256.943 78.072 256.376 77.8651C255.809 77.6581 255.292 77.3095 254.824 76.8192C254.356 76.3245 253.981 75.6565 253.697 74.8153C253.414 73.9697 253.272 72.9081 253.272 71.6307C253.272 70.4072 253.387 69.3232 253.616 68.3786C253.846 67.4295 254.178 66.631 254.615 65.9833C255.051 65.3311 255.577 64.8363 256.194 64.4989C256.814 64.1616 257.514 63.9929 258.292 63.9929C259.066 63.9929 259.754 64.1481 260.357 64.4585C260.964 64.7643 261.459 65.1916 261.841 65.7404C262.223 66.2892 262.471 66.9212 262.583 67.6364H260.937C260.784 67.0156 260.487 66.5006 260.046 66.0913C259.605 65.6819 259.021 65.4773 258.292 65.4773C257.221 65.4773 256.378 65.9428 255.762 66.8739C255.15 67.805 254.842 69.1117 254.837 70.794H254.945C255.197 70.4117 255.496 70.0856 255.843 69.8157C256.194 69.5413 256.58 69.3299 257.003 69.1815C257.426 69.033 257.874 68.9588 258.346 68.9588C259.138 68.9588 259.862 69.1567 260.519 69.5526C261.175 69.9439 261.702 70.4859 262.097 71.1786C262.493 71.8668 262.691 72.6562 262.691 73.5469C262.691 74.4015 262.5 75.1842 262.118 75.8949C261.735 76.6011 261.198 77.1634 260.505 77.5817C259.817 77.9955 259.007 78.1979 258.076 78.1889ZM258.076 76.7045C258.643 76.7045 259.151 76.5629 259.601 76.2795C260.055 75.9961 260.413 75.616 260.674 75.1392C260.939 74.6624 261.072 74.1316 261.072 73.5469C261.072 72.9756 260.944 72.4561 260.687 71.9883C260.435 71.516 260.087 71.1404 259.641 70.8615C259.201 70.5826 258.697 70.4432 258.13 70.4432C257.703 70.4432 257.305 70.5286 256.936 70.6996C256.567 70.866 256.243 71.0954 255.964 71.3878C255.69 71.6802 255.474 72.0153 255.316 72.3931C255.159 72.7665 255.08 73.16 255.08 73.5739C255.08 74.1226 255.209 74.6354 255.465 75.1122C255.726 75.589 256.081 75.9736 256.531 76.266C256.985 76.5584 257.5 76.7045 258.076 76.7045Z" fill="#6B6B6B"/>
<path d="M63.0284 124V108.727H71.8878V109.98H64.4229V115.73H71.418V116.983H64.4229V122.747H72.0369V124H63.0284ZM76.5487 116.841V124H75.2212V112.545H76.5114V114.343H76.6307C76.8991 113.756 77.3168 113.286 77.8835 112.933C78.4553 112.575 79.1612 112.396 80.0014 112.396C80.772 112.396 81.4482 112.558 82.0298 112.881C82.6165 113.199 83.0714 113.669 83.3945 114.29C83.7227 114.912 83.8867 115.675 83.8867 116.58V124H82.5593V116.662C82.5593 115.722 82.2958 114.979 81.7688 114.432C81.2468 113.885 80.5458 113.612 79.6658 113.612C79.0643 113.612 78.5298 113.741 78.0625 114C77.5952 114.258 77.2248 114.631 76.9513 115.118C76.6829 115.6 76.5487 116.175 76.5487 116.841ZM95.839 112.545L91.6555 124H90.2385L86.055 112.545H87.4942L90.8948 122.248H90.9992L94.3998 112.545H95.839ZM98.451 124V112.545H99.7859V124H98.451ZM99.1296 110.577C98.8562 110.577 98.6225 110.485 98.4286 110.301C98.2347 110.112 98.1378 109.886 98.1378 109.622C98.1378 109.359 98.2347 109.135 98.4286 108.951C98.6225 108.762 98.8562 108.668 99.1296 108.668C99.4031 108.668 99.6367 108.762 99.8306 108.951C100.025 109.135 100.121 109.359 100.121 109.622C100.121 109.886 100.025 110.112 99.8306 110.301C99.6367 110.485 99.4031 110.577 99.1296 110.577ZM103.296 124V112.545H104.587V114.305H104.684C104.912 113.729 105.31 113.264 105.877 112.911C106.448 112.553 107.095 112.374 107.816 112.374C107.925 112.374 108.047 112.376 108.181 112.381C108.315 112.386 108.427 112.391 108.517 112.396V113.746C108.457 113.736 108.353 113.721 108.203 113.701C108.054 113.681 107.893 113.672 107.719 113.672C107.122 113.672 106.59 113.798 106.123 114.052C105.66 114.3 105.295 114.646 105.027 115.088C104.758 115.531 104.624 116.036 104.624 116.602V124H103.296ZM114.885 124.239C113.896 124.239 113.021 123.988 112.26 123.485C111.505 122.983 110.913 122.29 110.485 121.405C110.058 120.515 109.844 119.488 109.844 118.325C109.844 117.152 110.058 116.12 110.485 115.23C110.913 114.335 111.505 113.639 112.26 113.142C113.021 112.64 113.896 112.389 114.885 112.389C115.875 112.389 116.747 112.64 117.503 113.142C118.258 113.644 118.85 114.34 119.278 115.23C119.71 116.12 119.926 117.152 119.926 118.325C119.926 119.488 119.713 120.515 119.285 121.405C118.858 122.29 118.263 122.983 117.503 123.485C116.747 123.988 115.875 124.239 114.885 124.239ZM114.885 123.023C115.681 123.023 116.354 122.809 116.906 122.382C117.458 121.954 117.876 121.385 118.159 120.674C118.447 119.963 118.592 119.18 118.592 118.325C118.592 117.47 118.447 116.684 118.159 115.968C117.876 115.252 117.458 114.678 116.906 114.246C116.354 113.813 115.681 113.597 114.885 113.597C114.095 113.597 113.421 113.813 112.864 114.246C112.312 114.678 111.892 115.252 111.604 115.968C111.321 116.684 111.179 117.47 111.179 118.325C111.179 119.18 111.321 119.963 111.604 120.674C111.892 121.385 112.312 121.954 112.864 122.382C113.416 122.809 114.09 123.023 114.885 123.023Z" fill="black"/>
<rect x="131.5" y="105.5" width="68" height="22" rx="7.5" fill="white" stroke="#C9C9C9"/>
<path d="M141.256 122V112.545H144.307C144.978 112.545 145.538 112.667 145.988 112.91C146.44 113.15 146.78 113.484 147.008 113.912C147.239 114.337 147.354 114.824 147.354 115.375C147.354 115.926 147.239 116.413 147.008 116.834C146.78 117.256 146.442 117.585 145.992 117.822C145.543 118.059 144.986 118.178 144.321 118.178H141.722V117.388H144.298C144.79 117.388 145.2 117.307 145.526 117.143C145.855 116.98 146.1 116.748 146.26 116.446C146.423 116.145 146.505 115.788 146.505 115.375C146.505 114.963 146.423 114.603 146.26 114.295C146.097 113.984 145.851 113.744 145.521 113.575C145.195 113.406 144.783 113.321 144.284 113.321H142.119V122H141.256ZM145.424 117.734L147.751 122H146.754L144.45 117.734H145.424ZM153.792 119.29V114.909H154.613V122H153.792V120.823H153.727C153.561 121.186 153.298 121.489 152.938 121.732C152.578 121.972 152.137 122.092 151.617 122.092C151.165 122.092 150.763 121.994 150.412 121.797C150.062 121.597 149.786 121.304 149.586 120.92C149.386 120.535 149.286 120.063 149.286 119.502V114.909H150.108V119.452C150.108 120.006 150.271 120.452 150.597 120.79C150.923 121.126 151.342 121.294 151.853 121.294C152.173 121.294 152.481 121.217 152.776 121.063C153.072 120.909 153.315 120.684 153.506 120.389C153.696 120.09 153.792 119.724 153.792 119.29ZM157.611 117.568V122H156.789V114.909H157.588V116.022H157.661C157.828 115.658 158.086 115.368 158.437 115.149C158.791 114.928 159.228 114.817 159.748 114.817C160.225 114.817 160.644 114.917 161.004 115.117C161.367 115.314 161.649 115.605 161.849 115.989C162.052 116.374 162.153 116.846 162.153 117.407V122H161.332V117.457C161.332 116.876 161.168 116.416 160.842 116.077C160.519 115.739 160.085 115.569 159.54 115.569C159.168 115.569 158.837 115.649 158.548 115.809C158.259 115.969 158.029 116.2 157.86 116.502C157.694 116.8 157.611 117.156 157.611 117.568ZM165.139 117.568V122H164.317V114.909H165.116V116.022H165.19C165.356 115.658 165.615 115.368 165.965 115.149C166.319 114.928 166.756 114.817 167.276 114.817C167.753 114.817 168.172 114.917 168.532 115.117C168.895 115.314 169.177 115.605 169.377 115.989C169.58 116.374 169.682 116.846 169.682 117.407V122H168.86V117.457C168.86 116.876 168.697 116.416 168.371 116.077C168.047 115.739 167.613 115.569 167.069 115.569C166.696 115.569 166.365 115.649 166.076 115.809C165.787 115.969 165.558 116.2 165.388 116.502C165.222 116.8 165.139 117.156 165.139 117.568ZM171.855 122V114.909H172.681V122H171.855ZM172.275 113.69C172.106 113.69 171.961 113.633 171.841 113.52C171.721 113.403 171.661 113.263 171.661 113.099C171.661 112.936 171.721 112.798 171.841 112.684C171.961 112.567 172.106 112.509 172.275 112.509C172.444 112.509 172.589 112.567 172.709 112.684C172.829 112.798 172.889 112.936 172.889 113.099C172.889 113.263 172.829 113.403 172.709 113.52C172.589 113.633 172.444 113.69 172.275 113.69ZM175.676 117.568V122H174.854V114.909H175.653V116.022H175.727C175.893 115.658 176.152 115.368 176.502 115.149C176.856 114.928 177.293 114.817 177.814 114.817C178.291 114.817 178.709 114.917 179.069 115.117C179.432 115.314 179.714 115.605 179.914 115.989C180.117 116.374 180.219 116.846 180.219 117.407V122H179.397V117.457C179.397 116.876 179.234 116.416 178.908 116.077C178.585 115.739 178.151 115.569 177.606 115.569C177.233 115.569 176.903 115.649 176.613 115.809C176.324 115.969 176.095 116.2 175.925 116.502C175.759 116.8 175.676 117.156 175.676 117.568ZM185.088 124.807C184.605 124.807 184.182 124.744 183.818 124.618C183.455 124.494 183.149 124.325 182.9 124.11C182.65 123.894 182.457 123.653 182.318 123.385L182.992 122.942C183.094 123.12 183.229 123.296 183.398 123.468C183.571 123.64 183.794 123.783 184.068 123.897C184.345 124.011 184.685 124.068 185.088 124.068C185.716 124.068 186.222 123.911 186.607 123.597C186.995 123.283 187.188 122.796 187.188 122.134V120.537H187.115C187.019 120.752 186.882 120.967 186.704 121.183C186.525 121.395 186.291 121.572 186.002 121.714C185.716 121.855 185.36 121.926 184.936 121.926C184.369 121.926 183.866 121.786 183.426 121.506C182.989 121.226 182.644 120.826 182.392 120.306C182.143 119.783 182.018 119.159 182.018 118.436C182.018 117.719 182.14 117.088 182.383 116.543C182.629 115.999 182.972 115.574 183.412 115.269C183.852 114.964 184.365 114.812 184.949 114.812C185.383 114.812 185.744 114.889 186.03 115.043C186.316 115.194 186.545 115.382 186.718 115.606C186.893 115.831 187.03 116.049 187.128 116.262H187.212V114.909H188.015V122.185C188.015 122.785 187.887 123.279 187.632 123.667C187.376 124.054 187.028 124.341 186.588 124.525C186.148 124.713 185.648 124.807 185.088 124.807ZM185.033 121.174C185.488 121.174 185.877 121.064 186.201 120.846C186.524 120.624 186.771 120.307 186.944 119.895C187.116 119.482 187.202 118.992 187.202 118.422C187.202 117.868 187.118 117.377 186.948 116.95C186.779 116.519 186.533 116.18 186.21 115.934C185.89 115.685 185.497 115.56 185.033 115.56C184.559 115.56 184.159 115.688 183.832 115.943C183.506 116.199 183.26 116.543 183.094 116.977C182.927 117.408 182.844 117.89 182.844 118.422C182.844 118.964 182.929 119.442 183.098 119.858C183.268 120.27 183.515 120.594 183.842 120.827C184.168 121.058 184.565 121.174 185.033 121.174Z" fill="black"/>
<path fill-rule="evenodd" clip-rule="evenodd" d="M334.5 110.653C334.5 109.226 336.029 108.323 337.279 109.01L348.819 115.357C350.114 116.069 350.114 117.93 348.819 118.643L337.28 124.99C336.03 125.677 334.501 124.773 334.501 123.347L334.5 110.653Z" fill="black"/>
<path fill-rule="evenodd" clip-rule="evenodd" d="M382.75 110.25C382.75 110.051 382.829 109.86 382.97 109.72C383.11 109.579 383.301 109.5 383.5 109.5H385C385.199 109.5 385.39 109.579 385.53 109.72C385.671 109.86 385.75 110.051 385.75 110.25V123.75C385.75 123.949 385.671 124.14 385.53 124.28C385.39 124.421 385.199 124.5 385 124.5H383.5C383.301 124.5 383.11 124.421 382.97 124.28C382.829 124.14 382.75 123.949 382.75 123.75V110.25ZM390.25 110.25C390.25 110.051 390.329 109.86 390.47 109.72C390.61 109.579 390.801 109.5 391 109.5H392.5C392.699 109.5 392.89 109.579 393.03 109.72C393.171 109.86 393.25 110.051 393.25 110.25V123.75C393.25 123.949 393.171 124.14 393.03 124.28C392.89 124.421 392.699 124.5 392.5 124.5H391C390.801 124.5 390.61 124.421 390.47 124.28C390.329 124.14 390.25 123.949 390.25 123.75V110.25Z" fill="black"/>
<path d="M436.74 114L436.394 123M431.606 123L431.26 114M441.228 110.79C441.57 110.842 441.91 110.897 442.25 110.956M441.228 110.79L440.16 124.673C440.116 125.238 439.861 125.766 439.445 126.151C439.029 126.536 438.483 126.75 437.916 126.75H430.084C429.517 126.75 428.971 126.536 428.555 126.151C428.139 125.766 427.884 125.238 427.84 124.673L426.772 110.79M441.228 110.79C440.074 110.616 438.914 110.483 437.75 110.393M426.772 110.79C426.43 110.841 426.09 110.896 425.75 110.955M426.772 110.79C427.926 110.616 429.086 110.483 430.25 110.393M437.75 110.393V109.477C437.75 108.297 436.84 107.313 435.66 107.276C434.554 107.241 433.446 107.241 432.34 107.276C431.16 107.313 430.25 108.298 430.25 109.477V110.393M437.75 110.393C435.254 110.2 432.746 110.2 430.25 110.393" stroke="black" stroke-width="1.5" stroke-linecap="round" stroke-linejoin="round"/>
<path d="M75.5494 147.364C75.5494 148.955 75.266 150.339 74.6992 151.517C74.1325 152.691 73.3519 153.6 72.3576 154.247C71.3683 154.888 70.2298 155.209 68.9421 155.209C67.6545 155.209 66.5135 154.888 65.5192 154.247C64.5298 153.6 63.7518 152.691 63.185 151.517C62.6232 150.339 62.3423 148.955 62.3423 147.364C62.3423 145.773 62.6232 144.391 63.185 143.217C63.7518 142.039 64.5323 141.129 65.5266 140.488C66.521 139.842 67.6594 139.518 68.9421 139.518C70.2298 139.518 71.3683 139.842 72.3576 140.488C73.3519 141.129 74.1325 142.039 74.6992 143.217C75.266 144.391 75.5494 145.773 75.5494 147.364ZM74.1921 147.364C74.1921 145.996 73.9634 144.826 73.506 143.851C73.0487 142.872 72.4247 142.124 71.6342 141.607C70.8438 141.089 69.9464 140.831 68.9421 140.831C67.9428 140.831 67.0479 141.089 66.2575 141.607C65.467 142.124 64.8406 142.869 64.3782 143.844C63.9208 144.818 63.6921 145.991 63.6921 147.364C63.6921 148.731 63.9208 149.902 64.3782 150.876C64.8356 151.85 65.4595 152.599 66.25 153.121C67.0405 153.638 67.9379 153.896 68.9421 153.896C69.9464 153.896 70.8438 153.638 71.6342 153.121C72.4297 152.604 73.0561 151.858 73.5135 150.884C73.9709 149.904 74.1971 148.731 74.1921 147.364ZM79.9735 147.841V155H78.646V143.545H79.9362V145.343H80.0555C80.324 144.756 80.7416 144.286 81.3083 143.933C81.8801 143.575 82.586 143.396 83.4262 143.396C84.1968 143.396 84.873 143.558 85.4546 143.881C86.0413 144.199 86.4962 144.669 86.8193 145.29C87.1475 145.912 87.3115 146.675 87.3115 147.58V155H85.9841V147.662C85.9841 146.722 85.7206 145.979 85.1936 145.432C84.6716 144.885 83.9706 144.612 83.0906 144.612C82.4891 144.612 81.9546 144.741 81.4873 145C81.02 145.258 80.6496 145.631 80.3762 146.118C80.1077 146.6 79.9735 147.175 79.9735 147.841ZM90.8221 155V143.545H92.157V155H90.8221ZM91.5007 141.577C91.2273 141.577 90.9936 141.485 90.7997 141.301C90.6058 141.112 90.5089 140.886 90.5089 140.622C90.5089 140.359 90.6058 140.135 90.7997 139.951C90.9936 139.762 91.2273 139.668 91.5007 139.668C91.7741 139.668 92.0078 139.762 92.2017 139.951C92.3956 140.135 92.4925 140.359 92.4925 140.622C92.4925 140.886 92.3956 141.112 92.2017 141.301C92.0078 141.485 91.7741 141.577 91.5007 141.577ZM96.4878 143.545L99.441 148.43L102.394 143.545H103.938L100.254 149.273L103.938 155H102.394L99.441 150.272L96.4878 155H94.9516L98.5908 149.273L94.9516 143.545H96.4878ZM109.652 155L105.468 139.727H106.885L110.346 152.86H110.465L113.925 139.727H115.536L118.996 152.86H119.115L122.576 139.727H124L119.816 155H118.325L114.783 142.047H114.686L111.143 155H109.652ZM127.915 139.727V155H126.521V139.727H127.915ZM131.976 155V139.727H133.37V147.953H133.504L140.962 139.727H142.796L136.271 146.789L142.767 155H141.066L135.406 147.759L133.37 150.041V155H131.976ZM146.823 139.727V155H145.429V139.727H146.823Z" fill="black"/>
<rect x="159.5" y="136.5" width="68" height="22" rx="7.5" fill="white" stroke="#C9C9C9"/>
<path d="M169.256 153V143.545H172.307C172.978 143.545 173.538 143.667 173.988 143.91C174.44 144.15 174.78 144.484 175.008 144.912C175.239 145.337 175.354 145.824 175.354 146.375C175.354 146.926 175.239 147.413 175.008 147.834C174.78 148.256 174.442 148.585 173.992 148.822C173.543 149.059 172.986 149.178 172.321 149.178H169.722V148.388H172.298C172.79 148.388 173.2 148.307 173.526 148.143C173.855 147.98 174.1 147.748 174.26 147.446C174.423 147.145 174.505 146.788 174.505 146.375C174.505 145.963 174.423 145.603 174.26 145.295C174.097 144.984 173.851 144.744 173.521 144.575C173.195 144.406 172.783 144.321 172.284 144.321H170.119V153H169.256ZM173.424 148.734L175.751 153H174.754L172.45 148.734H173.424ZM181.792 150.29V145.909H182.613V153H181.792V151.823H181.727C181.561 152.186 181.298 152.489 180.938 152.732C180.578 152.972 180.137 153.092 179.617 153.092C179.165 153.092 178.763 152.994 178.412 152.797C178.062 152.597 177.786 152.304 177.586 151.92C177.386 151.535 177.286 151.063 177.286 150.502V145.909H178.108V150.452C178.108 151.006 178.271 151.452 178.597 151.79C178.923 152.126 179.342 152.294 179.853 152.294C180.173 152.294 180.481 152.217 180.776 152.063C181.072 151.909 181.315 151.684 181.506 151.389C181.696 151.09 181.792 150.724 181.792 150.29ZM185.611 148.568V153H184.789V145.909H185.588V147.022H185.661C185.828 146.658 186.086 146.368 186.437 146.149C186.791 145.928 187.228 145.817 187.748 145.817C188.225 145.817 188.644 145.917 189.004 146.117C189.367 146.314 189.649 146.605 189.849 146.989C190.052 147.374 190.153 147.846 190.153 148.407V153H189.332V148.457C189.332 147.876 189.168 147.416 188.842 147.077C188.519 146.739 188.085 146.569 187.54 146.569C187.168 146.569 186.837 146.649 186.548 146.809C186.259 146.969 186.029 147.2 185.86 147.502C185.694 147.8 185.611 148.156 185.611 148.568ZM193.139 148.568V153H192.317V145.909H193.116V147.022H193.19C193.356 146.658 193.615 146.368 193.965 146.149C194.319 145.928 194.756 145.817 195.276 145.817C195.753 145.817 196.172 145.917 196.532 146.117C196.895 146.314 197.177 146.605 197.377 146.989C197.58 147.374 197.682 147.846 197.682 148.407V153H196.86V148.457C196.86 147.876 196.697 147.416 196.371 147.077C196.047 146.739 195.613 146.569 195.069 146.569C194.696 146.569 194.365 146.649 194.076 146.809C193.787 146.969 193.558 147.2 193.388 147.502C193.222 147.8 193.139 148.156 193.139 148.568ZM199.855 153V145.909H200.681V153H199.855ZM200.275 144.69C200.106 144.69 199.961 144.633 199.841 144.52C199.721 144.403 199.661 144.263 199.661 144.099C199.661 143.936 199.721 143.798 199.841 143.684C199.961 143.567 200.106 143.509 200.275 143.509C200.444 143.509 200.589 143.567 200.709 143.684C200.829 143.798 200.889 143.936 200.889 144.099C200.889 144.263 200.829 144.403 200.709 144.52C200.589 144.633 200.444 144.69 200.275 144.69ZM203.676 148.568V153H202.854V145.909H203.653V147.022H203.727C203.893 146.658 204.152 146.368 204.502 146.149C204.856 145.928 205.293 145.817 205.814 145.817C206.291 145.817 206.709 145.917 207.069 146.117C207.432 146.314 207.714 146.605 207.914 146.989C208.117 147.374 208.219 147.846 208.219 148.407V153H207.397V148.457C207.397 147.876 207.234 147.416 206.908 147.077C206.585 146.739 206.151 146.569 205.606 146.569C205.233 146.569 204.903 146.649 204.613 146.809C204.324 146.969 204.095 147.2 203.925 147.502C203.759 147.8 203.676 148.156 203.676 148.568ZM213.088 155.807C212.605 155.807 212.182 155.744 211.818 155.618C211.455 155.494 211.149 155.325 210.9 155.11C210.65 154.894 210.457 154.653 210.318 154.385L210.992 153.942C211.094 154.12 211.229 154.296 211.398 154.468C211.571 154.64 211.794 154.783 212.068 154.897C212.345 155.011 212.685 155.068 213.088 155.068C213.716 155.068 214.222 154.911 214.607 154.597C214.995 154.283 215.188 153.796 215.188 153.134V151.537H215.115C215.019 151.752 214.882 151.967 214.704 152.183C214.525 152.395 214.291 152.572 214.002 152.714C213.716 152.855 213.36 152.926 212.936 152.926C212.369 152.926 211.866 152.786 211.426 152.506C210.989 152.226 210.644 151.826 210.392 151.306C210.143 150.783 210.018 150.159 210.018 149.436C210.018 148.719 210.14 148.088 210.383 147.543C210.629 146.999 210.972 146.574 211.412 146.269C211.852 145.964 212.365 145.812 212.949 145.812C213.383 145.812 213.744 145.889 214.03 146.043C214.316 146.194 214.545 146.382 214.718 146.606C214.893 146.831 215.03 147.049 215.128 147.262H215.212V145.909H216.015V153.185C216.015 153.785 215.887 154.279 215.632 154.667C215.376 155.054 215.028 155.341 214.588 155.525C214.148 155.713 213.648 155.807 213.088 155.807ZM213.033 152.174C213.488 152.174 213.877 152.064 214.201 151.846C214.524 151.624 214.771 151.307 214.944 150.895C215.116 150.482 215.202 149.992 215.202 149.422C215.202 148.868 215.118 148.377 214.948 147.95C214.779 147.519 214.533 147.18 214.21 146.934C213.89 146.685 213.497 146.56 213.033 146.56C212.559 146.56 212.159 146.688 211.832 146.943C211.506 147.199 211.26 147.543 211.094 147.977C210.927 148.408 210.844 148.89 210.844 149.422C210.844 149.964 210.929 150.442 211.098 150.858C211.268 151.27 211.515 151.594 211.842 151.827C212.168 152.058 212.565 152.174 213.033 152.174Z" fill="black"/>
<path fill-rule="evenodd" clip-rule="evenodd" d="M334.5 141.653C334.5 140.226 336.029 139.323 337.279 140.01L348.819 146.357C350.114 147.069 350.114 148.93 348.819 149.643L337.28 155.99C336.03 156.677 334.501 155.773 334.501 154.347L334.5 141.653Z" fill="black"/>
<path fill-rule="evenodd" clip-rule="evenodd" d="M382.75 141.25C382.75 141.051 382.829 140.86 382.97 140.72C383.11 140.579 383.301 140.5 383.5 140.5H385C385.199 140.5 385.39 140.579 385.53 140.72C385.671 140.86 385.75 141.051 385.75 141.25V154.75C385.75 154.949 385.671 155.14 385.53 155.28C385.39 155.421 385.199 155.5 385 155.5H383.5C383.301 155.5 383.11 155.421 382.97 155.28C382.829 155.14 382.75 154.949 382.75 154.75V141.25ZM390.25 141.25C390.25 141.051 390.329 140.86 390.47 140.72C390.61 140.579 390.801 140.5 391 140.5H392.5C392.699 140.5 392.89 140.579 393.03 140.72C393.171 140.86 393.25 141.051 393.25 141.25V154.75C393.25 154.949 393.171 155.14 393.03 155.28C392.89 155.421 392.699 155.5 392.5 155.5H391C390.801 155.5 390.61 155.421 390.47 155.28C390.329 155.14 390.25 154.949 390.25 154.75V141.25Z" fill="black"/>
<path d="M436.74 145L436.394 154M431.606 154L431.26 145M441.228 141.79C441.57 141.842 441.91 141.897 442.25 141.956M441.228 141.79L440.16 155.673C440.116 156.238 439.861 156.766 439.445 157.151C439.029 157.536 438.483 157.75 437.916 157.75H430.084C429.517 157.75 428.971 157.536 428.555 157.151C428.139 156.766 427.884 156.238 427.84 155.673L426.772 141.79M441.228 141.79C440.074 141.616 438.914 141.483 437.75 141.393M426.772 141.79C426.43 141.841 426.09 141.896 425.75 141.955M426.772 141.79C427.926 141.616 429.086 141.483 430.25 141.393M437.75 141.393V140.477C437.75 139.297 436.84 138.313 435.66 138.276C434.554 138.241 433.446 138.241 432.34 138.276C431.16 138.313 430.25 139.298 430.25 140.477V141.393M437.75 141.393C435.254 141.2 432.746 141.2 430.25 141.393" stroke="black" stroke-width="1.5" stroke-linecap="round" stroke-linejoin="round"/>
<path d="M75.5494 178.364C75.5494 179.955 75.266 181.339 74.6992 182.517C74.1325 183.691 73.3519 184.6 72.3576 185.247C71.3683 185.888 70.2298 186.209 68.9421 186.209C67.6545 186.209 66.5135 185.888 65.5192 185.247C64.5298 184.6 63.7518 183.691 63.185 182.517C62.6232 181.339 62.3423 179.955 62.3423 178.364C62.3423 176.773 62.6232 175.391 63.185 174.217C63.7518 173.039 64.5323 172.129 65.5266 171.488C66.521 170.842 67.6594 170.518 68.9421 170.518C70.2298 170.518 71.3683 170.842 72.3576 171.488C73.3519 172.129 74.1325 173.039 74.6992 174.217C75.266 175.391 75.5494 176.773 75.5494 178.364ZM74.1921 178.364C74.1921 176.996 73.9634 175.826 73.506 174.851C73.0487 173.872 72.4247 173.124 71.6342 172.607C70.8438 172.089 69.9464 171.831 68.9421 171.831C67.9428 171.831 67.0479 172.089 66.2575 172.607C65.467 173.124 64.8406 173.869 64.3782 174.844C63.9208 175.818 63.6921 176.991 63.6921 178.364C63.6921 179.731 63.9208 180.902 64.3782 181.876C64.8356 182.85 65.4595 183.599 66.25 184.121C67.0405 184.638 67.9379 184.896 68.9421 184.896C69.9464 184.896 70.8438 184.638 71.6342 184.121C72.4297 183.604 73.0561 182.858 73.5135 181.884C73.9709 180.904 74.1971 179.731 74.1921 178.364ZM79.9735 178.841V186H78.646V174.545H79.9362V176.343H80.0555C80.324 175.756 80.7416 175.286 81.3083 174.933C81.8801 174.575 82.586 174.396 83.4262 174.396C84.1968 174.396 84.873 174.558 85.4546 174.881C86.0413 175.199 86.4962 175.669 86.8193 176.29C87.1475 176.912 87.3115 177.675 87.3115 178.58V186H85.9841V178.662C85.9841 177.722 85.7206 176.979 85.1936 176.432C84.6716 175.885 83.9706 175.612 83.0906 175.612C82.4891 175.612 81.9546 175.741 81.4873 176C81.02 176.258 80.6496 176.631 80.3762 177.118C80.1077 177.6 79.9735 178.175 79.9735 178.841ZM90.8221 186V174.545H92.157V186H90.8221ZM91.5007 172.577C91.2273 172.577 90.9936 172.485 90.7997 172.301C90.6058 172.112 90.5089 171.886 90.5089 171.622C90.5089 171.359 90.6058 171.135 90.7997 170.951C90.9936 170.762 91.2273 170.668 91.5007 170.668C91.7741 170.668 92.0078 170.762 92.2017 170.951C92.3956 171.135 92.4925 171.359 92.4925 171.622C92.4925 171.886 92.3956 172.112 92.2017 172.301C92.0078 172.485 91.7741 172.577 91.5007 172.577ZM96.4878 174.545L99.441 179.43L102.394 174.545H103.938L100.254 180.273L103.938 186H102.394L99.441 181.272L96.4878 186H94.9516L98.5908 180.273L94.9516 174.545H96.4878ZM108.392 170.727V186H106.997V170.727H108.392ZM116.927 186H112.452V170.727H117.195C118.652 170.727 119.897 171.031 120.931 171.637C121.97 172.244 122.766 173.114 123.318 174.247C123.869 175.381 124.145 176.74 124.145 178.326C124.145 179.927 123.862 181.302 123.295 182.45C122.733 183.594 121.913 184.471 120.834 185.083C119.76 185.694 118.458 186 116.927 186ZM113.847 184.747H116.845C118.157 184.747 119.256 184.489 120.141 183.972C121.026 183.455 121.689 182.716 122.132 181.757C122.574 180.797 122.796 179.654 122.796 178.326C122.791 177.009 122.572 175.875 122.139 174.926C121.712 173.976 121.075 173.248 120.23 172.741C119.39 172.234 118.351 171.98 117.113 171.98H113.847V184.747ZM127.525 186V170.727H136.385V171.98H128.92V177.73H135.915V178.983H128.92V184.747H136.534V186H127.525Z" fill="black"/>
<rect x="150.5" y="167.5" width="68" height="22" rx="7.5" fill="white" stroke="#C9C9C9"/>
<path d="M160.256 184V174.545H163.307C163.978 174.545 164.538 174.667 164.988 174.91C165.44 175.15 165.78 175.484 166.008 175.912C166.239 176.337 166.354 176.824 166.354 177.375C166.354 177.926 166.239 178.413 166.008 178.834C165.78 179.256 165.442 179.585 164.992 179.822C164.543 180.059 163.986 180.178 163.321 180.178H160.722V179.388H163.298C163.79 179.388 164.2 179.307 164.526 179.143C164.855 178.98 165.1 178.748 165.26 178.446C165.423 178.145 165.505 177.788 165.505 177.375C165.505 176.963 165.423 176.603 165.26 176.295C165.097 175.984 164.851 175.744 164.521 175.575C164.195 175.406 163.783 175.321 163.284 175.321H161.119V184H160.256ZM164.424 179.734L166.751 184H165.754L163.45 179.734H164.424ZM172.792 181.29V176.909H173.613V184H172.792V182.823H172.727C172.561 183.186 172.298 183.489 171.938 183.732C171.578 183.972 171.137 184.092 170.617 184.092C170.165 184.092 169.763 183.994 169.412 183.797C169.062 183.597 168.786 183.304 168.586 182.92C168.386 182.535 168.286 182.063 168.286 181.502V176.909H169.108V181.452C169.108 182.006 169.271 182.452 169.597 182.79C169.923 183.126 170.342 183.294 170.853 183.294C171.173 183.294 171.481 183.217 171.776 183.063C172.072 182.909 172.315 182.684 172.506 182.389C172.696 182.09 172.792 181.724 172.792 181.29ZM176.611 179.568V184H175.789V176.909H176.588V178.022H176.661C176.828 177.658 177.086 177.368 177.437 177.149C177.791 176.928 178.228 176.817 178.748 176.817C179.225 176.817 179.644 176.917 180.004 177.117C180.367 177.314 180.649 177.605 180.849 177.989C181.052 178.374 181.153 178.846 181.153 179.407V184H180.332V179.457C180.332 178.876 180.168 178.416 179.842 178.077C179.519 177.739 179.085 177.569 178.54 177.569C178.168 177.569 177.837 177.649 177.548 177.809C177.259 177.969 177.029 178.2 176.86 178.502C176.694 178.8 176.611 179.156 176.611 179.568ZM184.139 179.568V184H183.317V176.909H184.116V178.022H184.19C184.356 177.658 184.615 177.368 184.965 177.149C185.319 176.928 185.756 176.817 186.276 176.817C186.753 176.817 187.172 176.917 187.532 177.117C187.895 177.314 188.177 177.605 188.377 177.989C188.58 178.374 188.682 178.846 188.682 179.407V184H187.86V179.457C187.86 178.876 187.697 178.416 187.371 178.077C187.047 177.739 186.613 177.569 186.069 177.569C185.696 177.569 185.365 177.649 185.076 177.809C184.787 177.969 184.558 178.2 184.388 178.502C184.222 178.8 184.139 179.156 184.139 179.568ZM190.855 184V176.909H191.681V184H190.855ZM191.275 175.69C191.106 175.69 190.961 175.633 190.841 175.52C190.721 175.403 190.661 175.263 190.661 175.099C190.661 174.936 190.721 174.798 190.841 174.684C190.961 174.567 191.106 174.509 191.275 174.509C191.444 174.509 191.589 174.567 191.709 174.684C191.829 174.798 191.889 174.936 191.889 175.099C191.889 175.263 191.829 175.403 191.709 175.52C191.589 175.633 191.444 175.69 191.275 175.69ZM194.676 179.568V184H193.854V176.909H194.653V178.022H194.727C194.893 177.658 195.152 177.368 195.502 177.149C195.856 176.928 196.293 176.817 196.814 176.817C197.291 176.817 197.709 176.917 198.069 177.117C198.432 177.314 198.714 177.605 198.914 177.989C199.117 178.374 199.219 178.846 199.219 179.407V184H198.397V179.457C198.397 178.876 198.234 178.416 197.908 178.077C197.585 177.739 197.151 177.569 196.606 177.569C196.233 177.569 195.903 177.649 195.613 177.809C195.324 177.969 195.095 178.2 194.925 178.502C194.759 178.8 194.676 179.156 194.676 179.568ZM204.088 186.807C203.605 186.807 203.182 186.744 202.818 186.618C202.455 186.494 202.149 186.325 201.9 186.11C201.65 185.894 201.457 185.653 201.318 185.385L201.992 184.942C202.094 185.12 202.229 185.296 202.398 185.468C202.571 185.64 202.794 185.783 203.068 185.897C203.345 186.011 203.685 186.068 204.088 186.068C204.716 186.068 205.222 185.911 205.607 185.597C205.995 185.283 206.188 184.796 206.188 184.134V182.537H206.115C206.019 182.752 205.882 182.967 205.704 183.183C205.525 183.395 205.291 183.572 205.002 183.714C204.716 183.855 204.36 183.926 203.936 183.926C203.369 183.926 202.866 183.786 202.426 183.506C201.989 183.226 201.644 182.826 201.392 182.306C201.143 181.783 201.018 181.159 201.018 180.436C201.018 179.719 201.14 179.088 201.383 178.543C201.629 177.999 201.972 177.574 202.412 177.269C202.852 176.964 203.365 176.812 203.949 176.812C204.383 176.812 204.744 176.889 205.03 177.043C205.316 177.194 205.545 177.382 205.718 177.606C205.893 177.831 206.03 178.049 206.128 178.262H206.212V176.909H207.015V184.185C207.015 184.785 206.887 185.279 206.632 185.667C206.376 186.054 206.028 186.341 205.588 186.525C205.148 186.713 204.648 186.807 204.088 186.807ZM204.033 183.174C204.488 183.174 204.877 183.064 205.201 182.846C205.524 182.624 205.771 182.307 205.944 181.895C206.116 181.482 206.202 180.992 206.202 180.422C206.202 179.868 206.118 179.377 205.948 178.95C205.779 178.519 205.533 178.18 205.21 177.934C204.89 177.685 204.497 177.56 204.033 177.56C203.559 177.56 203.159 177.688 202.832 177.943C202.506 178.199 202.26 178.543 202.094 178.977C201.927 179.408 201.844 179.89 201.844 180.422C201.844 180.964 201.929 181.442 202.098 181.858C202.268 182.27 202.515 182.594 202.842 182.827C203.168 183.058 203.565 183.174 204.033 183.174Z" fill="black"/>
<path fill-rule="evenodd" clip-rule="evenodd" d="M334.5 172.653C334.5 171.226 336.029 170.323 337.279 171.01L348.819 177.357C350.114 178.069 350.114 179.93 348.819 180.643L337.28 186.99C336.03 187.677 334.501 186.773 334.501 185.347L334.5 172.653Z" fill="black"/>
<path fill-rule="evenodd" clip-rule="evenodd" d="M380.5 235.653C380.5 234.226 382.029 233.323 383.279 234.01L394.819 240.357C396.114 241.069 396.114 242.93 394.819 243.643L383.28 249.99C382.03 250.677 380.501 249.773 380.501 248.347L380.5 235.653Z" fill="black"/>
<path fill-rule="evenodd" clip-rule="evenodd" d="M380.5 204.653C380.5 203.226 382.029 202.323 383.279 203.01L394.819 209.357C396.114 210.069 396.114 211.93 394.819 212.643L383.28 218.99C382.03 219.677 380.501 218.773 380.501 217.347L380.5 204.653Z" fill="black"/>
<path fill-rule="evenodd" clip-rule="evenodd" d="M382.75 172.25C382.75 172.051 382.829 171.86 382.97 171.72C383.11 171.579 383.301 171.5 383.5 171.5H385C385.199 171.5 385.39 171.579 385.53 171.72C385.671 171.86 385.75 172.051 385.75 172.25V185.75C385.75 185.949 385.671 186.14 385.53 186.28C385.39 186.421 385.199 186.5 385 186.5H383.5C383.301 186.5 383.11 186.421 382.97 186.28C382.829 186.14 382.75 185.949 382.75 185.75V172.25ZM390.25 172.25C390.25 172.051 390.329 171.86 390.47 171.72C390.61 171.579 390.801 171.5 391 171.5H392.5C392.699 171.5 392.89 171.579 393.03 171.72C393.171 171.86 393.25 172.051 393.25 172.25V185.75C393.25 185.949 393.171 186.14 393.03 186.28C392.89 186.421 392.699 186.5 392.5 186.5H391C390.801 186.5 390.61 186.421 390.47 186.28C390.329 186.14 390.25 185.949 390.25 185.75V172.25Z" fill="black"/>
<path d="M436.74 176L436.394 185M431.606 185L431.26 176M441.228 172.79C441.57 172.842 441.91 172.897 442.25 172.956M441.228 172.79L440.16 186.673C440.116 187.238 439.861 187.766 439.445 188.151C439.029 188.536 438.483 188.75 437.916 188.75H430.084C429.517 188.75 428.971 188.536 428.555 188.151C428.139 187.766 427.884 187.238 427.84 186.673L426.772 172.79M441.228 172.79C440.074 172.616 438.914 172.483 437.75 172.393M426.772 172.79C426.43 172.841 426.09 172.896 425.75 172.955M426.772 172.79C427.926 172.616 429.086 172.483 430.25 172.393M437.75 172.393V171.477C437.75 170.297 436.84 169.313 435.66 169.276C434.554 169.241 433.446 169.241 432.34 169.276C431.16 169.313 430.25 170.298 430.25 171.477V172.393M437.75 172.393C435.254 172.2 432.746 172.2 430.25 172.393" stroke="black" stroke-width="1.5" stroke-linecap="round" stroke-linejoin="round"/>
<path d="M63.0284 250V234.727H67.9577C69.0415 234.727 69.9464 234.924 70.6722 235.316C71.4031 235.704 71.9524 236.244 72.3203 236.935C72.6932 237.621 72.8796 238.409 72.8796 239.299C72.8796 240.189 72.6932 240.974 72.3203 241.655C71.9524 242.336 71.4055 242.868 70.6797 243.251C69.9538 243.634 69.054 243.825 67.9801 243.825H63.7816V242.55H67.9428C68.7383 242.55 69.3995 242.418 69.9265 242.155C70.4585 241.891 70.8537 241.516 71.1122 241.029C71.3757 240.542 71.5075 239.965 71.5075 239.299C71.5075 238.632 71.3757 238.051 71.1122 237.554C70.8487 237.051 70.451 236.664 69.919 236.39C69.392 236.117 68.7259 235.98 67.9205 235.98H64.4229V250H63.0284ZM69.7624 243.109L73.521 250H71.9102L68.1889 243.109H69.7624ZM80.5085 250.239C79.4396 250.239 78.5149 249.99 77.7344 249.493C76.9538 248.991 76.3498 248.297 75.9222 247.412C75.4996 246.522 75.2884 245.498 75.2884 244.34C75.2884 243.186 75.4996 242.162 75.9222 241.267C76.3498 240.368 76.9389 239.664 77.6896 239.157C78.4453 238.645 79.3178 238.389 80.3072 238.389C80.9286 238.389 81.5277 238.503 82.1044 238.732C82.6811 238.956 83.1982 239.301 83.6555 239.768C84.1179 240.231 84.4833 240.815 84.7518 241.521C85.0202 242.222 85.1545 243.052 85.1545 244.012V244.668H76.2056V243.497H83.7972C83.7972 242.761 83.6481 242.1 83.3498 241.513C83.0565 240.922 82.6463 240.455 82.1193 240.112C81.5973 239.768 80.9933 239.597 80.3072 239.597C79.5813 239.597 78.9425 239.791 78.3906 240.179C77.8388 240.566 77.4063 241.078 77.093 241.715C76.7848 242.351 76.6282 243.047 76.6232 243.803V244.504C76.6232 245.414 76.7798 246.209 77.093 246.89C77.4112 247.566 77.8612 248.091 78.4428 248.464C79.0245 248.837 79.7131 249.023 80.5085 249.023C81.0504 249.023 81.5252 248.939 81.9329 248.77C82.3455 248.6 82.6911 248.374 82.9695 248.091C83.2528 247.803 83.4666 247.487 83.6108 247.144L84.8711 247.554C84.6971 248.036 84.4112 248.481 84.0135 248.889C83.6207 249.297 83.1286 249.625 82.5369 249.873C81.9503 250.117 81.2741 250.239 80.5085 250.239ZM91.2789 250.261C90.5878 250.261 89.9564 250.127 89.3847 249.858C88.8129 249.585 88.358 249.192 88.02 248.68C87.6819 248.163 87.5129 247.537 87.5129 246.801C87.5129 246.234 87.6198 245.757 87.8335 245.369C88.0473 244.981 88.3506 244.663 88.7433 244.414C89.1361 244.166 89.6009 243.969 90.1379 243.825C90.6748 243.681 91.2664 243.569 91.9127 243.49C92.5541 243.41 93.096 243.341 93.5384 243.281C93.9859 243.221 94.3264 243.127 94.5601 242.998C94.7938 242.868 94.9106 242.659 94.9106 242.371V242.103C94.9106 241.322 94.6769 240.708 94.2096 240.261C93.7472 239.808 93.0811 239.582 92.211 239.582C91.3857 239.582 90.7121 239.763 90.1901 240.126C89.673 240.489 89.3101 240.917 89.1013 241.409L87.841 240.954C88.0995 240.328 88.4575 239.828 88.9149 239.455C89.3722 239.077 89.8843 238.806 90.4511 238.642C91.0178 238.473 91.5921 238.389 92.1737 238.389C92.6112 238.389 93.0661 238.446 93.5384 238.56C94.0157 238.675 94.4582 238.874 94.8659 239.157C95.2735 239.435 95.6041 239.826 95.8577 240.328C96.1112 240.825 96.238 241.456 96.238 242.222V250H94.9106V248.188H94.8286C94.6695 248.526 94.4333 248.854 94.1201 249.172C93.8069 249.49 93.4142 249.751 92.9419 249.955C92.4695 250.159 91.9152 250.261 91.2789 250.261ZM91.4578 249.045C92.1638 249.045 92.7753 248.889 93.2923 248.576C93.8094 248.262 94.2071 247.847 94.4855 247.33C94.7689 246.808 94.9106 246.234 94.9106 245.608V243.952C94.8112 244.047 94.6446 244.131 94.411 244.206C94.1823 244.28 93.9163 244.347 93.613 244.407C93.3147 244.462 93.0164 244.509 92.7181 244.549C92.4198 244.588 92.1514 244.623 91.9127 244.653C91.2664 244.733 90.7146 244.857 90.2572 245.026C89.7998 245.195 89.4493 245.429 89.2057 245.727C88.9621 246.02 88.8403 246.398 88.8403 246.86C88.8403 247.556 89.0889 248.096 89.586 248.479C90.0832 248.857 90.7071 249.045 91.4578 249.045ZM104.244 250.239C103.219 250.239 102.327 249.983 101.566 249.471C100.811 248.958 100.224 248.257 99.8064 247.368C99.3888 246.478 99.18 245.463 99.18 244.325C99.18 243.176 99.3912 242.155 99.8138 241.26C100.241 240.365 100.833 239.664 101.589 239.157C102.344 238.645 103.222 238.389 104.221 238.389C104.987 238.389 105.68 238.538 106.302 238.836C106.923 239.13 107.435 239.545 107.838 240.082C108.246 240.614 108.502 241.235 108.606 241.946H107.264C107.125 241.3 106.789 240.748 106.257 240.29C105.73 239.828 105.059 239.597 104.244 239.597C103.513 239.597 102.866 239.796 102.305 240.194C101.743 240.586 101.303 241.136 100.985 241.842C100.671 242.543 100.515 243.355 100.515 244.28C100.515 245.21 100.669 246.033 100.977 246.749C101.285 247.46 101.718 248.016 102.275 248.419C102.837 248.822 103.493 249.023 104.244 249.023C104.751 249.023 105.213 248.929 105.631 248.74C106.053 248.546 106.406 248.272 106.69 247.919C106.978 247.566 107.172 247.146 107.271 246.659H108.614C108.514 247.35 108.268 247.967 107.875 248.509C107.487 249.045 106.983 249.468 106.361 249.776C105.745 250.085 105.039 250.239 104.244 250.239ZM115.97 238.545V239.701H110.504V238.545H115.97ZM112.212 235.801H113.547V247.01C113.547 247.487 113.629 247.862 113.793 248.136C113.957 248.404 114.171 248.596 114.434 248.71C114.698 248.819 114.978 248.874 115.277 248.874C115.451 248.874 115.6 248.864 115.724 248.844C115.848 248.819 115.958 248.794 116.052 248.77L116.336 249.97C116.206 250.02 116.047 250.065 115.858 250.104C115.669 250.149 115.436 250.172 115.157 250.172C114.67 250.172 114.2 250.065 113.748 249.851C113.301 249.637 112.933 249.319 112.644 248.896C112.356 248.474 112.212 247.949 112.212 247.323V235.801ZM124.242 235.98V234.727H135.317V235.98H130.477V250H129.082V235.98H124.242ZM141.15 250.239C140.081 250.239 139.157 249.99 138.376 249.493C137.595 248.991 136.991 248.297 136.564 247.412C136.141 246.522 135.93 245.498 135.93 244.34C135.93 243.186 136.141 242.162 136.564 241.267C136.991 240.368 137.581 239.664 138.331 239.157C139.087 238.645 139.959 238.389 140.949 238.389C141.57 238.389 142.169 238.503 142.746 238.732C143.323 238.956 143.84 239.301 144.297 239.768C144.759 240.231 145.125 240.815 145.393 241.521C145.662 242.222 145.796 243.052 145.796 244.012V244.668H136.847V243.497H144.439C144.439 242.761 144.29 242.1 143.991 241.513C143.698 240.922 143.288 240.455 142.761 240.112C142.239 239.768 141.635 239.597 140.949 239.597C140.223 239.597 139.584 239.791 139.032 240.179C138.48 240.566 138.048 241.078 137.735 241.715C137.426 242.351 137.27 243.047 137.265 243.803V244.504C137.265 245.414 137.421 246.209 137.735 246.89C138.053 247.566 138.503 248.091 139.084 248.464C139.666 248.837 140.355 249.023 141.15 249.023C141.692 249.023 142.167 248.939 142.574 248.77C142.987 248.6 143.333 248.374 143.611 248.091C143.894 247.803 144.108 247.487 144.252 247.144L145.513 247.554C145.339 248.036 145.053 248.481 144.655 248.889C144.262 249.297 143.77 249.625 143.179 249.873C142.592 250.117 141.916 250.239 141.15 250.239ZM156.417 241.059L155.202 241.402C155.082 241.059 154.913 240.748 154.695 240.469C154.476 240.191 154.19 239.97 153.837 239.806C153.489 239.642 153.056 239.56 152.539 239.56C151.764 239.56 151.127 239.744 150.63 240.112C150.133 240.479 149.885 240.954 149.885 241.536C149.885 242.028 150.054 242.428 150.392 242.737C150.735 243.04 151.262 243.281 151.973 243.46L153.703 243.885C154.662 244.119 155.381 244.489 155.858 244.996C156.34 245.503 156.581 246.14 156.581 246.905C156.581 247.551 156.402 248.126 156.044 248.628C155.686 249.13 155.187 249.525 154.545 249.814C153.909 250.097 153.171 250.239 152.331 250.239C151.212 250.239 150.29 249.988 149.564 249.485C148.838 248.978 148.373 248.248 148.169 247.293L149.445 246.98C149.609 247.661 149.929 248.175 150.407 248.523C150.889 248.871 151.523 249.045 152.308 249.045C153.188 249.045 153.892 248.849 154.419 248.456C154.946 248.059 155.209 247.561 155.209 246.965C155.209 246.502 155.055 246.115 154.747 245.801C154.439 245.483 153.971 245.25 153.345 245.1L151.473 244.653C150.479 244.414 149.743 244.037 149.266 243.52C148.788 243.002 148.55 242.361 148.55 241.596C148.55 240.964 148.721 240.41 149.064 239.933C149.407 239.45 149.88 239.072 150.481 238.799C151.083 238.526 151.769 238.389 152.539 238.389C153.588 238.389 154.426 238.627 155.053 239.105C155.684 239.577 156.139 240.228 156.417 241.059ZM164 238.545V239.701H158.533V238.545H164ZM160.241 235.801H161.576V247.01C161.576 247.487 161.658 247.862 161.822 248.136C161.986 248.404 162.2 248.596 162.463 248.71C162.727 248.819 163.008 248.874 163.306 248.874C163.48 248.874 163.629 248.864 163.753 248.844C163.878 248.819 163.987 248.794 164.082 248.77L164.365 249.97C164.236 250.02 164.077 250.065 163.888 250.104C163.699 250.149 163.465 250.172 163.187 250.172C162.699 250.172 162.23 250.065 161.777 249.851C161.33 249.637 160.962 249.319 160.674 248.896C160.385 248.474 160.241 247.949 160.241 247.323V235.801Z" fill="black"/>
<rect x="172.5" y="231.5" width="68" height="22" rx="7.5" fill="white" stroke="#C9C9C9"/>
<path d="M182.256 248V238.545H185.307C185.978 238.545 186.538 238.667 186.988 238.91C187.44 239.15 187.78 239.484 188.008 239.912C188.239 240.337 188.354 240.824 188.354 241.375C188.354 241.926 188.239 242.413 188.008 242.834C187.78 243.256 187.442 243.585 186.992 243.822C186.543 244.059 185.986 244.178 185.321 244.178H182.722V243.388H185.298C185.79 243.388 186.2 243.307 186.526 243.143C186.855 242.98 187.1 242.748 187.26 242.446C187.423 242.145 187.505 241.788 187.505 241.375C187.505 240.963 187.423 240.603 187.26 240.295C187.097 239.984 186.851 239.744 186.521 239.575C186.195 239.406 185.783 239.321 185.284 239.321H183.119V248H182.256ZM186.424 243.734L188.751 248H187.754L185.45 243.734H186.424ZM194.792 245.29V240.909H195.613V248H194.792V246.823H194.727C194.561 247.186 194.298 247.489 193.938 247.732C193.578 247.972 193.137 248.092 192.617 248.092C192.165 248.092 191.763 247.994 191.412 247.797C191.062 247.597 190.786 247.304 190.586 246.92C190.386 246.535 190.286 246.063 190.286 245.502V240.909H191.108V245.452C191.108 246.006 191.271 246.452 191.597 246.79C191.923 247.126 192.342 247.294 192.853 247.294C193.173 247.294 193.481 247.217 193.776 247.063C194.072 246.909 194.315 246.684 194.506 246.389C194.696 246.09 194.792 245.724 194.792 245.29ZM198.611 243.568V248H197.789V240.909H198.588V242.022H198.661C198.828 241.658 199.086 241.368 199.437 241.149C199.791 240.928 200.228 240.817 200.748 240.817C201.225 240.817 201.644 240.917 202.004 241.117C202.367 241.314 202.649 241.605 202.849 241.989C203.052 242.374 203.153 242.846 203.153 243.407V248H202.332V243.457C202.332 242.876 202.168 242.416 201.842 242.077C201.519 241.739 201.085 241.569 200.54 241.569C200.168 241.569 199.837 241.649 199.548 241.809C199.259 241.969 199.029 242.2 198.86 242.502C198.694 242.8 198.611 243.156 198.611 243.568ZM206.139 243.568V248H205.317V240.909H206.116V242.022H206.19C206.356 241.658 206.615 241.368 206.965 241.149C207.319 240.928 207.756 240.817 208.276 240.817C208.753 240.817 209.172 240.917 209.532 241.117C209.895 241.314 210.177 241.605 210.377 241.989C210.58 242.374 210.682 242.846 210.682 243.407V248H209.86V243.457C209.86 242.876 209.697 242.416 209.371 242.077C209.047 241.739 208.613 241.569 208.069 241.569C207.696 241.569 207.365 241.649 207.076 241.809C206.787 241.969 206.558 242.2 206.388 242.502C206.222 242.8 206.139 243.156 206.139 243.568ZM212.855 248V240.909H213.681V248H212.855ZM213.275 239.69C213.106 239.69 212.961 239.633 212.841 239.52C212.721 239.403 212.661 239.263 212.661 239.099C212.661 238.936 212.721 238.798 212.841 238.684C212.961 238.567 213.106 238.509 213.275 238.509C213.444 238.509 213.589 238.567 213.709 238.684C213.829 238.798 213.889 238.936 213.889 239.099C213.889 239.263 213.829 239.403 213.709 239.52C213.589 239.633 213.444 239.69 213.275 239.69ZM216.676 243.568V248H215.854V240.909H216.653V242.022H216.727C216.893 241.658 217.152 241.368 217.502 241.149C217.856 240.928 218.293 240.817 218.814 240.817C219.291 240.817 219.709 240.917 220.069 241.117C220.432 241.314 220.714 241.605 220.914 241.989C221.117 242.374 221.219 242.846 221.219 243.407V248H220.397V243.457C220.397 242.876 220.234 242.416 219.908 242.077C219.585 241.739 219.151 241.569 218.606 241.569C218.233 241.569 217.903 241.649 217.613 241.809C217.324 241.969 217.095 242.2 216.925 242.502C216.759 242.8 216.676 243.156 216.676 243.568ZM226.088 250.807C225.605 250.807 225.182 250.744 224.818 250.618C224.455 250.494 224.149 250.325 223.9 250.11C223.65 249.894 223.457 249.653 223.318 249.385L223.992 248.942C224.094 249.12 224.229 249.296 224.398 249.468C224.571 249.64 224.794 249.783 225.068 249.897C225.345 250.011 225.685 250.068 226.088 250.068C226.716 250.068 227.222 249.911 227.607 249.597C227.995 249.283 228.188 248.796 228.188 248.134V246.537H228.115C228.019 246.752 227.882 246.967 227.704 247.183C227.525 247.395 227.291 247.572 227.002 247.714C226.716 247.855 226.36 247.926 225.936 247.926C225.369 247.926 224.866 247.786 224.426 247.506C223.989 247.226 223.644 246.826 223.392 246.306C223.143 245.783 223.018 245.159 223.018 244.436C223.018 243.719 223.14 243.088 223.383 242.543C223.629 241.999 223.972 241.574 224.412 241.269C224.852 240.964 225.365 240.812 225.949 240.812C226.383 240.812 226.744 240.889 227.03 241.043C227.316 241.194 227.545 241.382 227.718 241.606C227.893 241.831 228.03 242.049 228.128 242.262H228.212V240.909H229.015V248.185C229.015 248.785 228.887 249.279 228.632 249.667C228.376 250.054 228.028 250.341 227.588 250.525C227.148 250.713 226.648 250.807 226.088 250.807ZM226.033 247.174C226.488 247.174 226.877 247.064 227.201 246.846C227.524 246.624 227.771 246.307 227.944 245.895C228.116 245.482 228.202 244.992 228.202 244.422C228.202 243.868 228.118 243.377 227.948 242.95C227.779 242.519 227.533 242.18 227.21 241.934C226.89 241.685 226.497 241.56 226.033 241.56C225.559 241.56 225.159 241.688 224.832 241.943C224.506 242.199 224.26 242.543 224.094 242.977C223.927 243.408 223.844 243.89 223.844 244.422C223.844 244.964 223.929 245.442 224.098 245.858C224.268 246.27 224.515 246.594 224.842 246.827C225.168 247.058 225.565 247.174 226.033 247.174Z" fill="black"/>
<path fill-rule="evenodd" clip-rule="evenodd" d="M334.5 236.653C334.5 235.226 336.029 234.323 337.279 235.01L348.819 241.357C350.114 242.069 350.114 243.93 348.819 244.643L337.28 250.99C336.03 251.677 334.501 250.773 334.501 249.347L334.5 236.653Z" fill="#A1A1A1"/>
<path d="M436.74 240L436.394 249M431.606 249L431.26 240M441.228 236.79C441.57 236.842 441.91 236.897 442.25 236.956M441.228 236.79L440.16 250.673C440.116 251.238 439.861 251.766 439.445 252.151C439.029 252.536 438.483 252.75 437.916 252.75H430.084C429.517 252.75 428.971 252.536 428.555 252.151C428.139 251.766 427.884 251.238 427.84 250.673L426.772 236.79M441.228 236.79C440.074 236.616 438.914 236.483 437.75 236.393M426.772 236.79C426.43 236.841 426.09 236.896 425.75 236.955M426.772 236.79C427.926 236.616 429.086 236.483 430.25 236.393M437.75 236.393V235.477C437.75 234.297 436.84 233.313 435.66 233.276C434.554 233.241 433.446 233.241 432.34 233.276C431.16 233.313 430.25 234.298 430.25 235.477V236.393M437.75 236.393C435.254 236.2 432.746 236.2 430.25 236.393" stroke="black" stroke-width="1.5" stroke-linecap="round" stroke-linejoin="round"/>
<path d="M73.5955 207.5C73.4563 206.993 73.2525 206.518 72.984 206.076C72.7156 205.628 72.3825 205.238 71.9847 204.905C71.592 204.567 71.1371 204.303 70.62 204.114C70.108 203.925 69.5362 203.831 68.9048 203.831C67.9105 203.831 67.0206 204.089 66.2351 204.607C65.4496 205.124 64.8281 205.869 64.3707 206.844C63.9183 207.818 63.6921 208.991 63.6921 210.364C63.6921 211.731 63.9208 212.902 64.3782 213.876C64.8356 214.85 65.462 215.599 66.2575 216.121C67.0579 216.638 67.9727 216.896 69.0018 216.896C69.9414 216.896 70.7717 216.687 71.4925 216.27C72.2134 215.852 72.7752 215.256 73.1779 214.48C73.5856 213.705 73.7844 212.782 73.7745 211.713L74.2219 211.855H69.3299V210.602H75.1317V211.855C75.1317 213.158 74.8683 214.284 74.3413 215.233C73.8143 216.183 73.0909 216.916 72.1712 217.433C71.2514 217.95 70.195 218.209 69.0018 218.209C67.6694 218.209 66.5036 217.888 65.5043 217.247C64.505 216.6 63.7269 215.691 63.1701 214.517C62.6183 213.339 62.3423 211.955 62.3423 210.364C62.3423 209.165 62.5014 208.084 62.8196 207.12C63.1378 206.155 63.5877 205.33 64.1694 204.644C64.756 203.958 65.4496 203.433 66.25 203.07C67.0504 202.702 67.9354 202.518 68.9048 202.518C69.7401 202.518 70.5032 202.65 71.1942 202.914C71.8903 203.177 72.5018 203.54 73.0288 204.002C73.5607 204.46 73.9957 204.989 74.3338 205.591C74.6768 206.187 74.908 206.824 75.0273 207.5H73.5955ZM82.949 218.239C81.8801 218.239 80.9553 217.99 80.1748 217.493C79.3943 216.991 78.7902 216.297 78.3627 215.412C77.9401 214.522 77.7288 213.498 77.7288 212.34C77.7288 211.186 77.9401 210.162 78.3627 209.267C78.7902 208.368 79.3794 207.664 80.1301 207.157C80.8857 206.645 81.7583 206.389 82.7476 206.389C83.3691 206.389 83.9681 206.503 84.5448 206.732C85.1215 206.956 85.6386 207.301 86.096 207.768C86.5583 208.231 86.9237 208.815 87.1922 209.521C87.4607 210.222 87.5949 211.052 87.5949 212.012V212.668H78.646V211.497H86.2377C86.2377 210.761 86.0885 210.1 85.7902 209.513C85.4969 208.922 85.0867 208.455 84.5597 208.112C84.0377 207.768 83.4337 207.597 82.7476 207.597C82.0218 207.597 81.3829 207.791 80.8311 208.179C80.2792 208.566 79.8467 209.078 79.5335 209.715C79.2252 210.351 79.0686 211.047 79.0637 211.803V212.504C79.0637 213.414 79.2203 214.209 79.5335 214.89C79.8517 215.566 80.3016 216.091 80.8833 216.464C81.4649 216.837 82.1535 217.023 82.949 217.023C83.4909 217.023 83.9656 216.939 84.3733 216.77C84.786 216.6 85.1315 216.374 85.4099 216.091C85.6933 215.803 85.907 215.487 86.0512 215.144L87.3115 215.554C87.1375 216.036 86.8517 216.481 86.4539 216.889C86.0612 217.297 85.569 217.625 84.9774 217.873C84.3907 218.117 83.7146 218.239 82.949 218.239ZM94.9721 218.239C93.9828 218.239 93.1078 217.988 92.3471 217.485C91.5914 216.983 90.9998 216.29 90.5723 215.405C90.1447 214.515 89.9309 213.488 89.9309 212.325C89.9309 211.152 90.1447 210.12 90.5723 209.23C90.9998 208.335 91.5914 207.639 92.3471 207.142C93.1078 206.64 93.9828 206.389 94.9721 206.389C95.9615 206.389 96.834 206.64 97.5897 207.142C98.3453 207.644 98.937 208.34 99.3645 209.23C99.7971 210.12 100.013 211.152 100.013 212.325C100.013 213.488 99.7995 214.515 99.372 215.405C98.9444 216.29 98.3503 216.983 97.5897 217.485C96.834 217.988 95.9615 218.239 94.9721 218.239ZM94.9721 217.023C95.7676 217.023 96.4412 216.809 96.9931 216.382C97.5449 215.954 97.9625 215.385 98.2459 214.674C98.5343 213.963 98.6784 213.18 98.6784 212.325C98.6784 211.47 98.5343 210.684 98.2459 209.968C97.9625 209.252 97.5449 208.678 96.9931 208.246C96.4412 207.813 95.7676 207.597 94.9721 207.597C94.1816 207.597 93.508 207.813 92.9512 208.246C92.3993 208.678 91.9792 209.252 91.6909 209.968C91.4075 210.684 91.2658 211.47 91.2658 212.325C91.2658 213.18 91.4075 213.963 91.6909 214.674C91.9792 215.385 92.3993 215.954 92.9512 216.382C93.503 216.809 94.1767 217.023 94.9721 217.023ZM103.203 218V202.727H112.04V203.98H104.598V209.73H111.347V210.983H104.598V218H103.203ZM118.843 218.239C117.854 218.239 116.979 217.988 116.218 217.485C115.463 216.983 114.871 216.29 114.443 215.405C114.016 214.515 113.802 213.488 113.802 212.325C113.802 211.152 114.016 210.12 114.443 209.23C114.871 208.335 115.463 207.639 116.218 207.142C116.979 206.64 117.854 206.389 118.843 206.389C119.833 206.389 120.705 206.64 121.461 207.142C122.216 207.644 122.808 208.34 123.236 209.23C123.668 210.12 123.884 211.152 123.884 212.325C123.884 213.488 123.671 214.515 123.243 215.405C122.816 216.29 122.221 216.983 121.461 217.485C120.705 217.988 119.833 218.239 118.843 218.239ZM118.843 217.023C119.639 217.023 120.312 216.809 120.864 216.382C121.416 215.954 121.834 215.385 122.117 214.674C122.405 213.963 122.55 213.18 122.55 212.325C122.55 211.47 122.405 210.684 122.117 209.968C121.834 209.252 121.416 208.678 120.864 208.246C120.312 207.813 119.639 207.597 118.843 207.597C118.053 207.597 117.379 207.813 116.822 208.246C116.27 208.678 115.85 209.252 115.562 209.968C115.279 210.684 115.137 211.47 115.137 212.325C115.137 213.18 115.279 213.963 115.562 214.674C115.85 215.385 116.27 215.954 116.822 216.382C117.374 216.809 118.048 217.023 118.843 217.023ZM126.798 218V206.545H128.089V208.305H128.185C128.414 207.729 128.812 207.264 129.379 206.911C129.95 206.553 130.597 206.374 131.318 206.374C131.427 206.374 131.549 206.376 131.683 206.381C131.817 206.386 131.929 206.391 132.019 206.396V207.746C131.959 207.736 131.854 207.721 131.705 207.701C131.556 207.681 131.395 207.672 131.221 207.672C130.624 207.672 130.092 207.798 129.625 208.052C129.162 208.3 128.797 208.646 128.528 209.088C128.26 209.531 128.126 210.036 128.126 210.602V218H126.798ZM138.305 222.534C137.525 222.534 136.841 222.432 136.254 222.228C135.668 222.029 135.173 221.756 134.77 221.408C134.368 221.06 134.054 220.67 133.831 220.237L134.919 219.521C135.084 219.81 135.302 220.093 135.576 220.371C135.854 220.65 136.215 220.881 136.657 221.065C137.104 221.249 137.654 221.341 138.305 221.341C139.319 221.341 140.137 221.087 140.759 220.58C141.385 220.073 141.698 219.285 141.698 218.216V215.636H141.579C141.425 215.984 141.204 216.332 140.915 216.68C140.627 217.023 140.249 217.309 139.782 217.538C139.319 217.766 138.745 217.881 138.059 217.881C137.144 217.881 136.331 217.654 135.62 217.202C134.915 216.75 134.358 216.103 133.95 215.263C133.547 214.418 133.346 213.411 133.346 212.243C133.346 211.085 133.542 210.065 133.935 209.185C134.333 208.305 134.887 207.619 135.598 207.127C136.309 206.635 137.137 206.389 138.081 206.389C138.782 206.389 139.364 206.513 139.826 206.762C140.289 207.005 140.659 207.309 140.938 207.672C141.221 208.034 141.442 208.387 141.601 208.73H141.736V206.545H143.033V218.298C143.033 219.268 142.827 220.066 142.414 220.692C142.002 221.319 141.44 221.781 140.729 222.079C140.018 222.382 139.21 222.534 138.305 222.534ZM138.216 216.665C138.951 216.665 139.58 216.489 140.102 216.136C140.624 215.778 141.025 215.266 141.303 214.599C141.581 213.933 141.721 213.14 141.721 212.221C141.721 211.326 141.584 210.533 141.31 209.842C141.037 209.146 140.639 208.599 140.117 208.201C139.6 207.798 138.966 207.597 138.216 207.597C137.45 207.597 136.804 207.803 136.277 208.216C135.75 208.629 135.352 209.185 135.084 209.886C134.815 210.582 134.681 211.36 134.681 212.221C134.681 213.096 134.818 213.869 135.091 214.54C135.364 215.206 135.765 215.728 136.292 216.106C136.819 216.479 137.46 216.665 138.216 216.665ZM151.178 218.239C150.11 218.239 149.185 217.99 148.404 217.493C147.624 216.991 147.02 216.297 146.592 215.412C146.17 214.522 145.958 213.498 145.958 212.34C145.958 211.186 146.17 210.162 146.592 209.267C147.02 208.368 147.609 207.664 148.36 207.157C149.115 206.645 149.988 206.389 150.977 206.389C151.599 206.389 152.198 206.503 152.774 206.732C153.351 206.956 153.868 207.301 154.325 207.768C154.788 208.231 155.153 208.815 155.422 209.521C155.69 210.222 155.824 211.052 155.824 212.012V212.668H146.876V211.497H154.467C154.467 210.761 154.318 210.1 154.02 209.513C153.726 208.922 153.316 208.455 152.789 208.112C152.267 207.768 151.663 207.597 150.977 207.597C150.251 207.597 149.612 207.791 149.061 208.179C148.509 208.566 148.076 209.078 147.763 209.715C147.455 210.351 147.298 211.047 147.293 211.803V212.504C147.293 213.414 147.45 214.209 147.763 214.89C148.081 215.566 148.531 216.091 149.113 216.464C149.694 216.837 150.383 217.023 151.178 217.023C151.72 217.023 152.195 216.939 152.603 216.77C153.015 216.6 153.361 216.374 153.639 216.091C153.923 215.803 154.137 215.487 154.281 215.144L155.541 215.554C155.367 216.036 155.081 216.481 154.683 216.889C154.291 217.297 153.798 217.625 153.207 217.873C152.62 218.117 151.944 218.239 151.178 218.239Z" fill="black"/>
<rect x="163.5" y="199.5" width="68" height="22" rx="7.5" fill="white" stroke="#C9C9C9"/>
<path d="M173.256 216V206.545H176.307C176.978 206.545 177.538 206.667 177.988 206.91C178.44 207.15 178.78 207.484 179.008 207.912C179.239 208.337 179.354 208.824 179.354 209.375C179.354 209.926 179.239 210.413 179.008 210.834C178.78 211.256 178.442 211.585 177.992 211.822C177.543 212.059 176.986 212.178 176.321 212.178H173.722V211.388H176.298C176.79 211.388 177.2 211.307 177.526 211.143C177.855 210.98 178.1 210.748 178.26 210.446C178.423 210.145 178.505 209.788 178.505 209.375C178.505 208.963 178.423 208.603 178.26 208.295C178.097 207.984 177.851 207.744 177.521 207.575C177.195 207.406 176.783 207.321 176.284 207.321H174.119V216H173.256ZM177.424 211.734L179.751 216H178.754L176.45 211.734H177.424ZM185.792 213.29V208.909H186.613V216H185.792V214.823H185.727C185.561 215.186 185.298 215.489 184.938 215.732C184.578 215.972 184.137 216.092 183.617 216.092C183.165 216.092 182.763 215.994 182.412 215.797C182.062 215.597 181.786 215.304 181.586 214.92C181.386 214.535 181.286 214.063 181.286 213.502V208.909H182.108V213.452C182.108 214.006 182.271 214.452 182.597 214.79C182.923 215.126 183.342 215.294 183.853 215.294C184.173 215.294 184.481 215.217 184.776 215.063C185.072 214.909 185.315 214.684 185.506 214.389C185.696 214.09 185.792 213.724 185.792 213.29ZM189.611 211.568V216H188.789V208.909H189.588V210.022H189.661C189.828 209.658 190.086 209.368 190.437 209.149C190.791 208.928 191.228 208.817 191.748 208.817C192.225 208.817 192.644 208.917 193.004 209.117C193.367 209.314 193.649 209.605 193.849 209.989C194.052 210.374 194.153 210.846 194.153 211.407V216H193.332V211.457C193.332 210.876 193.168 210.416 192.842 210.077C192.519 209.739 192.085 209.569 191.54 209.569C191.168 209.569 190.837 209.649 190.548 209.809C190.259 209.969 190.029 210.2 189.86 210.502C189.694 210.8 189.611 211.156 189.611 211.568ZM197.139 211.568V216H196.317V208.909H197.116V210.022H197.19C197.356 209.658 197.615 209.368 197.965 209.149C198.319 208.928 198.756 208.817 199.276 208.817C199.753 208.817 200.172 208.917 200.532 209.117C200.895 209.314 201.177 209.605 201.377 209.989C201.58 210.374 201.682 210.846 201.682 211.407V216H200.86V211.457C200.86 210.876 200.697 210.416 200.371 210.077C200.047 209.739 199.613 209.569 199.069 209.569C198.696 209.569 198.365 209.649 198.076 209.809C197.787 209.969 197.558 210.2 197.388 210.502C197.222 210.8 197.139 211.156 197.139 211.568ZM203.855 216V208.909H204.681V216H203.855ZM204.275 207.69C204.106 207.69 203.961 207.633 203.841 207.52C203.721 207.403 203.661 207.263 203.661 207.099C203.661 206.936 203.721 206.798 203.841 206.684C203.961 206.567 204.106 206.509 204.275 206.509C204.444 206.509 204.589 206.567 204.709 206.684C204.829 206.798 204.889 206.936 204.889 207.099C204.889 207.263 204.829 207.403 204.709 207.52C204.589 207.633 204.444 207.69 204.275 207.69ZM207.676 211.568V216H206.854V208.909H207.653V210.022H207.727C207.893 209.658 208.152 209.368 208.502 209.149C208.856 208.928 209.293 208.817 209.814 208.817C210.291 208.817 210.709 208.917 211.069 209.117C211.432 209.314 211.714 209.605 211.914 209.989C212.117 210.374 212.219 210.846 212.219 211.407V216H211.397V211.457C211.397 210.876 211.234 210.416 210.908 210.077C210.585 209.739 210.151 209.569 209.606 209.569C209.233 209.569 208.903 209.649 208.613 209.809C208.324 209.969 208.095 210.2 207.925 210.502C207.759 210.8 207.676 211.156 207.676 211.568ZM217.088 218.807C216.605 218.807 216.182 218.744 215.818 218.618C215.455 218.494 215.149 218.325 214.9 218.11C214.65 217.894 214.457 217.653 214.318 217.385L214.992 216.942C215.094 217.12 215.229 217.296 215.398 217.468C215.571 217.64 215.794 217.783 216.068 217.897C216.345 218.011 216.685 218.068 217.088 218.068C217.716 218.068 218.222 217.911 218.607 217.597C218.995 217.283 219.188 216.796 219.188 216.134V214.537H219.115C219.019 214.752 218.882 214.967 218.704 215.183C218.525 215.395 218.291 215.572 218.002 215.714C217.716 215.855 217.36 215.926 216.936 215.926C216.369 215.926 215.866 215.786 215.426 215.506C214.989 215.226 214.644 214.826 214.392 214.306C214.143 213.783 214.018 213.159 214.018 212.436C214.018 211.719 214.14 211.088 214.383 210.543C214.629 209.999 214.972 209.574 215.412 209.269C215.852 208.964 216.365 208.812 216.949 208.812C217.383 208.812 217.744 208.889 218.03 209.043C218.316 209.194 218.545 209.382 218.718 209.606C218.893 209.831 219.03 210.049 219.128 210.262H219.212V208.909H220.015V216.185C220.015 216.785 219.887 217.279 219.632 217.667C219.376 218.054 219.028 218.341 218.588 218.525C218.148 218.713 217.648 218.807 217.088 218.807ZM217.033 215.174C217.488 215.174 217.877 215.064 218.201 214.846C218.524 214.624 218.771 214.307 218.944 213.895C219.116 213.482 219.202 212.992 219.202 212.422C219.202 211.868 219.118 211.377 218.948 210.95C218.779 210.519 218.533 210.18 218.21 209.934C217.89 209.685 217.497 209.56 217.033 209.56C216.559 209.56 216.159 209.688 215.832 209.943C215.506 210.199 215.26 210.543 215.094 210.977C214.927 211.408 214.844 211.89 214.844 212.422C214.844 212.964 214.929 213.442 215.098 213.858C215.268 214.27 215.515 214.594 215.842 214.827C216.168 215.058 216.565 215.174 217.033 215.174Z" fill="black"/>
<rect width="24" height="24" transform="translate(330 199)" fill="white"/>
<path fill-rule="evenodd" clip-rule="evenodd" d="M334.5 204.653C334.5 203.226 336.029 202.323 337.279 203.01L348.819 209.357C350.114 210.069 350.114 211.93 348.819 212.643L337.28 218.99C336.03 219.677 334.501 218.773 334.501 217.347L334.5 204.653Z" fill="#A1A1A1"/>
<path d="M436.74 208L436.394 217M431.606 217L431.26 208M441.228 204.79C441.57 204.842 441.91 204.897 442.25 204.956M441.228 204.79L440.16 218.673C440.116 219.238 439.861 219.766 439.445 220.151C439.029 220.536 438.483 220.75 437.916 220.75H430.084C429.517 220.75 428.971 220.536 428.555 220.151C428.139 219.766 427.884 219.238 427.84 218.673L426.772 204.79M441.228 204.79C440.074 204.616 438.914 204.483 437.75 204.393M426.772 204.79C426.43 204.841 426.09 204.896 425.75 204.955M426.772 204.79C427.926 204.616 429.086 204.483 430.25 204.393M437.75 204.393V203.477C437.75 202.297 436.84 201.313 435.66 201.276C434.554 201.241 433.446 201.241 432.34 201.276C431.16 201.313 430.25 202.298 430.25 203.477V204.393M437.75 204.393C435.254 204.2 432.746 204.2 430.25 204.393" stroke="black" stroke-width="1.5" stroke-linecap="round" stroke-linejoin="round"/>
<defs>
<filter id="filter0_d_7_60" x="18.3" y="22.3" width="476.4" height="476.4" filterUnits="userSpaceOnUse" color-interpolation-filters="sRGB">
<feFlood flood-opacity="0" result="BackgroundImageFix"/>
<feColorMatrix in="SourceAlpha" type="matrix" values="0 0 0 0 0 0 0 0 0 0 0 0 0 0 0 0 0 0 127 0" result="hardAlpha"/>
<feMorphology radius="7" operator="dilate" in="SourceAlpha" result="effect1_dropShadow_7_60"/>
<feOffset dy="4"/>
<feGaussianBlur stdDeviation="10.85"/>
<feComposite in2="hardAlpha" operator="out"/>
<feColorMatrix type="matrix" values="0 0 0 0 0 0 0 0 0 0 0 0 0 0 0 0 0 0 0.25 0"/>
<feBlend mode="normal" in2="BackgroundImageFix" result="effect1_dropShadow_7_60"/>
<feBlend mode="normal" in="SourceGraphic" in2="effect1_dropShadow_7_60" result="shape"/>
</filter>
<linearGradient id="paint0_linear_7_60" x1="22.5166" y1="17.1333" x2="473.744" y2="240.553" gradientUnits="userSpaceOnUse">
<stop stop-color="#8C14C4"/>
<stop offset="1" stop-color="#4C076C"/>
</linearGradient>
</defs>
</svg>
