<svg width="759" height="463" viewBox="0 0 759 463" fill="none" xmlns="http://www.w3.org/2000/svg">
<g clip-path="url(#clip0_7_60)">
<rect width="759" height="463" fill="url(#paint0_linear_7_60)"/>
<g filter="url(#filter0_d_7_60)">
<rect x="63" y="73" width="633" height="317" rx="10" fill="white"/>
</g>
<path d="M77.4858 90.1818H79.402L83.2344 96.6321H83.3963L87.2287 90.1818H89.1449L84.152 98.3054V104H82.4787V98.3054L77.4858 90.1818ZM93.8375 104.216C92.9019 104.216 92.081 103.993 91.3748 103.548C90.6731 103.103 90.1243 102.48 89.7285 101.679C89.3372 100.878 89.1415 99.9427 89.1415 98.8722C89.1415 97.7926 89.3372 96.8503 89.7285 96.0451C90.1243 95.2399 90.6731 94.6147 91.3748 94.1694C92.081 93.7241 92.9019 93.5014 93.8375 93.5014C94.7731 93.5014 95.5918 93.7241 96.2935 94.1694C96.9997 94.6147 97.5485 95.2399 97.9398 96.0451C98.3356 96.8503 98.5336 97.7926 98.5336 98.8722C98.5336 99.9427 98.3356 100.878 97.9398 101.679C97.5485 102.48 96.9997 103.103 96.2935 103.548C95.5918 103.993 94.7731 104.216 93.8375 104.216ZM93.8375 102.786C94.5482 102.786 95.133 102.603 95.5918 102.239C96.0506 101.875 96.3902 101.396 96.6106 100.802C96.831 100.208 96.9412 99.5649 96.9412 98.8722C96.9412 98.1795 96.831 97.534 96.6106 96.9357C96.3902 96.3375 96.0506 95.8539 95.5918 95.4851C95.133 95.1162 94.5482 94.9318 93.8375 94.9318C93.1268 94.9318 92.5421 95.1162 92.0833 95.4851C91.6245 95.8539 91.2849 96.3375 91.0645 96.9357C90.844 97.534 90.7338 98.1795 90.7338 98.8722C90.7338 99.5649 90.844 100.208 91.0645 100.802C91.2849 101.396 91.6245 101.875 92.0833 102.239C92.5421 102.603 93.1268 102.786 93.8375 102.786ZM107.495 99.7628V93.6364H109.088V104H107.495V102.246H107.388C107.145 102.772 106.767 103.22 106.254 103.588C105.741 103.953 105.093 104.135 104.311 104.135C103.663 104.135 103.087 103.993 102.584 103.71C102.08 103.422 101.684 102.99 101.396 102.414C101.108 101.834 100.964 101.103 100.964 100.222V93.6364H102.557V100.114C102.557 100.869 102.768 101.472 103.191 101.922C103.618 102.372 104.162 102.597 104.824 102.597C105.219 102.597 105.622 102.495 106.031 102.293C106.445 102.091 106.792 101.78 107.07 101.362C107.354 100.944 107.495 100.411 107.495 99.7628ZM112.004 104V93.6364H113.543V95.2017H113.651C113.839 94.6889 114.181 94.2728 114.676 93.9535C115.171 93.6341 115.729 93.4744 116.349 93.4744C116.466 93.4744 116.613 93.4767 116.788 93.4812C116.963 93.4857 117.096 93.4924 117.186 93.5014V95.1207C117.132 95.1072 117.008 95.087 116.815 95.06C116.626 95.0285 116.426 95.0128 116.214 95.0128C115.711 95.0128 115.261 95.1185 114.865 95.3299C114.474 95.5368 114.163 95.8247 113.934 96.1935C113.709 96.5579 113.597 96.974 113.597 97.4418V104H112.004ZM128.763 104.216C127.764 104.216 126.903 103.996 126.178 103.555C125.459 103.109 124.903 102.489 124.512 101.692C124.125 100.892 123.932 99.9607 123.932 98.8991C123.932 97.8376 124.125 96.902 124.512 96.0923C124.903 95.2782 125.447 94.6439 126.145 94.1896C126.846 93.7308 127.665 93.5014 128.601 93.5014C129.14 93.5014 129.673 93.5914 130.2 93.7713C130.726 93.9512 131.205 94.2436 131.637 94.6484C132.069 95.0488 132.413 95.5795 132.669 96.2408C132.926 96.902 133.054 97.7161 133.054 98.6832V99.358H125.065V97.9815H131.434C131.434 97.3968 131.317 96.875 131.084 96.4162C130.854 95.9574 130.526 95.5953 130.098 95.3299C129.676 95.0645 129.176 94.9318 128.601 94.9318C127.966 94.9318 127.418 95.0893 126.954 95.4041C126.495 95.7145 126.142 96.1193 125.895 96.6186C125.648 97.1179 125.524 97.6532 125.524 98.2244V99.142C125.524 99.9247 125.659 100.588 125.929 101.132C126.203 101.672 126.583 102.084 127.069 102.367C127.555 102.646 128.119 102.786 128.763 102.786C129.181 102.786 129.559 102.727 129.896 102.61C130.238 102.489 130.533 102.309 130.78 102.07C131.027 101.827 131.218 101.526 131.353 101.166L132.892 101.598C132.73 102.12 132.458 102.579 132.075 102.974C131.693 103.366 131.221 103.672 130.658 103.892C130.096 104.108 129.464 104.216 128.763 104.216ZM137.068 97.7656V104H135.476V93.6364H137.014V95.2557H137.149C137.392 94.7294 137.761 94.3066 138.256 93.9872C138.751 93.6634 139.389 93.5014 140.172 93.5014C140.874 93.5014 141.488 93.6454 142.014 93.9332C142.54 94.2166 142.95 94.6484 143.242 95.2287C143.534 95.8045 143.68 96.5331 143.68 97.4148V104H142.088V97.5227C142.088 96.7086 141.877 96.0743 141.454 95.62C141.031 95.1612 140.451 94.9318 139.713 94.9318C139.205 94.9318 138.751 95.042 138.35 95.2624C137.954 95.4828 137.642 95.8045 137.412 96.2273C137.183 96.6501 137.068 97.1629 137.068 97.7656ZM154.694 93.6364L150.861 104H149.242L145.409 93.6364H147.137L149.998 101.895H150.105L152.966 93.6364H154.694ZM156.795 104V93.6364H158.388V104H156.795ZM157.605 91.9091C157.295 91.9091 157.027 91.8034 156.802 91.592C156.582 91.3806 156.471 91.1264 156.471 90.8295C156.471 90.5327 156.582 90.2785 156.802 90.0671C157.027 89.8557 157.295 89.75 157.605 89.75C157.915 89.75 158.181 89.8557 158.401 90.0671C158.626 90.2785 158.738 90.5327 158.738 90.8295C158.738 91.1264 158.626 91.3806 158.401 91.592C158.181 91.8034 157.915 91.9091 157.605 91.9091ZM161.304 104V93.6364H162.842V95.2017H162.95C163.139 94.6889 163.481 94.2728 163.976 93.9535C164.471 93.6341 165.028 93.4744 165.649 93.4744C165.766 93.4744 165.912 93.4767 166.088 93.4812C166.263 93.4857 166.396 93.4924 166.486 93.5014V95.1207C166.432 95.1072 166.308 95.087 166.115 95.06C165.926 95.0285 165.726 95.0128 165.514 95.0128C165.011 95.0128 164.561 95.1185 164.165 95.3299C163.774 95.5368 163.463 95.8247 163.234 96.1935C163.009 96.5579 162.896 96.974 162.896 97.4418V104H161.304ZM172.268 104.216C171.333 104.216 170.512 103.993 169.805 103.548C169.104 103.103 168.555 102.48 168.159 101.679C167.768 100.878 167.572 99.9427 167.572 98.8722C167.572 97.7926 167.768 96.8503 168.159 96.0451C168.555 95.2399 169.104 94.6147 169.805 94.1694C170.512 93.7241 171.333 93.5014 172.268 93.5014C173.204 93.5014 174.022 93.7241 174.724 94.1694C175.43 94.6147 175.979 95.2399 176.37 96.0451C176.766 96.8503 176.964 97.7926 176.964 98.8722C176.964 99.9427 176.766 100.878 176.37 101.679C175.979 102.48 175.43 103.103 174.724 103.548C174.022 103.993 173.204 104.216 172.268 104.216ZM172.268 102.786C172.979 102.786 173.564 102.603 174.022 102.239C174.481 101.875 174.821 101.396 175.041 100.802C175.262 100.208 175.372 99.5649 175.372 98.8722C175.372 98.1795 175.262 97.534 175.041 96.9357C174.821 96.3375 174.481 95.8539 174.022 95.4851C173.564 95.1162 172.979 94.9318 172.268 94.9318C171.557 94.9318 170.973 95.1162 170.514 95.4851C170.055 95.8539 169.716 96.3375 169.495 96.9357C169.275 97.534 169.165 98.1795 169.165 98.8722C169.165 99.5649 169.275 100.208 169.495 100.802C169.716 101.396 170.055 101.875 170.514 102.239C170.973 102.603 171.557 102.786 172.268 102.786ZM180.987 97.7656V104H179.395V93.6364H180.933V95.2557H181.068C181.311 94.7294 181.68 94.3066 182.175 93.9872C182.67 93.6634 183.308 93.5014 184.091 93.5014C184.793 93.5014 185.407 93.6454 185.933 93.9332C186.459 94.2166 186.868 94.6484 187.161 95.2287C187.453 95.8045 187.599 96.5331 187.599 97.4148V104H186.007V97.5227C186.007 96.7086 185.796 96.0743 185.373 95.62C184.95 95.1612 184.37 94.9318 183.632 94.9318C183.124 94.9318 182.67 95.042 182.269 95.2624C181.873 95.4828 181.561 95.8045 181.331 96.2273C181.102 96.6501 180.987 97.1629 180.987 97.7656ZM190.509 104V93.6364H192.047V95.2557H192.182C192.398 94.7024 192.747 94.2728 193.228 93.967C193.71 93.6566 194.288 93.5014 194.962 93.5014C195.646 93.5014 196.215 93.6566 196.669 93.967C197.128 94.2728 197.486 94.7024 197.742 95.2557H197.85C198.115 94.7204 198.514 94.2953 199.044 93.9805C199.575 93.6611 200.212 93.5014 200.954 93.5014C201.88 93.5014 202.638 93.7915 203.228 94.3718C203.817 94.9476 204.111 95.8449 204.111 97.0639V104H202.519V97.0639C202.519 96.2992 202.31 95.7527 201.892 95.4244C201.473 95.096 200.981 94.9318 200.414 94.9318C199.685 94.9318 199.121 95.1522 198.72 95.593C198.32 96.0294 198.12 96.5826 198.12 97.2528V104H196.501V96.902C196.501 96.3127 196.309 95.8382 195.927 95.4783C195.545 95.114 195.052 94.9318 194.449 94.9318C194.036 94.9318 193.649 95.042 193.289 95.2624C192.934 95.4828 192.646 95.7887 192.425 96.18C192.209 96.5669 192.101 97.0144 192.101 97.5227V104H190.509ZM211.368 104.216C210.369 104.216 209.508 103.996 208.784 103.555C208.064 103.109 207.509 102.489 207.117 101.692C206.73 100.892 206.537 99.9607 206.537 98.8991C206.537 97.8376 206.73 96.902 207.117 96.0923C207.509 95.2782 208.053 94.6439 208.75 94.1896C209.452 93.7308 210.27 93.5014 211.206 93.5014C211.746 93.5014 212.279 93.5914 212.805 93.7713C213.331 93.9512 213.81 94.2436 214.242 94.6484C214.674 95.0488 215.018 95.5795 215.275 96.2408C215.531 96.902 215.659 97.7161 215.659 98.6832V99.358H207.671V97.9815H214.04C214.04 97.3968 213.923 96.875 213.689 96.4162C213.46 95.9574 213.131 95.5953 212.704 95.3299C212.281 95.0645 211.782 94.9318 211.206 94.9318C210.572 94.9318 210.023 95.0893 209.56 95.4041C209.101 95.7145 208.748 96.1193 208.5 96.6186C208.253 97.1179 208.129 97.6532 208.129 98.2244V99.142C208.129 99.9247 208.264 100.588 208.534 101.132C208.809 101.672 209.189 102.084 209.674 102.367C210.16 102.646 210.725 102.786 211.368 102.786C211.786 102.786 212.164 102.727 212.502 102.61C212.843 102.489 213.138 102.309 213.385 102.07C213.633 101.827 213.824 101.526 213.959 101.166L215.497 101.598C215.335 102.12 215.063 102.579 214.681 102.974C214.299 103.366 213.826 103.672 213.264 103.892C212.702 104.108 212.07 104.216 211.368 104.216ZM219.674 97.7656V104H218.081V93.6364H219.62V95.2557H219.755C219.998 94.7294 220.366 94.3066 220.861 93.9872C221.356 93.6634 221.995 93.5014 222.777 93.5014C223.479 93.5014 224.093 93.6454 224.619 93.9332C225.146 94.2166 225.555 94.6484 225.847 95.2287C226.14 95.8045 226.286 96.5331 226.286 97.4148V104H224.694V97.5227C224.694 96.7086 224.482 96.0743 224.059 95.62C223.637 95.1612 223.056 94.9318 222.319 94.9318C221.81 94.9318 221.356 95.042 220.956 95.2624C220.56 95.4828 220.247 95.8045 220.018 96.2273C219.788 96.6501 219.674 97.1629 219.674 97.7656ZM233.703 93.6364V94.9858H228.332V93.6364H233.703ZM229.897 91.1534H231.49V101.031C231.49 101.481 231.555 101.818 231.685 102.043C231.82 102.264 231.991 102.412 232.198 102.489C232.41 102.561 232.632 102.597 232.866 102.597C233.042 102.597 233.185 102.588 233.298 102.57C233.41 102.547 233.5 102.529 233.568 102.516L233.892 103.946C233.784 103.987 233.633 104.027 233.44 104.067C233.246 104.112 233.001 104.135 232.704 104.135C232.254 104.135 231.814 104.038 231.382 103.845C230.954 103.651 230.599 103.357 230.316 102.961C230.037 102.565 229.897 102.066 229.897 101.463V91.1534ZM243.253 95.9574L241.823 96.3622C241.733 96.1238 241.6 95.8922 241.425 95.6673C241.254 95.4379 241.02 95.2489 240.723 95.1005C240.426 94.9521 240.046 94.8778 239.583 94.8778C238.949 94.8778 238.42 95.024 237.997 95.3164C237.579 95.6043 237.37 95.9709 237.37 96.4162C237.37 96.812 237.514 97.1246 237.802 97.354C238.09 97.5835 238.539 97.7746 239.151 97.9276L240.689 98.3054C241.616 98.5303 242.307 98.8744 242.761 99.3377C243.215 99.7965 243.442 100.388 243.442 101.112C243.442 101.706 243.271 102.237 242.93 102.705C242.592 103.172 242.12 103.541 241.513 103.811C240.905 104.081 240.199 104.216 239.394 104.216C238.337 104.216 237.462 103.987 236.769 103.528C236.077 103.069 235.638 102.399 235.454 101.517L236.965 101.139C237.109 101.697 237.381 102.115 237.781 102.394C238.186 102.673 238.715 102.812 239.367 102.812C240.109 102.812 240.698 102.655 241.135 102.34C241.576 102.021 241.796 101.638 241.796 101.193C241.796 100.833 241.67 100.532 241.418 100.289C241.166 100.042 240.779 99.8572 240.258 99.7358L238.53 99.331C237.581 99.1061 236.884 98.7575 236.439 98.2852C235.998 97.8084 235.778 97.2124 235.778 96.4972C235.778 95.9124 235.942 95.3951 236.27 94.9453C236.603 94.4955 237.055 94.1424 237.626 93.886C238.202 93.6296 238.854 93.5014 239.583 93.5014C240.608 93.5014 241.414 93.7263 241.998 94.1761C242.588 94.6259 243.006 95.2197 243.253 95.9574ZM255.825 104.189C254.934 104.189 254.14 104.036 253.443 103.73C252.751 103.424 252.2 102.999 251.79 102.455C251.385 101.906 251.165 101.27 251.129 100.545H252.829C252.865 100.991 253.018 101.375 253.288 101.699C253.558 102.019 253.911 102.266 254.347 102.441C254.784 102.617 255.267 102.705 255.798 102.705C256.392 102.705 256.918 102.601 257.377 102.394C257.836 102.187 258.196 101.899 258.456 101.531C258.717 101.162 258.848 100.734 258.848 100.249C258.848 99.7403 258.722 99.2927 258.47 98.9059C258.218 98.5146 257.849 98.2087 257.363 97.9883C256.878 97.7679 256.284 97.6577 255.582 97.6577H254.476V96.1733H255.582C256.131 96.1733 256.612 96.0743 257.026 95.8764C257.444 95.6785 257.77 95.3996 258.004 95.0398C258.243 94.6799 258.362 94.2571 258.362 93.7713C258.362 93.3035 258.258 92.8964 258.052 92.5501C257.845 92.2037 257.552 91.9338 257.174 91.7404C256.801 91.547 256.36 91.4503 255.852 91.4503C255.375 91.4503 254.925 91.538 254.503 91.7134C254.084 91.8844 253.742 92.134 253.477 92.4624C253.212 92.7862 253.068 93.1776 253.045 93.6364H251.426C251.453 92.9122 251.671 92.2779 252.08 91.7337C252.49 91.1849 253.025 90.7576 253.686 90.4517C254.352 90.1458 255.083 89.9929 255.879 89.9929C256.734 89.9929 257.467 90.1661 258.079 90.5124C258.69 90.8543 259.16 91.3063 259.489 91.8686C259.817 92.4309 259.981 93.0381 259.981 93.6903C259.981 94.4685 259.777 95.132 259.367 95.6808C258.962 96.2295 258.411 96.6096 257.714 96.821V96.929C258.587 97.0729 259.268 97.444 259.759 98.0423C260.249 98.636 260.494 99.3714 260.494 100.249C260.494 101 260.289 101.674 259.88 102.273C259.475 102.866 258.922 103.334 258.22 103.676C257.519 104.018 256.72 104.189 255.825 104.189ZM268.166 89.5341L263.712 106.078H262.255L266.708 89.5341H268.166ZM274.614 104.189C274.047 104.18 273.481 104.072 272.914 103.865C272.347 103.658 271.83 103.31 271.362 102.819C270.894 102.324 270.519 101.656 270.235 100.815C269.952 99.9697 269.81 98.9081 269.81 97.6307C269.81 96.4072 269.925 95.3232 270.154 94.3786C270.384 93.4295 270.717 92.631 271.153 91.9833C271.589 91.3311 272.115 90.8363 272.732 90.4989C273.352 90.1616 274.052 89.9929 274.83 89.9929C275.604 89.9929 276.292 90.1481 276.895 90.4585C277.502 90.7643 277.997 91.1916 278.379 91.7404C278.761 92.2892 279.009 92.9212 279.121 93.6364H277.475C277.322 93.0156 277.025 92.5006 276.584 92.0913C276.144 91.6819 275.559 91.4773 274.83 91.4773C273.76 91.4773 272.916 91.9428 272.3 92.8739C271.688 93.805 271.38 95.1117 271.376 96.794H271.483C271.735 96.4117 272.035 96.0856 272.381 95.8157C272.732 95.5413 273.119 95.3299 273.541 95.1815C273.964 95.033 274.412 94.9588 274.884 94.9588C275.676 94.9588 276.4 95.1567 277.057 95.5526C277.713 95.9439 278.24 96.4859 278.635 97.1786C279.031 97.8668 279.229 98.6562 279.229 99.5469C279.229 100.402 279.038 101.184 278.656 101.895C278.273 102.601 277.736 103.163 277.043 103.582C276.355 103.996 275.545 104.198 274.614 104.189ZM274.614 102.705C275.181 102.705 275.689 102.563 276.139 102.279C276.593 101.996 276.951 101.616 277.212 101.139C277.477 100.662 277.61 100.132 277.61 99.5469C277.61 98.9756 277.482 98.4561 277.225 97.9883C276.973 97.516 276.625 97.1404 276.18 96.8615C275.739 96.5826 275.235 96.4432 274.668 96.4432C274.241 96.4432 273.843 96.5286 273.474 96.6996C273.105 96.866 272.781 97.0954 272.502 97.3878C272.228 97.6802 272.012 98.0153 271.855 98.3931C271.697 98.7665 271.618 99.16 271.618 99.5739C271.618 100.123 271.747 100.635 272.003 101.112C272.264 101.589 272.619 101.974 273.069 102.266C273.523 102.558 274.038 102.705 274.614 102.705Z" fill="#6B6B6B"/>
<path d="M79.0284 150V134.727H87.8878V135.98H80.4229V141.73H87.418V142.983H80.4229V148.747H88.0369V150H79.0284ZM92.5487 142.841V150H91.2212V138.545H92.5114V140.343H92.6307C92.8991 139.756 93.3168 139.286 93.8835 138.933C94.4553 138.575 95.1612 138.396 96.0014 138.396C96.772 138.396 97.4482 138.558 98.0298 138.881C98.6165 139.199 99.0714 139.669 99.3945 140.29C99.7227 140.912 99.8867 141.675 99.8867 142.58V150H98.5593V142.662C98.5593 141.722 98.2958 140.979 97.7688 140.432C97.2468 139.885 96.5458 139.612 95.6658 139.612C95.0643 139.612 94.5298 139.741 94.0625 140C93.5952 140.258 93.2248 140.631 92.9513 141.118C92.6829 141.6 92.5487 142.175 92.5487 142.841ZM111.839 138.545L107.655 150H106.239L102.055 138.545H103.494L106.895 148.248H106.999L110.4 138.545H111.839ZM114.451 150V138.545H115.786V150H114.451ZM115.13 136.577C114.856 136.577 114.623 136.485 114.429 136.301C114.235 136.112 114.138 135.886 114.138 135.622C114.138 135.359 114.235 135.135 114.429 134.951C114.623 134.762 114.856 134.668 115.13 134.668C115.403 134.668 115.637 134.762 115.831 134.951C116.025 135.135 116.121 135.359 116.121 135.622C116.121 135.886 116.025 136.112 115.831 136.301C115.637 136.485 115.403 136.577 115.13 136.577ZM119.296 150V138.545H120.587V140.305H120.684C120.912 139.729 121.31 139.264 121.877 138.911C122.448 138.553 123.095 138.374 123.816 138.374C123.925 138.374 124.047 138.376 124.181 138.381C124.315 138.386 124.427 138.391 124.517 138.396V139.746C124.457 139.736 124.353 139.721 124.203 139.701C124.054 139.681 123.893 139.672 123.719 139.672C123.122 139.672 122.59 139.798 122.123 140.052C121.66 140.3 121.295 140.646 121.027 141.088C120.758 141.531 120.624 142.036 120.624 142.602V150H119.296ZM130.885 150.239C129.896 150.239 129.021 149.988 128.26 149.485C127.505 148.983 126.913 148.29 126.485 147.405C126.058 146.515 125.844 145.488 125.844 144.325C125.844 143.152 126.058 142.12 126.485 141.23C126.913 140.335 127.505 139.639 128.26 139.142C129.021 138.64 129.896 138.389 130.885 138.389C131.875 138.389 132.747 138.64 133.503 139.142C134.258 139.644 134.85 140.34 135.278 141.23C135.71 142.12 135.926 143.152 135.926 144.325C135.926 145.488 135.713 146.515 135.285 147.405C134.858 148.29 134.263 148.983 133.503 149.485C132.747 149.988 131.875 150.239 130.885 150.239ZM130.885 149.023C131.681 149.023 132.354 148.809 132.906 148.382C133.458 147.954 133.876 147.385 134.159 146.674C134.447 145.963 134.592 145.18 134.592 144.325C134.592 143.47 134.447 142.684 134.159 141.968C133.876 141.252 133.458 140.678 132.906 140.246C132.354 139.813 131.681 139.597 130.885 139.597C130.095 139.597 129.421 139.813 128.864 140.246C128.312 140.678 127.892 141.252 127.604 141.968C127.321 142.684 127.179 143.47 127.179 144.325C127.179 145.18 127.321 145.963 127.604 146.674C127.892 147.385 128.312 147.954 128.864 148.382C129.416 148.809 130.09 149.023 130.885 149.023Z" fill="black"/>
<rect x="147.5" y="131.5" width="68" height="22" rx="7.5" fill="white" stroke="#C9C9C9"/>
<path d="M157.256 148V138.545H160.307C160.978 138.545 161.538 138.667 161.988 138.91C162.44 139.15 162.78 139.484 163.008 139.912C163.239 140.337 163.354 140.824 163.354 141.375C163.354 141.926 163.239 142.413 163.008 142.834C162.78 143.256 162.442 143.585 161.992 143.822C161.543 144.059 160.986 144.178 160.321 144.178H157.722V143.388H160.298C160.79 143.388 161.2 143.307 161.526 143.143C161.855 142.98 162.1 142.748 162.26 142.446C162.423 142.145 162.505 141.788 162.505 141.375C162.505 140.963 162.423 140.603 162.26 140.295C162.097 139.984 161.851 139.744 161.521 139.575C161.195 139.406 160.783 139.321 160.284 139.321H158.119V148H157.256ZM161.424 143.734L163.751 148H162.754L160.45 143.734H161.424ZM169.792 145.29V140.909H170.613V148H169.792V146.823H169.727C169.561 147.186 169.298 147.489 168.938 147.732C168.578 147.972 168.137 148.092 167.617 148.092C167.165 148.092 166.763 147.994 166.412 147.797C166.062 147.597 165.786 147.304 165.586 146.92C165.386 146.535 165.286 146.063 165.286 145.502V140.909H166.108V145.452C166.108 146.006 166.271 146.452 166.597 146.79C166.923 147.126 167.342 147.294 167.853 147.294C168.173 147.294 168.481 147.217 168.776 147.063C169.072 146.909 169.315 146.684 169.506 146.389C169.696 146.09 169.792 145.724 169.792 145.29ZM173.611 143.568V148H172.789V140.909H173.588V142.022H173.661C173.828 141.658 174.086 141.368 174.437 141.149C174.791 140.928 175.228 140.817 175.748 140.817C176.225 140.817 176.644 140.917 177.004 141.117C177.367 141.314 177.649 141.605 177.849 141.989C178.052 142.374 178.153 142.846 178.153 143.407V148H177.332V143.457C177.332 142.876 177.168 142.416 176.842 142.077C176.519 141.739 176.085 141.569 175.54 141.569C175.168 141.569 174.837 141.649 174.548 141.809C174.259 141.969 174.029 142.2 173.86 142.502C173.694 142.8 173.611 143.156 173.611 143.568ZM181.139 143.568V148H180.317V140.909H181.116V142.022H181.19C181.356 141.658 181.615 141.368 181.965 141.149C182.319 140.928 182.756 140.817 183.276 140.817C183.753 140.817 184.172 140.917 184.532 141.117C184.895 141.314 185.177 141.605 185.377 141.989C185.58 142.374 185.682 142.846 185.682 143.407V148H184.86V143.457C184.86 142.876 184.697 142.416 184.371 142.077C184.047 141.739 183.613 141.569 183.069 141.569C182.696 141.569 182.365 141.649 182.076 141.809C181.787 141.969 181.558 142.2 181.388 142.502C181.222 142.8 181.139 143.156 181.139 143.568ZM187.855 148V140.909H188.681V148H187.855ZM188.275 139.69C188.106 139.69 187.961 139.633 187.841 139.52C187.721 139.403 187.661 139.263 187.661 139.099C187.661 138.936 187.721 138.798 187.841 138.684C187.961 138.567 188.106 138.509 188.275 138.509C188.444 138.509 188.589 138.567 188.709 138.684C188.829 138.798 188.889 138.936 188.889 139.099C188.889 139.263 188.829 139.403 188.709 139.52C188.589 139.633 188.444 139.69 188.275 139.69ZM191.676 143.568V148H190.854V140.909H191.653V142.022H191.727C191.893 141.658 192.152 141.368 192.502 141.149C192.856 140.928 193.293 140.817 193.814 140.817C194.291 140.817 194.709 140.917 195.069 141.117C195.432 141.314 195.714 141.605 195.914 141.989C196.117 142.374 196.219 142.846 196.219 143.407V148H195.397V143.457C195.397 142.876 195.234 142.416 194.908 142.077C194.585 141.739 194.151 141.569 193.606 141.569C193.233 141.569 192.903 141.649 192.613 141.809C192.324 141.969 192.095 142.2 191.925 142.502C191.759 142.8 191.676 143.156 191.676 143.568ZM201.088 150.807C200.605 150.807 200.182 150.744 199.818 150.618C199.455 150.494 199.149 150.325 198.9 150.11C198.65 149.894 198.457 149.653 198.318 149.385L198.992 148.942C199.094 149.12 199.229 149.296 199.398 149.468C199.571 149.64 199.794 149.783 200.068 149.897C200.345 150.011 200.685 150.068 201.088 150.068C201.716 150.068 202.222 149.911 202.607 149.597C202.995 149.283 203.188 148.796 203.188 148.134V146.537H203.115C203.019 146.752 202.882 146.967 202.704 147.183C202.525 147.395 202.291 147.572 202.002 147.714C201.716 147.855 201.36 147.926 200.936 147.926C200.369 147.926 199.866 147.786 199.426 147.506C198.989 147.226 198.644 146.826 198.392 146.306C198.143 145.783 198.018 145.159 198.018 144.436C198.018 143.719 198.14 143.088 198.383 142.543C198.629 141.999 198.972 141.574 199.412 141.269C199.852 140.964 200.365 140.812 200.949 140.812C201.383 140.812 201.744 140.889 202.03 141.043C202.316 141.194 202.545 141.382 202.718 141.606C202.893 141.831 203.03 142.049 203.128 142.262H203.212V140.909H204.015V148.185C204.015 148.785 203.887 149.279 203.632 149.667C203.376 150.054 203.028 150.341 202.588 150.525C202.148 150.713 201.648 150.807 201.088 150.807ZM201.033 147.174C201.488 147.174 201.877 147.064 202.201 146.846C202.524 146.624 202.771 146.307 202.944 145.895C203.116 145.482 203.202 144.992 203.202 144.422C203.202 143.868 203.118 143.377 202.948 142.95C202.779 142.519 202.533 142.18 202.21 141.934C201.89 141.685 201.497 141.56 201.033 141.56C200.559 141.56 200.159 141.688 199.832 141.943C199.506 142.199 199.26 142.543 199.094 142.977C198.927 143.408 198.844 143.89 198.844 144.422C198.844 144.964 198.929 145.442 199.098 145.858C199.268 146.27 199.515 146.594 199.842 146.827C200.168 147.058 200.565 147.174 201.033 147.174Z" fill="black"/>
<path fill-rule="evenodd" clip-rule="evenodd" d="M560.5 136.653C560.5 135.226 562.029 134.323 563.279 135.01L574.819 141.357C576.114 142.069 576.114 143.93 574.819 144.643L563.28 150.99C562.03 151.677 560.501 150.773 560.501 149.347L560.5 136.653Z" fill="black"/>
<path fill-rule="evenodd" clip-rule="evenodd" d="M608.75 136.25C608.75 136.051 608.829 135.86 608.97 135.72C609.11 135.579 609.301 135.5 609.5 135.5H611C611.199 135.5 611.39 135.579 611.53 135.72C611.671 135.86 611.75 136.051 611.75 136.25V149.75C611.75 149.949 611.671 150.14 611.53 150.28C611.39 150.421 611.199 150.5 611 150.5H609.5C609.301 150.5 609.11 150.421 608.97 150.28C608.829 150.14 608.75 149.949 608.75 149.75V136.25ZM616.25 136.25C616.25 136.051 616.329 135.86 616.47 135.72C616.61 135.579 616.801 135.5 617 135.5H618.5C618.699 135.5 618.89 135.579 619.03 135.72C619.171 135.86 619.25 136.051 619.25 136.25V149.75C619.25 149.949 619.171 150.14 619.03 150.28C618.89 150.421 618.699 150.5 618.5 150.5H617C616.801 150.5 616.61 150.421 616.47 150.28C616.329 150.14 616.25 149.949 616.25 149.75V136.25Z" fill="black"/>
<path d="M662.74 140L662.394 149M657.606 149L657.26 140M667.228 136.79C667.57 136.842 667.91 136.897 668.25 136.956M667.228 136.79L666.16 150.673C666.116 151.238 665.861 151.766 665.445 152.151C665.029 152.536 664.483 152.75 663.916 152.75H656.084C655.517 152.75 654.971 152.536 654.555 152.151C654.139 151.766 653.884 151.238 653.84 150.673L652.772 136.79M667.228 136.79C666.074 136.616 664.914 136.483 663.75 136.393M652.772 136.79C652.43 136.841 652.09 136.896 651.75 136.955M652.772 136.79C653.926 136.616 655.086 136.483 656.25 136.393M663.75 136.393V135.477C663.75 134.297 662.84 133.313 661.66 133.276C660.554 133.241 659.446 133.241 658.34 133.276C657.16 133.313 656.25 134.298 656.25 135.477V136.393M663.75 136.393C661.254 136.2 658.746 136.2 656.25 136.393" stroke="black" stroke-width="1.5" stroke-linecap="round" stroke-linejoin="round"/>
<path d="M91.5494 173.364C91.5494 174.955 91.266 176.339 90.6992 177.517C90.1325 178.691 89.3519 179.6 88.3576 180.247C87.3683 180.888 86.2298 181.209 84.9421 181.209C83.6545 181.209 82.5135 180.888 81.5192 180.247C80.5298 179.6 79.7518 178.691 79.185 177.517C78.6232 176.339 78.3423 174.955 78.3423 173.364C78.3423 171.773 78.6232 170.391 79.185 169.217C79.7518 168.039 80.5323 167.129 81.5266 166.488C82.521 165.842 83.6594 165.518 84.9421 165.518C86.2298 165.518 87.3683 165.842 88.3576 166.488C89.3519 167.129 90.1325 168.039 90.6992 169.217C91.266 170.391 91.5494 171.773 91.5494 173.364ZM90.1921 173.364C90.1921 171.996 89.9634 170.826 89.506 169.851C89.0487 168.872 88.4247 168.124 87.6342 167.607C86.8438 167.089 85.9464 166.831 84.9421 166.831C83.9428 166.831 83.0479 167.089 82.2575 167.607C81.467 168.124 80.8406 168.869 80.3782 169.844C79.9208 170.818 79.6921 171.991 79.6921 173.364C79.6921 174.731 79.9208 175.902 80.3782 176.876C80.8356 177.85 81.4595 178.599 82.25 179.121C83.0405 179.638 83.9379 179.896 84.9421 179.896C85.9464 179.896 86.8438 179.638 87.6342 179.121C88.4297 178.604 89.0561 177.858 89.5135 176.884C89.9709 175.904 90.1971 174.731 90.1921 173.364ZM95.9735 173.841V181H94.646V169.545H95.9362V171.343H96.0555C96.324 170.756 96.7416 170.286 97.3083 169.933C97.8801 169.575 98.586 169.396 99.4262 169.396C100.197 169.396 100.873 169.558 101.455 169.881C102.041 170.199 102.496 170.669 102.819 171.29C103.147 171.912 103.312 172.675 103.312 173.58V181H101.984V173.662C101.984 172.722 101.721 171.979 101.194 171.432C100.672 170.885 99.9706 170.612 99.0906 170.612C98.4891 170.612 97.9546 170.741 97.4873 171C97.02 171.258 96.6496 171.631 96.3762 172.118C96.1077 172.6 95.9735 173.175 95.9735 173.841ZM106.822 181V169.545H108.157V181H106.822ZM107.501 167.577C107.227 167.577 106.994 167.485 106.8 167.301C106.606 167.112 106.509 166.886 106.509 166.622C106.509 166.359 106.606 166.135 106.8 165.951C106.994 165.762 107.227 165.668 107.501 165.668C107.774 165.668 108.008 165.762 108.202 165.951C108.396 166.135 108.493 166.359 108.493 166.622C108.493 166.886 108.396 167.112 108.202 167.301C108.008 167.485 107.774 167.577 107.501 167.577ZM112.488 169.545L115.441 174.43L118.394 169.545H119.938L116.254 175.273L119.938 181H118.394L115.441 176.272L112.488 181H110.952L114.591 175.273L110.952 169.545H112.488ZM125.652 181L121.468 165.727H122.885L126.346 178.86H126.465L129.925 165.727H131.536L134.996 178.86H135.115L138.576 165.727H140L135.816 181H134.325L130.783 168.047H130.686L127.143 181H125.652ZM143.915 165.727V181H142.521V165.727H143.915ZM147.976 181V165.727H149.37V173.953H149.504L156.962 165.727H158.796L152.271 172.789L158.767 181H157.066L151.406 173.759L149.37 176.041V181H147.976ZM162.823 165.727V181H161.429V165.727H162.823Z" fill="black"/>
<rect x="175.5" y="162.5" width="68" height="22" rx="7.5" fill="white" stroke="#C9C9C9"/>
<path d="M185.256 179V169.545H188.307C188.978 169.545 189.538 169.667 189.988 169.91C190.44 170.15 190.78 170.484 191.008 170.912C191.239 171.337 191.354 171.824 191.354 172.375C191.354 172.926 191.239 173.413 191.008 173.834C190.78 174.256 190.442 174.585 189.992 174.822C189.543 175.059 188.986 175.178 188.321 175.178H185.722V174.388H188.298C188.79 174.388 189.2 174.307 189.526 174.143C189.855 173.98 190.1 173.748 190.26 173.446C190.423 173.145 190.505 172.788 190.505 172.375C190.505 171.963 190.423 171.603 190.26 171.295C190.097 170.984 189.851 170.744 189.521 170.575C189.195 170.406 188.783 170.321 188.284 170.321H186.119V179H185.256ZM189.424 174.734L191.751 179H190.754L188.45 174.734H189.424ZM197.792 176.29V171.909H198.613V179H197.792V177.823H197.727C197.561 178.186 197.298 178.489 196.938 178.732C196.578 178.972 196.137 179.092 195.617 179.092C195.165 179.092 194.763 178.994 194.412 178.797C194.062 178.597 193.786 178.304 193.586 177.92C193.386 177.535 193.286 177.063 193.286 176.502V171.909H194.108V176.452C194.108 177.006 194.271 177.452 194.597 177.79C194.923 178.126 195.342 178.294 195.853 178.294C196.173 178.294 196.481 178.217 196.776 178.063C197.072 177.909 197.315 177.684 197.506 177.389C197.696 177.09 197.792 176.724 197.792 176.29ZM201.611 174.568V179H200.789V171.909H201.588V173.022H201.661C201.828 172.658 202.086 172.368 202.437 172.149C202.791 171.928 203.228 171.817 203.748 171.817C204.225 171.817 204.644 171.917 205.004 172.117C205.367 172.314 205.649 172.605 205.849 172.989C206.052 173.374 206.153 173.846 206.153 174.407V179H205.332V174.457C205.332 173.876 205.168 173.416 204.842 173.077C204.519 172.739 204.085 172.569 203.54 172.569C203.168 172.569 202.837 172.649 202.548 172.809C202.259 172.969 202.029 173.2 201.86 173.502C201.694 173.8 201.611 174.156 201.611 174.568ZM209.139 174.568V179H208.317V171.909H209.116V173.022H209.19C209.356 172.658 209.615 172.368 209.965 172.149C210.319 171.928 210.756 171.817 211.276 171.817C211.753 171.817 212.172 171.917 212.532 172.117C212.895 172.314 213.177 172.605 213.377 172.989C213.58 173.374 213.682 173.846 213.682 174.407V179H212.86V174.457C212.86 173.876 212.697 173.416 212.371 173.077C212.047 172.739 211.613 172.569 211.069 172.569C210.696 172.569 210.365 172.649 210.076 172.809C209.787 172.969 209.558 173.2 209.388 173.502C209.222 173.8 209.139 174.156 209.139 174.568ZM215.855 179V171.909H216.681V179H215.855ZM216.275 170.69C216.106 170.69 215.961 170.633 215.841 170.52C215.721 170.403 215.661 170.263 215.661 170.099C215.661 169.936 215.721 169.798 215.841 169.684C215.961 169.567 216.106 169.509 216.275 169.509C216.444 169.509 216.589 169.567 216.709 169.684C216.829 169.798 216.889 169.936 216.889 170.099C216.889 170.263 216.829 170.403 216.709 170.52C216.589 170.633 216.444 170.69 216.275 170.69ZM219.676 174.568V179H218.854V171.909H219.653V173.022H219.727C219.893 172.658 220.152 172.368 220.502 172.149C220.856 171.928 221.293 171.817 221.814 171.817C222.291 171.817 222.709 171.917 223.069 172.117C223.432 172.314 223.714 172.605 223.914 172.989C224.117 173.374 224.219 173.846 224.219 174.407V179H223.397V174.457C223.397 173.876 223.234 173.416 222.908 173.077C222.585 172.739 222.151 172.569 221.606 172.569C221.233 172.569 220.903 172.649 220.613 172.809C220.324 172.969 220.095 173.2 219.925 173.502C219.759 173.8 219.676 174.156 219.676 174.568ZM229.088 181.807C228.605 181.807 228.182 181.744 227.818 181.618C227.455 181.494 227.149 181.325 226.9 181.11C226.65 180.894 226.457 180.653 226.318 180.385L226.992 179.942C227.094 180.12 227.229 180.296 227.398 180.468C227.571 180.64 227.794 180.783 228.068 180.897C228.345 181.011 228.685 181.068 229.088 181.068C229.716 181.068 230.222 180.911 230.607 180.597C230.995 180.283 231.188 179.796 231.188 179.134V177.537H231.115C231.019 177.752 230.882 177.967 230.704 178.183C230.525 178.395 230.291 178.572 230.002 178.714C229.716 178.855 229.36 178.926 228.936 178.926C228.369 178.926 227.866 178.786 227.426 178.506C226.989 178.226 226.644 177.826 226.392 177.306C226.143 176.783 226.018 176.159 226.018 175.436C226.018 174.719 226.14 174.088 226.383 173.543C226.629 172.999 226.972 172.574 227.412 172.269C227.852 171.964 228.365 171.812 228.949 171.812C229.383 171.812 229.744 171.889 230.03 172.043C230.316 172.194 230.545 172.382 230.718 172.606C230.893 172.831 231.03 173.049 231.128 173.262H231.212V171.909H232.015V179.185C232.015 179.785 231.887 180.279 231.632 180.667C231.376 181.054 231.028 181.341 230.588 181.525C230.148 181.713 229.648 181.807 229.088 181.807ZM229.033 178.174C229.488 178.174 229.877 178.064 230.201 177.846C230.524 177.624 230.771 177.307 230.944 176.895C231.116 176.482 231.202 175.992 231.202 175.422C231.202 174.868 231.118 174.377 230.948 173.95C230.779 173.519 230.533 173.18 230.21 172.934C229.89 172.685 229.497 172.56 229.033 172.56C228.559 172.56 228.159 172.688 227.832 172.943C227.506 173.199 227.26 173.543 227.094 173.977C226.927 174.408 226.844 174.89 226.844 175.422C226.844 175.964 226.929 176.442 227.098 176.858C227.268 177.27 227.515 177.594 227.842 177.827C228.168 178.058 228.565 178.174 229.033 178.174Z" fill="black"/>
<path fill-rule="evenodd" clip-rule="evenodd" d="M560.5 167.653C560.5 166.226 562.029 165.323 563.279 166.01L574.819 172.357C576.114 173.069 576.114 174.93 574.819 175.643L563.28 181.99C562.03 182.677 560.501 181.773 560.501 180.347L560.5 167.653Z" fill="black"/>
<path fill-rule="evenodd" clip-rule="evenodd" d="M608.75 167.25C608.75 167.051 608.829 166.86 608.97 166.72C609.11 166.579 609.301 166.5 609.5 166.5H611C611.199 166.5 611.39 166.579 611.53 166.72C611.671 166.86 611.75 167.051 611.75 167.25V180.75C611.75 180.949 611.671 181.14 611.53 181.28C611.39 181.421 611.199 181.5 611 181.5H609.5C609.301 181.5 609.11 181.421 608.97 181.28C608.829 181.14 608.75 180.949 608.75 180.75V167.25ZM616.25 167.25C616.25 167.051 616.329 166.86 616.47 166.72C616.61 166.579 616.801 166.5 617 166.5H618.5C618.699 166.5 618.89 166.579 619.03 166.72C619.171 166.86 619.25 167.051 619.25 167.25V180.75C619.25 180.949 619.171 181.14 619.03 181.28C618.89 181.421 618.699 181.5 618.5 181.5H617C616.801 181.5 616.61 181.421 616.47 181.28C616.329 181.14 616.25 180.949 616.25 180.75V167.25Z" fill="black"/>
<path d="M662.74 171L662.394 180M657.606 180L657.26 171M667.228 167.79C667.57 167.842 667.91 167.897 668.25 167.956M667.228 167.79L666.16 181.673C666.116 182.238 665.861 182.766 665.445 183.151C665.029 183.536 664.483 183.75 663.916 183.75H656.084C655.517 183.75 654.971 183.536 654.555 183.151C654.139 182.766 653.884 182.238 653.84 181.673L652.772 167.79M667.228 167.79C666.074 167.616 664.914 167.483 663.75 167.393M652.772 167.79C652.43 167.841 652.09 167.896 651.75 167.955M652.772 167.79C653.926 167.616 655.086 167.483 656.25 167.393M663.75 167.393V166.477C663.75 165.297 662.84 164.313 661.66 164.276C660.554 164.241 659.446 164.241 658.34 164.276C657.16 164.313 656.25 165.298 656.25 166.477V167.393M663.75 167.393C661.254 167.2 658.746 167.2 656.25 167.393" stroke="black" stroke-width="1.5" stroke-linecap="round" stroke-linejoin="round"/>
<path d="M91.5494 204.364C91.5494 205.955 91.266 207.339 90.6992 208.517C90.1325 209.691 89.3519 210.6 88.3576 211.247C87.3683 211.888 86.2298 212.209 84.9421 212.209C83.6545 212.209 82.5135 211.888 81.5192 211.247C80.5298 210.6 79.7518 209.691 79.185 208.517C78.6232 207.339 78.3423 205.955 78.3423 204.364C78.3423 202.773 78.6232 201.391 79.185 200.217C79.7518 199.039 80.5323 198.129 81.5266 197.488C82.521 196.842 83.6594 196.518 84.9421 196.518C86.2298 196.518 87.3683 196.842 88.3576 197.488C89.3519 198.129 90.1325 199.039 90.6992 200.217C91.266 201.391 91.5494 202.773 91.5494 204.364ZM90.1921 204.364C90.1921 202.996 89.9634 201.826 89.506 200.851C89.0487 199.872 88.4247 199.124 87.6342 198.607C86.8438 198.089 85.9464 197.831 84.9421 197.831C83.9428 197.831 83.0479 198.089 82.2575 198.607C81.467 199.124 80.8406 199.869 80.3782 200.844C79.9208 201.818 79.6921 202.991 79.6921 204.364C79.6921 205.731 79.9208 206.902 80.3782 207.876C80.8356 208.85 81.4595 209.599 82.25 210.121C83.0405 210.638 83.9379 210.896 84.9421 210.896C85.9464 210.896 86.8438 210.638 87.6342 210.121C88.4297 209.604 89.0561 208.858 89.5135 207.884C89.9709 206.904 90.1971 205.731 90.1921 204.364ZM95.9735 204.841V212H94.646V200.545H95.9362V202.343H96.0555C96.324 201.756 96.7416 201.286 97.3083 200.933C97.8801 200.575 98.586 200.396 99.4262 200.396C100.197 200.396 100.873 200.558 101.455 200.881C102.041 201.199 102.496 201.669 102.819 202.29C103.147 202.912 103.312 203.675 103.312 204.58V212H101.984V204.662C101.984 203.722 101.721 202.979 101.194 202.432C100.672 201.885 99.9706 201.612 99.0906 201.612C98.4891 201.612 97.9546 201.741 97.4873 202C97.02 202.258 96.6496 202.631 96.3762 203.118C96.1077 203.6 95.9735 204.175 95.9735 204.841ZM106.822 212V200.545H108.157V212H106.822ZM107.501 198.577C107.227 198.577 106.994 198.485 106.8 198.301C106.606 198.112 106.509 197.886 106.509 197.622C106.509 197.359 106.606 197.135 106.8 196.951C106.994 196.762 107.227 196.668 107.501 196.668C107.774 196.668 108.008 196.762 108.202 196.951C108.396 197.135 108.493 197.359 108.493 197.622C108.493 197.886 108.396 198.112 108.202 198.301C108.008 198.485 107.774 198.577 107.501 198.577ZM112.488 200.545L115.441 205.43L118.394 200.545H119.938L116.254 206.273L119.938 212H118.394L115.441 207.272L112.488 212H110.952L114.591 206.273L110.952 200.545H112.488ZM124.392 196.727V212H122.997V196.727H124.392ZM132.927 212H128.452V196.727H133.195C134.652 196.727 135.897 197.031 136.931 197.637C137.97 198.244 138.766 199.114 139.318 200.247C139.869 201.381 140.145 202.74 140.145 204.326C140.145 205.927 139.862 207.302 139.295 208.45C138.733 209.594 137.913 210.471 136.834 211.083C135.76 211.694 134.458 212 132.927 212ZM129.847 210.747H132.845C134.157 210.747 135.256 210.489 136.141 209.972C137.026 209.455 137.689 208.716 138.132 207.757C138.574 206.797 138.796 205.654 138.796 204.326C138.791 203.009 138.572 201.875 138.139 200.926C137.712 199.976 137.075 199.248 136.23 198.741C135.39 198.234 134.351 197.98 133.113 197.98H129.847V210.747ZM143.525 212V196.727H152.385V197.98H144.92V203.73H151.915V204.983H144.92V210.747H152.534V212H143.525Z" fill="black"/>
<rect x="166.5" y="193.5" width="68" height="22" rx="7.5" fill="white" stroke="#C9C9C9"/>
<path d="M176.256 210V200.545H179.307C179.978 200.545 180.538 200.667 180.988 200.91C181.44 201.15 181.78 201.484 182.008 201.912C182.239 202.337 182.354 202.824 182.354 203.375C182.354 203.926 182.239 204.413 182.008 204.834C181.78 205.256 181.442 205.585 180.992 205.822C180.543 206.059 179.986 206.178 179.321 206.178H176.722V205.388H179.298C179.79 205.388 180.2 205.307 180.526 205.143C180.855 204.98 181.1 204.748 181.26 204.446C181.423 204.145 181.505 203.788 181.505 203.375C181.505 202.963 181.423 202.603 181.26 202.295C181.097 201.984 180.851 201.744 180.521 201.575C180.195 201.406 179.783 201.321 179.284 201.321H177.119V210H176.256ZM180.424 205.734L182.751 210H181.754L179.45 205.734H180.424ZM188.792 207.29V202.909H189.613V210H188.792V208.823H188.727C188.561 209.186 188.298 209.489 187.938 209.732C187.578 209.972 187.137 210.092 186.617 210.092C186.165 210.092 185.763 209.994 185.412 209.797C185.062 209.597 184.786 209.304 184.586 208.92C184.386 208.535 184.286 208.063 184.286 207.502V202.909H185.108V207.452C185.108 208.006 185.271 208.452 185.597 208.79C185.923 209.126 186.342 209.294 186.853 209.294C187.173 209.294 187.481 209.217 187.776 209.063C188.072 208.909 188.315 208.684 188.506 208.389C188.696 208.09 188.792 207.724 188.792 207.29ZM192.611 205.568V210H191.789V202.909H192.588V204.022H192.661C192.828 203.658 193.086 203.368 193.437 203.149C193.791 202.928 194.228 202.817 194.748 202.817C195.225 202.817 195.644 202.917 196.004 203.117C196.367 203.314 196.649 203.605 196.849 203.989C197.052 204.374 197.153 204.846 197.153 205.407V210H196.332V205.457C196.332 204.876 196.168 204.416 195.842 204.077C195.519 203.739 195.085 203.569 194.54 203.569C194.168 203.569 193.837 203.649 193.548 203.809C193.259 203.969 193.029 204.2 192.86 204.502C192.694 204.8 192.611 205.156 192.611 205.568ZM200.139 205.568V210H199.317V202.909H200.116V204.022H200.19C200.356 203.658 200.615 203.368 200.965 203.149C201.319 202.928 201.756 202.817 202.276 202.817C202.753 202.817 203.172 202.917 203.532 203.117C203.895 203.314 204.177 203.605 204.377 203.989C204.58 204.374 204.682 204.846 204.682 205.407V210H203.86V205.457C203.86 204.876 203.697 204.416 203.371 204.077C203.047 203.739 202.613 203.569 202.069 203.569C201.696 203.569 201.365 203.649 201.076 203.809C200.787 203.969 200.558 204.2 200.388 204.502C200.222 204.8 200.139 205.156 200.139 205.568ZM206.855 210V202.909H207.681V210H206.855ZM207.275 201.69C207.106 201.69 206.961 201.633 206.841 201.52C206.721 201.403 206.661 201.263 206.661 201.099C206.661 200.936 206.721 200.798 206.841 200.684C206.961 200.567 207.106 200.509 207.275 200.509C207.444 200.509 207.589 200.567 207.709 200.684C207.829 200.798 207.889 200.936 207.889 201.099C207.889 201.263 207.829 201.403 207.709 201.52C207.589 201.633 207.444 201.69 207.275 201.69ZM210.676 205.568V210H209.854V202.909H210.653V204.022H210.727C210.893 203.658 211.152 203.368 211.502 203.149C211.856 202.928 212.293 202.817 212.814 202.817C213.291 202.817 213.709 202.917 214.069 203.117C214.432 203.314 214.714 203.605 214.914 203.989C215.117 204.374 215.219 204.846 215.219 205.407V210H214.397V205.457C214.397 204.876 214.234 204.416 213.908 204.077C213.585 203.739 213.151 203.569 212.606 203.569C212.233 203.569 211.903 203.649 211.613 203.809C211.324 203.969 211.095 204.2 210.925 204.502C210.759 204.8 210.676 205.156 210.676 205.568ZM220.088 212.807C219.605 212.807 219.182 212.744 218.818 212.618C218.455 212.494 218.149 212.325 217.9 212.11C217.65 211.894 217.457 211.653 217.318 211.385L217.992 210.942C218.094 211.12 218.229 211.296 218.398 211.468C218.571 211.64 218.794 211.783 219.068 211.897C219.345 212.011 219.685 212.068 220.088 212.068C220.716 212.068 221.222 211.911 221.607 211.597C221.995 211.283 222.188 210.796 222.188 210.134V208.537H222.115C222.019 208.752 221.882 208.967 221.704 209.183C221.525 209.395 221.291 209.572 221.002 209.714C220.716 209.855 220.36 209.926 219.936 209.926C219.369 209.926 218.866 209.786 218.426 209.506C217.989 209.226 217.644 208.826 217.392 208.306C217.143 207.783 217.018 207.159 217.018 206.436C217.018 205.719 217.14 205.088 217.383 204.543C217.629 203.999 217.972 203.574 218.412 203.269C218.852 202.964 219.365 202.812 219.949 202.812C220.383 202.812 220.744 202.889 221.03 203.043C221.316 203.194 221.545 203.382 221.718 203.606C221.893 203.831 222.03 204.049 222.128 204.262H222.212V202.909H223.015V210.185C223.015 210.785 222.887 211.279 222.632 211.667C222.376 212.054 222.028 212.341 221.588 212.525C221.148 212.713 220.648 212.807 220.088 212.807ZM220.033 209.174C220.488 209.174 220.877 209.064 221.201 208.846C221.524 208.624 221.771 208.307 221.944 207.895C222.116 207.482 222.202 206.992 222.202 206.422C222.202 205.868 222.118 205.377 221.948 204.95C221.779 204.519 221.533 204.18 221.21 203.934C220.89 203.685 220.497 203.56 220.033 203.56C219.559 203.56 219.159 203.688 218.832 203.943C218.506 204.199 218.26 204.543 218.094 204.977C217.927 205.408 217.844 205.89 217.844 206.422C217.844 206.964 217.929 207.442 218.098 207.858C218.268 208.27 218.515 208.594 218.842 208.827C219.168 209.058 219.565 209.174 220.033 209.174Z" fill="black"/>
<path fill-rule="evenodd" clip-rule="evenodd" d="M560.5 198.653C560.5 197.226 562.029 196.323 563.279 197.01L574.819 203.357C576.114 204.069 576.114 205.93 574.819 206.643L563.28 212.99C562.03 213.677 560.501 212.773 560.501 211.347L560.5 198.653Z" fill="black"/>
<path fill-rule="evenodd" clip-rule="evenodd" d="M608.75 198.25C608.75 198.051 608.829 197.86 608.97 197.72C609.11 197.579 609.301 197.5 609.5 197.5H611C611.199 197.5 611.39 197.579 611.53 197.72C611.671 197.86 611.75 198.051 611.75 198.25V211.75C611.75 211.949 611.671 212.14 611.53 212.28C611.39 212.421 611.199 212.5 611 212.5H609.5C609.301 212.5 609.11 212.421 608.97 212.28C608.829 212.14 608.75 211.949 608.75 211.75V198.25ZM616.25 198.25C616.25 198.051 616.329 197.86 616.47 197.72C616.61 197.579 616.801 197.5 617 197.5H618.5C618.699 197.5 618.89 197.579 619.03 197.72C619.171 197.86 619.25 198.051 619.25 198.25V211.75C619.25 211.949 619.171 212.14 619.03 212.28C618.89 212.421 618.699 212.5 618.5 212.5H617C616.801 212.5 616.61 212.421 616.47 212.28C616.329 212.14 616.25 211.949 616.25 211.75V198.25Z" fill="black"/>
<path d="M662.74 202L662.394 211M657.606 211L657.26 202M667.228 198.79C667.57 198.842 667.91 198.897 668.25 198.956M667.228 198.79L666.16 212.673C666.116 213.238 665.861 213.766 665.445 214.151C665.029 214.536 664.483 214.75 663.916 214.75H656.084C655.517 214.75 654.971 214.536 654.555 214.151C654.139 213.766 653.884 213.238 653.84 212.673L652.772 198.79M667.228 198.79C666.074 198.616 664.914 198.483 663.75 198.393M652.772 198.79C652.43 198.841 652.09 198.896 651.75 198.955M652.772 198.79C653.926 198.616 655.086 198.483 656.25 198.393M663.75 198.393V197.477C663.75 196.297 662.84 195.313 661.66 195.276C660.554 195.241 659.446 195.241 658.34 195.276C657.16 195.313 656.25 196.298 656.25 197.477V198.393M663.75 198.393C661.254 198.2 658.746 198.2 656.25 198.393" stroke="black" stroke-width="1.5" stroke-linecap="round" stroke-linejoin="round"/>
</g>
<defs>
<filter id="filter0_d_7_60" x="3.4" y="13.4" width="756.2" height="440.2" filterUnits="userSpaceOnUse" color-interpolation-filters="sRGB">
<feFlood flood-opacity="0" result="BackgroundImageFix"/>
<feColorMatrix in="SourceAlpha" type="matrix" values="0 0 0 0 0 0 0 0 0 0 0 0 0 0 0 0 0 0 127 0" result="hardAlpha"/>
<feMorphology radius="2" operator="dilate" in="SourceAlpha" result="effect1_dropShadow_7_60"/>
<feOffset dx="2" dy="2"/>
<feGaussianBlur stdDeviation="29.8"/>
<feComposite in2="hardAlpha" operator="out"/>
<feColorMatrix type="matrix" values="0 0 0 0 0 0 0 0 0 0 0 0 0 0 0 0 0 0 0.52 0"/>
<feBlend mode="normal" in2="BackgroundImageFix" result="effect1_dropShadow_7_60"/>
<feBlend mode="normal" in="SourceGraphic" in2="effect1_dropShadow_7_60" result="shape"/>
</filter>
<linearGradient id="paint0_linear_7_60" x1="33.2493" y1="15.4333" x2="533.397" y2="421.395" gradientUnits="userSpaceOnUse">
<stop stop-color="#8C14C4"/>
<stop offset="1" stop-color="#4C076C"/>
</linearGradient>
<clipPath id="clip0_7_60">
<rect width="759" height="463" fill="white"/>
</clipPath>
</defs>
</svg>
