<svg xmlns="http://www.w3.org/2000/svg" width="662" height="507" fill="none" viewBox="0 0 662 507" class="featureSvg_GfXr" role="img"><rect width="662" height="507" fill="#09090B" rx="10"/><g filter="url(#a)"><path fill="#000" d="M17 22a6 6 0 0 1 6-6h308a6 6 0 0 1 6 6v24a6 6 0 0 1-6 6H23a6 6 0 0 1-6-6z"/><path stroke="#27272A" d="M17.5 22a5.5 5.5 0 0 1 5.5-5.5h308a5.5 5.5 0 0 1 5.5 5.5v24a5.5 5.5 0 0 1-5.5 5.5H23a5.5 5.5 0 0 1-5.5-5.5z"/><path fill="#fff" d="M30.233 39V28.818h6.105v1.094h-4.872v3.44h4.415v1.094h-4.415V39zm8.058 0v-7.636h1.173V39zm.596-8.91a.83.83 0 0 1-.591-.233.75.75 0 0 1-.244-.561.75.75 0 0 1 .244-.562.83.83 0 0 1 .591-.234q.344 0 .587.234a.74.74 0 0 1 .248.561.74.74 0 0 1-.248.562.82.82 0 0 1-.587.234m3.9-1.272V39h-1.174V28.818zm5.47 2.546v.994h-3.958v-.994zm-2.805-1.83h1.174v7.279q0 .496.144.745.15.244.377.328.234.08.493.08.194 0 .318-.02l.199-.04.238 1.054q-.12.045-.333.09-.213.05-.542.05-.497 0-.974-.214a1.94 1.94 0 0 1-.785-.652q-.309-.437-.309-1.103zm7.689 9.625q-1.103 0-1.904-.487a3.27 3.27 0 0 1-1.228-1.372q-.428-.885-.428-2.058 0-1.174.428-2.069.433-.9 1.203-1.402.775-.507 1.81-.507.596 0 1.178.2.58.198 1.059.645.477.442.76 1.174.285.73.284 1.8v.497h-5.887v-1.015h4.694q0-.646-.259-1.153a1.95 1.95 0 0 0-.726-.8q-.468-.294-1.103-.294-.701 0-1.214.348a2.3 2.3 0 0 0-.78.895 2.6 2.6 0 0 0-.274 1.183v.676q0 .865.299 1.467.303.597.84.91.537.308 1.248.308.463 0 .835-.13.378-.133.651-.397.274-.268.423-.666l1.133.318q-.179.577-.601 1.014-.423.433-1.044.676-.621.24-1.397.24M58.088 39v-7.636h1.133v1.153h.08q.208-.567.755-.92a2.23 2.23 0 0 1 1.233-.353q.13 0 .323.005.194.006.294.015v1.193q-.06-.015-.274-.044a3 3 0 0 0-.442-.035q-.557 0-.994.233a1.76 1.76 0 0 0-.687.637 1.7 1.7 0 0 0-.248.92V39zm12.348.16q-1.104 0-1.904-.488a3.27 3.27 0 0 1-1.228-1.372q-.428-.885-.428-2.058 0-1.174.428-2.069.432-.9 1.203-1.402.775-.507 1.81-.507.596 0 1.178.2.58.198 1.059.645.477.442.76 1.174.285.73.284 1.8v.497H67.71v-1.015h4.694q0-.646-.259-1.153a1.95 1.95 0 0 0-.726-.8q-.467-.294-1.104-.294-.7 0-1.213.348a2.3 2.3 0 0 0-.78.895 2.6 2.6 0 0 0-.274 1.183v.676q0 .865.299 1.467.303.597.84.91.537.308 1.248.308.462 0 .835-.13.378-.133.651-.397.274-.268.423-.666l1.133.318q-.179.577-.601 1.014-.423.433-1.044.676-.622.24-1.397.24m4.946-.16v-7.636h1.134v1.193h.1a1.92 1.92 0 0 1 .77-.95q.532-.343 1.278-.343.756 0 1.257.343.508.338.791.95h.08q.292-.592.88-.94.586-.353 1.407-.353 1.023 0 1.675.642.651.636.651 1.983V39h-1.173v-5.11q0-.846-.463-1.209a1.7 1.7 0 0 0-1.088-.363q-.805 0-1.248.487-.443.483-.443 1.223V39h-1.193v-5.23q0-.651-.422-1.05-.423-.402-1.09-.402-.457 0-.854.244a1.84 1.84 0 0 0-.637.676q-.238.428-.238.99V39zm14.416.179q-.727 0-1.318-.273a2.26 2.26 0 0 1-.94-.8q-.348-.528-.348-1.274 0-.656.259-1.063.258-.413.691-.647t.955-.348q.526-.12 1.059-.189.696-.09 1.128-.134.438-.05.636-.164.204-.114.204-.398v-.04q0-.735-.402-1.143-.398-.408-1.209-.408-.84 0-1.317.368-.477.367-.671.786l-1.114-.398q.299-.696.796-1.084.501-.393 1.093-.547a4.5 4.5 0 0 1 1.174-.159q.368 0 .845.09.481.084.93.353.451.269.75.81.3.541.299 1.452V39h-1.174v-1.034h-.06q-.118.249-.397.532-.28.284-.74.482-.464.2-1.13.199m.179-1.054q.696 0 1.173-.273a1.86 1.86 0 0 0 .974-1.616v-1.074q-.075.09-.328.164a6 6 0 0 1-.577.124 26 26 0 0 1-1.123.15q-.458.06-.855.193a1.5 1.5 0 0 0-.637.393q-.238.258-.238.706 0 .612.452.925.457.308 1.159.308m5.462.875v-7.636h1.173V39zm.597-8.91a.83.83 0 0 1-.592-.233.75.75 0 0 1-.243-.561.75.75 0 0 1 .243-.562.83.83 0 0 1 .592-.234q.343 0 .586.234a.74.74 0 0 1 .249.561.74.74 0 0 1-.249.562.82.82 0 0 1-.586.234m3.899-1.272V39H98.76V28.818zm7.558 4.256-1.054.298a2 2 0 0 0-.294-.512 1.4 1.4 0 0 0-.517-.417q-.327-.165-.84-.165-.701 0-1.168.324-.463.318-.463.81 0 .438.319.691.318.253.994.423l1.134.278q1.023.25 1.526.76.502.508.502 1.308 0 .657-.378 1.173-.373.517-1.044.816t-1.561.298q-1.169 0-1.934-.507-.766-.507-.969-1.482l1.113-.278q.16.617.602.925.447.308 1.168.308.82 0 1.303-.348.487-.353.487-.845a.89.89 0 0 0-.279-.666q-.277-.274-.855-.408l-1.272-.298q-1.05-.25-1.542-.77-.487-.528-.487-1.318 0-.646.363-1.144.368-.497.999-.78a3.5 3.5 0 0 1 1.442-.284q1.134 0 1.78.497.65.498.925 1.313m2.76 6.006a.86.86 0 0 1-.631-.264.86.86 0 0 1-.264-.631.86.86 0 0 1 .264-.632.86.86 0 0 1 .631-.263q.368 0 .632.263a.86.86 0 0 1 .263.632.93.93 0 0 1-.447.776.86.86 0 0 1-.448.119m3.856 0a.86.86 0 0 1-.632-.264.86.86 0 0 1-.263-.631q0-.369.263-.632a.86.86 0 0 1 .632-.263q.367 0 .631.263a.86.86 0 0 1 .264.632.84.84 0 0 1-.125.447.9.9 0 0 1-.323.328.85.85 0 0 1-.447.12m3.855 0a.86.86 0 0 1-.631-.264.86.86 0 0 1-.264-.631.86.86 0 0 1 .264-.632.86.86 0 0 1 .631-.263q.368 0 .632.263a.86.86 0 0 1 .263.632.84.84 0 0 1-.124.447.94.94 0 0 1-.323.328.86.86 0 0 1-.448.12"/></g><g filter="url(#b)"><path fill="#09090B" d="M528 22a6 6 0 0 1 6-6h105a6 6 0 0 1 6 6v24a6 6 0 0 1-6 6H534a6 6 0 0 1-6-6z"/><path stroke="#27272A" d="M528.5 22a5.5 5.5 0 0 1 5.5-5.5h105a5.5 5.5 0 0 1 5.5 5.5v24a5.5 5.5 0 0 1-5.5 5.5H534a5.5 5.5 0 0 1-5.5-5.5z"/><path fill="#F5F5F5" d="M553.575 32.13h-1.551a2.4 2.4 0 0 0-.333-.876 2.4 2.4 0 0 0-.597-.641 2.6 2.6 0 0 0-.79-.398 3.1 3.1 0 0 0-.92-.134q-.88 0-1.576.442-.69.443-1.094 1.298-.397.855-.397 2.088 0 1.243.397 2.098.403.855 1.099 1.293t1.566.437q.483 0 .915-.129.437-.134.791-.393a2.4 2.4 0 0 0 .939-1.496l1.551.005q-.124.75-.482 1.382a3.8 3.8 0 0 1-.91 1.084 4.1 4.1 0 0 1-1.263.7 4.7 4.7 0 0 1-1.551.25q-1.322 0-2.356-.627-1.034-.632-1.631-1.805-.591-1.173-.592-2.799 0-1.63.597-2.799.597-1.173 1.631-1.8 1.034-.63 2.351-.631.81 0 1.512.234.706.229 1.267.676.562.442.93 1.084.368.637.497 1.456m4.936 7.024q-1.074 0-1.874-.492a3.3 3.3 0 0 1-1.243-1.377q-.443-.886-.443-2.068 0-1.188.443-2.078a3.3 3.3 0 0 1 1.243-1.383q.8-.492 1.874-.492t1.874.492a3.3 3.3 0 0 1 1.243 1.383q.442.889.442 2.078 0 1.182-.442 2.068a3.3 3.3 0 0 1-1.243 1.377q-.8.492-1.874.492m.005-1.248q.696 0 1.153-.368.458-.367.676-.98.224-.61.224-1.346 0-.732-.224-1.343a2.2 2.2 0 0 0-.676-.989q-.457-.373-1.153-.373-.701 0-1.164.373a2.23 2.23 0 0 0-.681.99 4 4 0 0 0-.218 1.342q0 .736.218 1.347.224.611.681.98.463.367 1.164.367m6.7-9.088V39h-1.486V28.818zm6.837 7.015v-4.47h1.492V39h-1.462v-1.322h-.079a2.4 2.4 0 0 1-.845 1.019q-.577.402-1.437.402-.736 0-1.303-.323a2.3 2.3 0 0 1-.885-.97q-.318-.64-.318-1.585v-4.857h1.487v4.678q0 .78.432 1.243.432.462 1.124.462.417 0 .83-.209.418-.209.691-.631.279-.423.273-1.074M575.542 39v-7.636h1.427v1.242h.095q.239-.63.78-.984.542-.358 1.298-.358.765 0 1.282.358.522.358.771.984h.08q.273-.61.87-.974.596-.368 1.421-.368 1.04 0 1.696.652.661.65.661 1.963V39h-1.487v-4.981q0-.776-.422-1.124a1.54 1.54 0 0 0-1.009-.348q-.726 0-1.129.447-.403.443-.403 1.139V39h-1.481v-5.076q0-.62-.388-1-.388-.377-1.009-.377-.423 0-.781.224-.353.219-.571.611a1.87 1.87 0 0 0-.214.91V39zm13.86-4.534V39h-1.487v-7.636h1.427v1.242h.095q.262-.606.825-.974.567-.368 1.427-.368.78 0 1.367.328a2.2 2.2 0 0 1 .91.965q.323.64.323 1.586V39h-1.487v-4.678q0-.83-.432-1.298-.433-.472-1.188-.472a1.86 1.86 0 0 0-.92.224q-.398.223-.631.656-.23.428-.229 1.034m12.603-1.238-1.348.239a1.6 1.6 0 0 0-.268-.493 1.3 1.3 0 0 0-.487-.382q-.309-.15-.771-.15-.631 0-1.054.284-.422.278-.422.72 0 .384.283.617.284.234.915.383l1.213.278q1.054.244 1.571.751t.517 1.318q0 .686-.398 1.223-.393.532-1.099.835-.7.303-1.625.303-1.283 0-2.093-.547-.811-.552-.995-1.566l1.437-.219q.135.562.552.85.417.284 1.089.284.73 0 1.168-.303.438-.309.438-.751a.78.78 0 0 0-.269-.602q-.263-.243-.81-.367l-1.293-.284q-1.068-.243-1.581-.775-.507-.532-.507-1.348 0-.675.378-1.183t1.044-.79q.666-.29 1.526-.289 1.239 0 1.949.537.71.532.94 1.427"/><g opacity="0.5"><mask id="c" fill="#fff"><path fill-rule="evenodd" d="M617.461 32.594a.48.48 0 0 1 .678 0l2.861 2.86 2.861-2.86a.479.479 0 1 1 .678.679l-3.2 3.2a.48.48 0 0 1-.678 0l-3.2-3.2a.48.48 0 0 1 0-.679" clip-rule="evenodd"/></mask><path fill="#F1F1FF" fill-rule="evenodd" d="M617.461 32.594a.48.48 0 0 1 .678 0l2.861 2.86 2.861-2.86a.479.479 0 1 1 .678.679l-3.2 3.2a.48.48 0 0 1-.678 0l-3.2-3.2a.48.48 0 0 1 0-.679" clip-rule="evenodd"/><path fill="#F5F5F5" d="m617.461 32.594-.707-.707zm.678 0 .708-.707zm2.861 2.86-.707.708.707.707.707-.707zm2.861-2.86.707.707zm.678 0 .708-.707h-.001zm0 .679.708.707zm-3.2 3.2.708.707zm-.678 0 .707-.707zm-3.2-3.2-.707.707zm.707.028a.52.52 0 0 1-.736 0l1.415-1.414a1.48 1.48 0 0 0-2.093 0zm-.736 0 2.861 2.86 1.414-1.414-2.86-2.86zm4.275 2.86 2.861-2.86-1.414-1.414-2.861 2.86zm2.861-2.86a.52.52 0 0 1-.735 0l1.413-1.414a1.48 1.48 0 0 0-2.092 0zm-.736 0a.52.52 0 0 1 0-.735l1.415 1.414a1.48 1.48 0 0 0 0-2.093zm0-.735-3.2 3.2 1.415 1.414 3.2-3.2zm-3.2 3.2a.52.52 0 0 1 .368-.153v2c.393 0 .769-.156 1.047-.433zm.368-.153c.138 0 .27.055.368.153l-1.414 1.414c.277.277.654.433 1.046.433zm.368.153-3.2-3.2-1.414 1.414 3.2 3.2zm-3.2-3.2a.52.52 0 0 1 0 .735l-1.414-1.414a1.48 1.48 0 0 0 0 2.093z" mask="url(#c)"/></g></g><path stroke="#27272A" d="M17.5 74a5.5 5.5 0 0 1 5.5-5.5h616a5.5 5.5 0 0 1 5.5 5.5v387a5.5 5.5 0 0 1-5.5 5.5H23a5.5 5.5 0 0 1-5.5-5.5z"/><mask id="d" fill="#fff"><path d="M37 68h579v40H37z"/></mask><path fill="#27272A" d="M616 107H37v2h579z" mask="url(#d)"/><path fill="#27272A" stroke="#FAFAFA" d="M45.5 84a3.5 3.5 0 0 1 3.5-3.5h8a3.5 3.5 0 0 1 3.5 3.5v8a3.5 3.5 0 0 1-3.5 3.5h-8a3.5 3.5 0 0 1-3.5-3.5z"/><path fill="#FAFAFA" d="M109.337 82.818V93h-1.412l-5.176-7.467h-.094V93h-1.536V82.818h1.421l5.181 7.478h.094v-7.478zm4.344 10.351q-.726 0-1.313-.268a2.2 2.2 0 0 1-.93-.79q-.338-.518-.338-1.269 0-.645.249-1.064.248-.417.671-.66a3.5 3.5 0 0 1 .945-.369 9 9 0 0 1 1.064-.189l1.113-.129q.427-.054.622-.174.194-.12.194-.388v-.034q0-.652-.368-1.01-.364-.358-1.084-.358-.751 0-1.183.333-.428.33-.592.731l-1.397-.318q.249-.696.726-1.123a2.9 2.9 0 0 1 1.109-.627 4.3 4.3 0 0 1 1.317-.199q.458 0 .969.11.518.104.965.387.452.285.741.81.288.523.288 1.358V93h-1.452v-1.044h-.059a2.1 2.1 0 0 1-.433.567q-.288.278-.741.462-.451.184-1.083.184m.323-1.193q.616 0 1.054-.244.442-.243.671-.636a1.65 1.65 0 0 0 .234-.85v-.985q-.08.08-.309.15-.224.064-.512.114-.288.045-.562.084l-.457.06a3.7 3.7 0 0 0-.79.184 1.35 1.35 0 0 0-.567.373q-.209.238-.209.636 0 .553.408.835.407.279 1.039.279M119.429 93v-7.636h1.427v1.242h.094q.239-.63.781-.984.542-.358 1.297-.358.766 0 1.283.358.522.358.771.984h.079q.275-.61.87-.974.597-.368 1.422-.368 1.04 0 1.695.651.662.653.662 1.964V93h-1.487v-4.981q0-.776-.422-1.124a1.54 1.54 0 0 0-1.01-.348q-.726 0-1.128.447-.403.443-.403 1.139V93h-1.481v-5.076q0-.62-.388-1-.388-.377-1.009-.377-.423 0-.781.224-.353.219-.572.611a1.9 1.9 0 0 0-.214.91V93zm15.664.154q-1.128 0-1.944-.482a3.27 3.27 0 0 1-1.253-1.367q-.437-.885-.437-2.074 0-1.173.437-2.068a3.4 3.4 0 0 1 1.233-1.397q.797-.501 1.86-.502.646 0 1.253.214a3 3 0 0 1 1.088.671q.482.457.761 1.188.278.727.278 1.765v.527h-6.07v-1.113h4.614q0-.587-.239-1.04a1.8 1.8 0 0 0-.671-.72 1.88 1.88 0 0 0-1.004-.264q-.627 0-1.094.308a2.07 2.07 0 0 0-.716.796 2.3 2.3 0 0 0-.248 1.059v.87q0 .765.268 1.302.273.537.761.82.487.28 1.138.28.423 0 .771-.12.348-.125.601-.368.254-.243.388-.602l1.407.254a2.56 2.56 0 0 1-.606 1.089 2.95 2.95 0 0 1-1.089.72q-.651.254-1.487.254"/><path fill="#000" d="M268 76a6 6 0 0 1 6-6h64a6 6 0 0 1 6 6v24a6 6 0 0 1-6 6h-64a6 6 0 0 1-6-6z"/><path fill="#FAFAFA" d="M290.672 85.493a1.45 1.45 0 0 0-.656-1.094q-.578-.393-1.452-.393-.627 0-1.084.2-.457.193-.711.536a1.26 1.26 0 0 0-.248.77q0 .364.169.627.173.263.452.443.283.174.607.293.322.115.621.189l.994.258q.487.12 1 .324a4 4 0 0 1 .949.537q.438.333.706.825.274.492.274 1.178 0 .865-.448 1.536-.442.671-1.287 1.06-.84.387-2.034.387-1.143 0-1.979-.363-.834-.363-1.307-1.029-.473-.672-.522-1.59h1.541q.045.551.358.919.318.362.81.542.498.174 1.089.174a3.1 3.1 0 0 0 1.159-.204q.511-.209.805-.577.294-.372.293-.87 0-.452-.258-.74a1.9 1.9 0 0 0-.691-.478 7 7 0 0 0-.98-.333l-1.203-.328q-1.222-.333-1.939-.98-.711-.645-.711-1.71 0-.879.478-1.536a3.14 3.14 0 0 1 1.292-1.02q.816-.367 1.84-.367 1.034 0 1.824.363.796.363 1.253 1 .458.63.477 1.45zm6.902-.13v1.194h-4.171v-1.193zm-3.053-1.829h1.487v7.224q0 .432.129.651.129.214.333.293.209.075.452.075.18 0 .314-.025t.208-.04l.269 1.228a2.5 2.5 0 0 1-.368.1 3 3 0 0 1-.597.06 2.6 2.6 0 0 1-1.093-.21 1.9 1.9 0 0 1-.821-.675q-.312-.457-.313-1.149zm6.919 9.635q-.726 0-1.312-.268a2.2 2.2 0 0 1-.93-.79q-.338-.518-.338-1.269 0-.645.249-1.064.248-.417.671-.66t.944-.369a9 9 0 0 1 1.064-.189l1.114-.129q.428-.054.621-.174.194-.12.194-.388v-.034q0-.652-.368-1.01-.363-.358-1.083-.358-.751 0-1.184.333-.428.33-.591.731l-1.397-.318q.248-.696.726-1.123a2.9 2.9 0 0 1 1.108-.627 4.3 4.3 0 0 1 1.318-.199q.457 0 .969.11.517.104.965.387.452.285.74.81.29.523.289 1.358V93h-1.452v-1.044h-.06q-.144.288-.432.567t-.741.462-1.084.184m.323-1.193q.617 0 1.054-.244.442-.243.672-.636.233-.398.233-.85v-.985q-.079.08-.308.15-.224.064-.512.114-.288.045-.562.084l-.457.06a3.7 3.7 0 0 0-.791.184q-.353.129-.566.373-.21.238-.209.636 0 .553.407.835.409.279 1.039.279m8.99-6.612v1.193h-4.171v-1.193zm-3.052-1.83h1.486v7.224q0 .432.13.651.129.214.333.293.209.075.452.075.179 0 .313-.025t.209-.04l.269 1.228a2.916 2.916 0 0 1-.965.16 2.6 2.6 0 0 1-1.094-.21 1.9 1.9 0 0 1-.82-.675q-.313-.457-.313-1.149zm9.534 6.3v-4.47h1.492V93h-1.462v-1.322h-.08a2.4 2.4 0 0 1-.845 1.019q-.576.402-1.437.402-.735 0-1.302-.323a2.27 2.27 0 0 1-.885-.97q-.318-.64-.318-1.585v-4.857h1.486v4.678q0 .78.433 1.243.433.462 1.123.462.418 0 .831-.209.417-.209.691-.631.278-.423.273-1.074m9.211-2.606-1.347.239a1.6 1.6 0 0 0-.269-.493 1.3 1.3 0 0 0-.487-.382q-.308-.15-.77-.15-.632 0-1.054.284-.423.279-.423.72 0 .384.283.617.284.234.915.383l1.213.278q1.055.244 1.571.751.517.507.517 1.318 0 .686-.397 1.223-.393.532-1.099.835-.7.303-1.626.303-1.283 0-2.093-.547-.81-.552-.994-1.566l1.437-.219q.134.562.551.85.418.285 1.089.284.73 0 1.169-.303.437-.309.437-.751a.78.78 0 0 0-.268-.602q-.264-.244-.811-.367l-1.292-.284q-1.07-.243-1.581-.775-.507-.532-.507-1.348 0-.675.377-1.183.378-.507 1.044-.79.667-.29 1.527-.289 1.238 0 1.949.537.711.532.939 1.427M559.119 82.818h1.864l3.241 7.915h.12l3.241-7.915h1.865V93h-1.462v-7.368h-.095l-3.002 7.353h-1.213l-3.003-7.358h-.095V93h-1.461zm14.667 10.351q-.726 0-1.312-.268a2.2 2.2 0 0 1-.93-.79q-.339-.518-.338-1.269 0-.645.248-1.064.249-.417.672-.66a3.5 3.5 0 0 1 .944-.369 9 9 0 0 1 1.064-.189l1.114-.129q.428-.054.621-.174.194-.12.194-.388v-.034q0-.652-.368-1.01-.363-.358-1.084-.358-.75 0-1.183.333-.427.33-.592.731l-1.397-.318q.249-.696.726-1.123a2.95 2.95 0 0 1 1.109-.627 4.3 4.3 0 0 1 1.317-.199q.458 0 .97.11.517.104.964.387.453.285.741.81.288.523.289 1.358V93h-1.452v-1.044h-.06q-.144.288-.432.567-.29.278-.741.462-.453.184-1.084.184m.323-1.193q.617 0 1.054-.244.443-.243.671-.636a1.65 1.65 0 0 0 .234-.85v-.985q-.08.08-.308.15-.224.064-.512.114-.29.045-.562.084l-.457.06a3.7 3.7 0 0 0-.791.184q-.353.129-.567.373-.209.238-.209.636 0 .553.408.835.408.279 1.039.279m6.912-3.51V93h-1.487v-7.636h1.427v1.242h.095q.263-.606.825-.974.567-.368 1.427-.368.78 0 1.367.328a2.2 2.2 0 0 1 .91.965q.323.64.323 1.586V93h-1.486v-4.678q0-.83-.433-1.298-.432-.472-1.188-.472-.517 0-.92.224-.398.224-.631.656-.23.428-.229 1.034m9.103 4.703q-.726 0-1.313-.268a2.2 2.2 0 0 1-.929-.79q-.338-.518-.338-1.269 0-.645.248-1.064.25-.417.671-.66a3.5 3.5 0 0 1 .945-.369 9 9 0 0 1 1.064-.189l1.114-.129q.428-.054.621-.174.194-.12.194-.388v-.034q0-.652-.368-1.01-.363-.358-1.084-.358-.75 0-1.183.333-.427.33-.592.731l-1.397-.318q.249-.696.726-1.123a2.95 2.95 0 0 1 1.109-.627 4.3 4.3 0 0 1 1.317-.199q.457 0 .97.11.517.104.964.387.453.285.741.81.288.523.288 1.358V93h-1.451v-1.044h-.06q-.144.288-.432.567-.29.278-.741.462-.453.184-1.084.184m.323-1.193q.616 0 1.054-.244.443-.243.671-.636a1.65 1.65 0 0 0 .234-.85v-.985q-.08.08-.308.15-.224.064-.512.114-.29.045-.562.084l-.458.06a3.7 3.7 0 0 0-.79.184q-.352.129-.567.373-.209.238-.209.636 0 .553.408.835.408.279 1.039.279m8.627 4.047q-.91 0-1.566-.239-.651-.239-1.064-.631a2.6 2.6 0 0 1-.616-.86l1.277-.527q.135.218.358.462.229.249.617.423.393.174 1.009.174.845 0 1.397-.413.552-.408.552-1.303v-1.501h-.095a3.4 3.4 0 0 1-.387.542 2.1 2.1 0 0 1-.687.517q-.437.219-1.138.219-.905 0-1.631-.423-.72-.427-1.143-1.258-.418-.835-.418-2.053t.413-2.088q.417-.87 1.143-1.332a2.98 2.98 0 0 1 1.646-.468q.711 0 1.148.239.438.234.681.547.25.313.383.552h.11v-1.238h1.456v7.805q0 .984-.457 1.616-.458.63-1.238.934-.775.304-1.75.304m-.015-4.37q.642 0 1.084-.299.447-.303.676-.865.234-.566.234-1.357 0-.77-.229-1.357a2 2 0 0 0-.671-.915q-.443-.333-1.094-.333-.67 0-1.118.348-.448.343-.677.935a3.7 3.7 0 0 0-.223 1.322q0 .75.228 1.318.23.565.676.885.453.318 1.114.318m8.745 1.501q-1.128 0-1.944-.482a3.27 3.27 0 0 1-1.253-1.367q-.437-.885-.437-2.074 0-1.173.437-2.068a3.4 3.4 0 0 1 1.233-1.397q.796-.501 1.86-.502.646 0 1.253.214a3 3 0 0 1 1.088.671q.483.457.761 1.188.279.727.278 1.765v.527h-6.07v-1.113h4.614q0-.587-.239-1.04a1.8 1.8 0 0 0-.671-.72 1.88 1.88 0 0 0-1.004-.264 1.94 1.94 0 0 0-1.094.308 2.07 2.07 0 0 0-.716.796 2.3 2.3 0 0 0-.249 1.059v.87q0 .765.269 1.302.273.537.761.82.486.28 1.138.28.423 0 .771-.12.348-.125.601-.368.254-.243.388-.602l1.407.254a2.55 2.55 0 0 1-.607 1.089 2.94 2.94 0 0 1-1.088.72q-.652.254-1.487.254"/><mask id="e" fill="#fff"><path d="M37 108h579v49H37z"/></mask><path fill="#27272A" d="M616 156H37v2h579z" mask="url(#e)"/><path fill="#27272A" stroke="#FAFAFA" d="M45.5 128.5A3.5 3.5 0 0 1 49 125h8a3.5 3.5 0 0 1 3.5 3.5v8A3.5 3.5 0 0 1 57 140h-8a3.5 3.5 0 0 1-3.5-3.5z"/><path fill="#DEDEDE" d="M101.233 137.5v-10.182h6.145v1.094h-4.912v3.44h4.594v1.094h-4.594v3.46h4.991v1.094zm9.381-4.594v4.594h-1.173v-7.636h1.134v1.193h.099q.269-.582.815-.935.548-.358 1.412-.358.776 0 1.358.318.581.313.904.955.324.636.324 1.611v4.852h-1.174v-4.773q0-.9-.467-1.402-.467-.507-1.283-.507-.561 0-1.004.244a1.74 1.74 0 0 0-.691.711q-.254.467-.254 1.133m12.987-3.042-2.823 7.636h-1.194l-2.824-7.636h1.273l2.108 6.085h.08l2.108-6.085zm1.549 7.636v-7.636h1.173v7.636zm.597-8.909a.83.83 0 0 1-.592-.234.75.75 0 0 1-.244-.562.75.75 0 0 1 .244-.561.83.83 0 0 1 .592-.234q.342 0 .586.234a.74.74 0 0 1 .249.561.74.74 0 0 1-.249.562.82.82 0 0 1-.586.234m2.725 8.909v-7.636h1.134v1.153h.079a1.84 1.84 0 0 1 .756-.92 2.23 2.23 0 0 1 1.233-.353q.13 0 .323.005.194.006.293.015v1.193a4 4 0 0 0-.273-.044 2.6 2.6 0 0 0-.442-.035q-.558 0-.995.234a1.711 1.711 0 0 0-.934 1.556v4.832zm8.079.159q-1.034 0-1.814-.492a3.34 3.34 0 0 1-1.214-1.377q-.432-.886-.432-2.068 0-1.194.432-2.084a3.34 3.34 0 0 1 1.214-1.382q.78-.492 1.814-.492t1.81.492q.78.493 1.213 1.382.438.89.437 2.084 0 1.183-.437 2.068a3.3 3.3 0 0 1-1.213 1.377q-.775.492-1.81.492m0-1.054q.786 0 1.293-.403.507-.402.75-1.059.244-.656.244-1.421 0-.766-.244-1.427a2.4 2.4 0 0 0-.75-1.069q-.507-.408-1.293-.408t-1.292.408a2.4 2.4 0 0 0-.751 1.069 4.1 4.1 0 0 0-.244 1.427q0 .765.244 1.421.243.657.751 1.059.506.403 1.292.403"/><circle cx="278.5" cy="132.5" r="3.5" fill="#4CD729"/><path fill="#DEDEDE" d="M287.233 137.5v-10.182h3.44q1.194 0 1.959.408.766.402 1.134 1.109.368.705.368 1.605t-.368 1.596q-.369.696-1.129 1.094-.76.393-1.944.393h-2.784v-1.114h2.744q.815 0 1.313-.239.502-.238.726-.676.228-.442.228-1.054a2.4 2.4 0 0 0-.228-1.069 1.57 1.57 0 0 0-.731-.706q-.502-.253-1.327-.253h-2.168v9.088zm4.793-4.574 2.505 4.574h-1.432l-2.465-4.574zm8.815 1.452v-4.514h1.174v7.636h-1.174v-1.293h-.079a2.5 2.5 0 0 1-.835.99q-.567.402-1.432.402a2.55 2.55 0 0 1-1.273-.313 2.2 2.2 0 0 1-.875-.954q-.318-.642-.318-1.616v-4.852h1.173v4.772q0 .835.468 1.333.471.497 1.203.497.437 0 .89-.224.458-.224.765-.686.313-.462.313-1.178m4.496-1.472v4.594h-1.173v-7.636h1.133v1.193h.1q.268-.582.815-.935.547-.358 1.412-.358.775 0 1.357.318.582.313.905.955.323.636.323 1.611v4.852h-1.173v-4.773q0-.9-.467-1.402-.468-.507-1.283-.507-.562 0-1.004.244a1.74 1.74 0 0 0-.691.711q-.254.467-.254 1.133m8.189 0v4.594h-1.173v-7.636h1.134v1.193h.099q.269-.582.815-.935.548-.358 1.412-.358.776 0 1.358.318.581.313.904.955.324.636.324 1.611v4.852h-1.174v-4.773q0-.9-.467-1.402-.467-.507-1.283-.507-.561 0-1.004.244a1.74 1.74 0 0 0-.691.711q-.254.467-.254 1.133m7.017 4.594v-7.636h1.173v7.636zm.596-8.909a.83.83 0 0 1-.591-.234.75.75 0 0 1-.244-.562q0-.328.244-.561a.83.83 0 0 1 .591-.234q.343 0 .587.234a.74.74 0 0 1 .248.561.74.74 0 0 1-.248.562.82.82 0 0 1-.587.234m3.899 4.315v4.594h-1.173v-7.636h1.133v1.193h.1q.269-.582.815-.935.547-.358 1.412-.358.776 0 1.357.318.582.313.905.955.323.636.323 1.611v4.852h-1.173v-4.773q0-.9-.467-1.402-.467-.507-1.283-.507-.561 0-1.004.244a1.74 1.74 0 0 0-.691.711q-.254.467-.254 1.133m10.099 7.617q-.85 0-1.462-.219a3.1 3.1 0 0 1-1.019-.567 3 3 0 0 1-.641-.746l.934-.656q.16.21.403.477.243.274.666.473.428.204 1.119.204.924 0 1.526-.448.602-.447.602-1.402v-1.551h-.1a6 6 0 0 1-.368.517 2.1 2.1 0 0 1-.676.542q-.438.234-1.183.234-.925 0-1.661-.438-.73-.437-1.158-1.273-.423-.835-.423-2.028 0-1.173.413-2.043.413-.875 1.148-1.353.736-.482 1.701-.482.745 0 1.183.249.442.243.676.557.239.308.368.507h.119v-1.213h1.134v7.855q0 .984-.448 1.601a2.54 2.54 0 0 1-1.193.909 4.5 4.5 0 0 1-1.66.294m-.04-4.196q.706 0 1.193-.323.488-.324.741-.93t.253-1.452q0-.825-.248-1.457a2.2 2.2 0 0 0-.736-.989q-.488-.358-1.203-.358-.746 0-1.243.378-.492.378-.741 1.014a3.9 3.9 0 0 0-.243 1.412q0 .795.248 1.407.254.607.746.955.497.343 1.233.343"/><path fill="#000" d="M524 122.5a6 6 0 0 1 6-6h20a6 6 0 0 1 6 6v20a6 6 0 0 1-6 6h-20a6 6 0 0 1-6-6z"/><path stroke="#fff" stroke-linecap="round" stroke-linejoin="round" d="M540 133.167a.667.667 0 1 0-.001-1.335.667.667 0 0 0 .001 1.335M544.667 133.167a.667.667 0 1 0-.001-1.333.667.667 0 0 0 .001 1.333M535.333 133.167a.667.667 0 1 0 0-1.334.667.667 0 0 0 0 1.334"/><mask id="f" fill="#fff"><path d="M37 157h579v49H37z"/></mask><path fill="#27272A" d="M616 205H37v2h579z" mask="url(#f)"/><path fill="#27272A" stroke="#FAFAFA" d="M45.5 177.5A3.5 3.5 0 0 1 49 174h8a3.5 3.5 0 0 1 3.5 3.5v8A3.5 3.5 0 0 1 57 189h-8a3.5 3.5 0 0 1-3.5-3.5z"/><path fill="#DEDEDE" d="M101.233 186.5v-10.182h3.44q1.194 0 1.959.408.766.402 1.134 1.109.368.705.368 1.605t-.368 1.596q-.369.696-1.129 1.094-.76.393-1.944.393h-2.784v-1.114h2.744q.815 0 1.313-.239.502-.238.726-.676.228-.442.228-1.054a2.4 2.4 0 0 0-.228-1.069 1.57 1.57 0 0 0-.731-.706q-.502-.253-1.327-.253h-2.168v9.088zm4.793-4.574 2.505 4.574h-1.432l-2.465-4.574zm7.123 4.733q-1.104 0-1.905-.487a3.27 3.27 0 0 1-1.227-1.372q-.428-.885-.428-2.059 0-1.173.428-2.068.432-.9 1.203-1.402.775-.507 1.809-.507.597 0 1.179.199.58.2 1.059.646.477.442.76 1.174.284.73.284 1.799v.498h-5.887v-1.015h4.693q0-.646-.258-1.153a1.94 1.94 0 0 0-.726-.8q-.467-.294-1.104-.294-.7 0-1.213.348a2.3 2.3 0 0 0-.78.895 2.6 2.6 0 0 0-.274 1.183v.676q0 .866.299 1.467.303.597.84.91.537.308 1.248.308.462 0 .835-.129.378-.135.651-.398a1.8 1.8 0 0 0 .423-.666l1.133.318q-.179.577-.601 1.014-.423.433-1.044.676-.622.24-1.397.239m7.194.02q-.727 0-1.318-.273a2.27 2.27 0 0 1-.94-.801q-.348-.526-.348-1.273 0-.656.259-1.064.258-.412.691-.646t.955-.348q.527-.119 1.058-.189.697-.089 1.129-.134.438-.05.636-.164.204-.114.204-.398v-.04q0-.735-.402-1.143-.398-.408-1.209-.408-.84 0-1.317.368t-.671.786l-1.114-.398q.298-.696.796-1.084a3 3 0 0 1 1.093-.547 4.6 4.6 0 0 1 1.174-.159q.368 0 .845.09.481.084.93.353.451.269.75.81.299.542.299 1.452v5.031h-1.174v-1.034h-.059q-.12.249-.398.532-.279.284-.741.482-.462.2-1.128.199m.178-1.054q.696 0 1.174-.273.482-.274.726-.706.248-.433.248-.91v-1.074q-.075.09-.328.164a6 6 0 0 1-.577.124q-.323.05-.631.09-.303.035-.492.059-.458.06-.855.194a1.5 1.5 0 0 0-.637.393q-.238.258-.238.706 0 .612.452.925.458.308 1.158.308m8.565 1.034q-1.074 0-1.849-.507a3.3 3.3 0 0 1-1.193-1.397q-.418-.89-.418-2.033 0-1.163.428-2.054a3.4 3.4 0 0 1 1.203-1.397q.776-.507 1.809-.507.805 0 1.452.298.647.299 1.059.836a2.6 2.6 0 0 1 .512 1.253h-1.173a1.82 1.82 0 0 0-.597-.925q-.458-.408-1.233-.408a2.06 2.06 0 0 0-1.203.358q-.512.353-.8.999-.284.642-.284 1.507 0 .885.279 1.541.284.656.795 1.019.517.363 1.213.363.457 0 .831-.159a1.7 1.7 0 0 0 .631-.457q.258-.299.368-.716h1.173a2.7 2.7 0 0 1-.492 1.218 2.76 2.76 0 0 1-1.029.855q-.636.313-1.482.313m8.039-7.795v.994h-3.957v-.994zm-2.804-1.83h1.174v7.278q0 .498.144.746a.74.74 0 0 0 .378.328q.233.08.492.08.194 0 .318-.02l.199-.04.239 1.054q-.12.045-.334.09a2.5 2.5 0 0 1-.541.049q-.498 0-.975-.213a1.93 1.93 0 0 1-.785-.652q-.309-.437-.309-1.103zm8.666 9.466v-10.182h3.44q1.198 0 1.959.433.765.427 1.134 1.158.367.73.367 1.631 0 .9-.367 1.635a2.74 2.74 0 0 1-1.124 1.174q-.76.432-1.949.432h-2.466v-1.093h2.426q.82 0 1.318-.284a1.7 1.7 0 0 0 .721-.766q.228-.487.228-1.098a2.5 2.5 0 0 0-.228-1.094 1.64 1.64 0 0 0-.726-.756q-.502-.278-1.333-.278h-2.167v9.088zm8.727 0v-7.636h1.134v1.153h.08q.209-.566.755-.92a2.23 2.23 0 0 1 1.233-.353q.13 0 .323.005.194.006.294.015v1.193a4 4 0 0 0-.274-.044 2.6 2.6 0 0 0-.442-.035 2.1 2.1 0 0 0-.995.234 1.76 1.76 0 0 0-.686.636 1.7 1.7 0 0 0-.248.92v4.832zm8.079.159q-1.034 0-1.814-.492a3.34 3.34 0 0 1-1.213-1.377q-.433-.886-.433-2.068 0-1.194.433-2.084a3.34 3.34 0 0 1 1.213-1.382q.78-.492 1.814-.492t1.81.492q.78.493 1.213 1.382.438.89.438 2.084 0 1.183-.438 2.068a3.3 3.3 0 0 1-1.213 1.377q-.775.492-1.81.492m0-1.054q.786 0 1.293-.403.507-.402.751-1.059.243-.656.243-1.421 0-.766-.243-1.427a2.4 2.4 0 0 0-.751-1.069q-.507-.408-1.293-.408t-1.292.408a2.4 2.4 0 0 0-.751 1.069 4.1 4.1 0 0 0-.244 1.427q0 .765.244 1.421.244.657.751 1.059.507.403 1.292.403m5.252-6.741h1.173v8.193q0 .705-.244 1.223a1.75 1.75 0 0 1-.726.8q-.481.284-1.218.284h-.238v-1.094h.218q.537 0 .786-.318.249-.313.249-.895zm.576-1.273a.83.83 0 0 1-.591-.234.75.75 0 0 1-.244-.562q0-.328.244-.561a.83.83 0 0 1 .591-.234q.344 0 .587.234a.74.74 0 0 1 .248.561.74.74 0 0 1-.248.562.82.82 0 0 1-.587.234m5.948 9.068q-1.104 0-1.905-.487a3.3 3.3 0 0 1-1.228-1.372q-.427-.885-.427-2.059 0-1.173.427-2.068.433-.9 1.204-1.402.776-.507 1.809-.507.597 0 1.178.199.582.2 1.059.646.478.442.761 1.174.283.73.283 1.799v.498h-5.886v-1.015h4.693q0-.646-.258-1.153a1.94 1.94 0 0 0-.726-.8q-.468-.294-1.104-.294-.7 0-1.213.348a2.3 2.3 0 0 0-.78.895 2.6 2.6 0 0 0-.274 1.183v.676q0 .866.298 1.467.304.597.841.91.537.308 1.248.308.462 0 .835-.129.378-.135.651-.398a1.8 1.8 0 0 0 .423-.666l1.133.318q-.179.577-.601 1.014-.423.433-1.044.676-.622.24-1.397.239m8.049 0q-1.074 0-1.85-.507a3.3 3.3 0 0 1-1.193-1.397q-.417-.89-.418-2.033 0-1.163.428-2.054a3.4 3.4 0 0 1 1.203-1.397q.775-.507 1.81-.507.805 0 1.451.298.647.299 1.059.836a2.6 2.6 0 0 1 .512 1.253h-1.173q-.133-.523-.597-.925-.456-.408-1.232-.408a2.06 2.06 0 0 0-1.204.358q-.512.353-.8.999-.283.642-.283 1.507 0 .885.278 1.541.284.656.795 1.019.518.363 1.214.363a2.1 2.1 0 0 0 .83-.159 1.7 1.7 0 0 0 .631-.457 1.75 1.75 0 0 0 .368-.716h1.173a2.7 2.7 0 0 1-.492 1.218 2.74 2.74 0 0 1-1.029.855q-.636.313-1.481.313m8.039-7.795v.994h-3.958v-.994zm-2.804-1.83h1.173v7.278q0 .498.144.746.15.244.378.328.234.08.492.08.194 0 .318-.02l.199-.04.239 1.054q-.12.045-.333.09a2.5 2.5 0 0 1-.542.049q-.497 0-.975-.213a1.94 1.94 0 0 1-.785-.652q-.309-.437-.308-1.103z"/><circle cx="278.5" cy="181.5" r="3.5" fill="#4CD729"/><path fill="#DEDEDE" d="M287.233 186.5v-10.182h3.44q1.194 0 1.959.408.766.402 1.134 1.109.368.705.368 1.605t-.368 1.596q-.369.696-1.129 1.094-.76.393-1.944.393h-2.784v-1.114h2.744q.815 0 1.313-.239.502-.238.726-.676.228-.442.228-1.054a2.4 2.4 0 0 0-.228-1.069 1.57 1.57 0 0 0-.731-.706q-.502-.253-1.327-.253h-2.168v9.088zm4.793-4.574 2.505 4.574h-1.432l-2.465-4.574zm8.815 1.452v-4.514h1.174v7.636h-1.174v-1.293h-.079a2.5 2.5 0 0 1-.835.99q-.567.402-1.432.402a2.55 2.55 0 0 1-1.273-.313 2.2 2.2 0 0 1-.875-.954q-.318-.642-.318-1.616v-4.852h1.173v4.772q0 .835.468 1.333.471.497 1.203.497.437 0 .89-.224.458-.224.765-.686.313-.462.313-1.178m4.496-1.472v4.594h-1.173v-7.636h1.133v1.193h.1q.268-.582.815-.935.547-.358 1.412-.358.775 0 1.357.318.582.313.905.955.323.636.323 1.611v4.852h-1.173v-4.773q0-.9-.467-1.402-.468-.507-1.283-.507-.562 0-1.004.244a1.74 1.74 0 0 0-.691.711q-.254.467-.254 1.133m8.189 0v4.594h-1.173v-7.636h1.134v1.193h.099q.269-.582.815-.935.548-.358 1.412-.358.776 0 1.358.318.581.313.904.955.324.636.324 1.611v4.852h-1.174v-4.773q0-.9-.467-1.402-.467-.507-1.283-.507-.561 0-1.004.244a1.74 1.74 0 0 0-.691.711q-.254.467-.254 1.133m7.017 4.594v-7.636h1.173v7.636zm.596-8.909a.83.83 0 0 1-.591-.234.75.75 0 0 1-.244-.562q0-.328.244-.561a.83.83 0 0 1 .591-.234q.343 0 .587.234a.74.74 0 0 1 .248.561.74.74 0 0 1-.248.562.82.82 0 0 1-.587.234m3.899 4.315v4.594h-1.173v-7.636h1.133v1.193h.1q.269-.582.815-.935.547-.358 1.412-.358.776 0 1.357.318.582.313.905.955.323.636.323 1.611v4.852h-1.173v-4.773q0-.9-.467-1.402-.467-.507-1.283-.507-.561 0-1.004.244a1.74 1.74 0 0 0-.691.711q-.254.467-.254 1.133m10.099 7.617q-.85 0-1.462-.219a3.1 3.1 0 0 1-1.019-.567 3 3 0 0 1-.641-.746l.934-.656q.16.21.403.477.243.274.666.473.428.204 1.119.204.924 0 1.526-.448.602-.447.602-1.402v-1.551h-.1a6 6 0 0 1-.368.517 2.1 2.1 0 0 1-.676.542q-.438.234-1.183.234-.925 0-1.661-.438-.73-.437-1.158-1.273-.423-.835-.423-2.028 0-1.173.413-2.043.413-.875 1.148-1.353.736-.482 1.701-.482.745 0 1.183.249.442.243.676.557.239.308.368.507h.119v-1.213h1.134v7.855q0 .984-.448 1.601a2.54 2.54 0 0 1-1.193.909 4.5 4.5 0 0 1-1.66.294m-.04-4.196q.706 0 1.193-.323.488-.324.741-.93t.253-1.452q0-.825-.248-1.457a2.2 2.2 0 0 0-.736-.989q-.488-.358-1.203-.358-.746 0-1.243.378-.492.378-.741 1.014a3.9 3.9 0 0 0-.243 1.412q0 .795.248 1.407.254.607.746.955.497.343 1.233.343"/><path fill="#000" d="M524 171.5a6 6 0 0 1 6-6h20a6 6 0 0 1 6 6v20a6 6 0 0 1-6 6h-20a6 6 0 0 1-6-6z"/><path stroke="#fff" stroke-linecap="round" stroke-linejoin="round" d="M540 182.167a.667.667 0 1 0-.001-1.335.667.667 0 0 0 .001 1.335M544.667 182.167a.667.667 0 1 0-.001-1.333.667.667 0 0 0 .001 1.333M535.333 182.167a.667.667 0 1 0 0-1.334.667.667 0 0 0 0 1.334"/><mask id="g" fill="#fff"><path d="M37 206h579v49H37z"/></mask><path fill="#27272A" d="M616 254H37v2h579z" mask="url(#g)"/><path fill="#27272A" stroke="#FAFAFA" d="M45.5 226.5A3.5 3.5 0 0 1 49 223h8a3.5 3.5 0 0 1 3.5 3.5v8A3.5 3.5 0 0 1 57 238h-8a3.5 3.5 0 0 1-3.5-3.5z"/><path fill="#DEDEDE" d="M100.676 226.412v-1.094h7.636v1.094h-3.201v9.088h-1.233v-9.088zm17.706 3.997q0 1.611-.581 2.784-.582 1.174-1.596 1.81t-2.317.636-2.317-.636-1.596-1.81q-.58-1.173-.581-2.784 0-1.611.581-2.784.582-1.173 1.596-1.81 1.015-.636 2.317-.636t2.317.636q1.014.637 1.596 1.81t.581 2.784m-1.193 0q0-1.323-.442-2.232-.438-.91-1.188-1.377a3.1 3.1 0 0 0-1.671-.468q-.924 0-1.675.468-.746.466-1.188 1.377-.438.909-.438 2.232t.438 2.232q.442.91 1.188 1.377.75.468 1.675.468a3.1 3.1 0 0 0 1.671-.468q.75-.467 1.188-1.377.442-.909.442-2.232m6.409 5.091h-3.142v-10.182h3.281q1.482 0 2.535.612a4 4 0 0 1 1.616 1.745q.562 1.133.562 2.714 0 1.591-.567 2.74a4.04 4.04 0 0 1-1.65 1.759q-1.084.612-2.635.612m-1.909-1.094h1.829q1.263 0 2.093-.487a3 3 0 0 0 1.238-1.387q.408-.9.408-2.143 0-1.233-.403-2.123a2.97 2.97 0 0 0-1.203-1.372q-.8-.482-1.994-.482h-1.968zm17.42-3.997q0 1.611-.582 2.784-.58 1.174-1.596 1.81-1.014.636-2.316.636-1.303 0-2.317-.636-1.014-.637-1.596-1.81t-.582-2.784.582-2.784 1.596-1.81q1.014-.636 2.317-.636 1.302 0 2.316.636 1.016.637 1.596 1.81.582 1.173.582 2.784m-1.193 0q0-1.323-.443-2.232-.437-.91-1.188-1.377a3.1 3.1 0 0 0-1.67-.468q-.925 0-1.676.468-.746.466-1.188 1.377-.437.909-.437 2.232t.437 2.232q.442.91 1.188 1.377a3.1 3.1 0 0 0 1.676.468q.924 0 1.67-.468.751-.467 1.188-1.377.443-.909.443-2.232m7.621 5.091h-1.292l3.738-10.182h1.273l3.739 10.182h-1.293l-3.043-8.571h-.079zm.478-3.977h5.21v1.093h-5.21zm8.407 6.841v-10.5h1.133v1.213h.139q.13-.2.358-.507.234-.314.666-.557.438-.249 1.184-.249.964 0 1.7.482.735.483 1.148 1.368t.413 2.088q0 1.212-.413 2.103-.413.885-1.143 1.372-.73.482-1.685.482-.737 0-1.179-.244a2.2 2.2 0 0 1-.681-.561 8 8 0 0 1-.368-.527h-.099v4.037zm1.153-6.682q0 .865.253 1.526.254.657.741 1.029.488.368 1.193.368.736 0 1.228-.388a2.37 2.37 0 0 0 .746-1.054q.254-.666.254-1.481 0-.806-.249-1.452a2.24 2.24 0 0 0-.741-1.029q-.492-.383-1.238-.383-.715 0-1.203.363-.487.358-.735 1.004-.249.642-.249 1.497m7.378 6.682v-10.5h1.133v1.213h.139q.13-.2.358-.507a2.1 2.1 0 0 1 .667-.557q.437-.249 1.183-.249.965 0 1.7.482.737.483 1.149 1.368t.412 2.088q0 1.212-.412 2.103-.413.885-1.144 1.372-.73.482-1.685.482-.737 0-1.178-.244a2.2 2.2 0 0 1-.682-.561 8 8 0 0 1-.368-.527h-.099v4.037zm1.153-6.682q0 .865.254 1.526.254.657.74 1.029.488.368 1.194.368.736 0 1.228-.388.497-.393.745-1.054.254-.666.254-1.481 0-.806-.249-1.452a2.24 2.24 0 0 0-.74-1.029q-.493-.383-1.238-.383-.717 0-1.203.363-.488.358-.736 1.004-.249.642-.249 1.497"/><circle cx="278.5" cy="230.5" r="3.5" fill="#4CD729"/><path fill="#DEDEDE" d="M286.233 235.5v-10.182h3.44q1.194 0 1.959.408.766.402 1.134 1.109.368.705.368 1.605t-.368 1.596q-.369.696-1.129 1.094-.76.393-1.944.393h-2.784v-1.114h2.744q.815 0 1.313-.239.502-.238.726-.676.228-.442.228-1.054a2.4 2.4 0 0 0-.228-1.069 1.57 1.57 0 0 0-.731-.706q-.502-.253-1.327-.253h-2.168v9.088zm4.793-4.574 2.505 4.574h-1.432l-2.465-4.574zm8.815 1.452v-4.514h1.174v7.636h-1.174v-1.293h-.079a2.5 2.5 0 0 1-.835.99q-.567.402-1.432.402a2.55 2.55 0 0 1-1.273-.313 2.2 2.2 0 0 1-.875-.954q-.318-.642-.318-1.616v-4.852h1.173v4.772q0 .835.468 1.333.471.497 1.203.497.437 0 .89-.224.458-.224.765-.686.313-.462.313-1.178m4.496-1.472v4.594h-1.173v-7.636h1.133v1.193h.1q.268-.582.815-.935.547-.358 1.412-.358.775 0 1.357.318.582.313.905.955.323.636.323 1.611v4.852h-1.173v-4.773q0-.9-.467-1.402-.468-.507-1.283-.507-.562 0-1.004.244a1.74 1.74 0 0 0-.691.711q-.254.467-.254 1.133m8.189 0v4.594h-1.173v-7.636h1.134v1.193h.099q.269-.582.815-.935.548-.358 1.412-.358.776 0 1.358.318.581.313.904.955.324.636.324 1.611v4.852h-1.174v-4.773q0-.9-.467-1.402-.467-.507-1.283-.507-.561 0-1.004.244a1.74 1.74 0 0 0-.691.711q-.254.467-.254 1.133m7.017 4.594v-7.636h1.173v7.636zm.596-8.909a.83.83 0 0 1-.591-.234.75.75 0 0 1-.244-.562q0-.328.244-.561a.83.83 0 0 1 .591-.234q.343 0 .587.234a.74.74 0 0 1 .248.561.74.74 0 0 1-.248.562.82.82 0 0 1-.587.234m3.899 4.315v4.594h-1.173v-7.636h1.133v1.193h.1q.269-.582.815-.935.547-.358 1.412-.358.776 0 1.357.318.582.313.905.955.323.636.323 1.611v4.852h-1.173v-4.773q0-.9-.467-1.402-.467-.507-1.283-.507-.561 0-1.004.244a1.74 1.74 0 0 0-.691.711q-.254.467-.254 1.133m10.099 7.617q-.85 0-1.462-.219a3.1 3.1 0 0 1-1.019-.567 3 3 0 0 1-.641-.746l.934-.656q.16.21.403.477.243.274.666.473.428.204 1.119.204.924 0 1.526-.448.602-.447.602-1.402v-1.551h-.1a6 6 0 0 1-.368.517 2.1 2.1 0 0 1-.676.542q-.438.234-1.183.234-.925 0-1.661-.438-.73-.437-1.158-1.273-.423-.835-.423-2.028 0-1.173.413-2.043.413-.875 1.148-1.353.736-.482 1.701-.482.745 0 1.183.249.442.243.676.557.239.308.368.507h.119v-1.213h1.134v7.855q0 .984-.448 1.601a2.54 2.54 0 0 1-1.193.909 4.5 4.5 0 0 1-1.66.294m-.04-4.196q.706 0 1.193-.323.488-.324.741-.93t.253-1.452q0-.825-.248-1.457a2.2 2.2 0 0 0-.736-.989q-.488-.358-1.203-.358-.746 0-1.243.378-.492.378-.741 1.014a3.9 3.9 0 0 0-.243 1.412q0 .795.248 1.407.254.607.746.955.497.343 1.233.343"/><path fill="#000" d="M524 220.5a6 6 0 0 1 6-6h20a6 6 0 0 1 6 6v20a6 6 0 0 1-6 6h-20a6 6 0 0 1-6-6z"/><path stroke="#fff" stroke-linecap="round" stroke-linejoin="round" d="M540 231.167a.667.667 0 1 0-.001-1.335.667.667 0 0 0 .001 1.335M544.667 231.167a.667.667 0 1 0-.001-1.333.667.667 0 0 0 .001 1.333M535.333 231.167a.667.667 0 1 0 0-1.334.667.667 0 0 0 0 1.334"/><mask id="h" fill="#fff"><path d="M37 255h579v49H37z"/></mask><path fill="#27272A" d="M616 303H37v2h579z" mask="url(#h)"/><path fill="#27272A" stroke="#FAFAFA" d="M45.5 275.5A3.5 3.5 0 0 1 49 272h8a3.5 3.5 0 0 1 3.5 3.5v8A3.5 3.5 0 0 1 57 287h-8a3.5 3.5 0 0 1-3.5-3.5z"/><path fill="#DEDEDE" d="M108.193 277.5a3.6 3.6 0 0 0-.432-.9 2.8 2.8 0 0 0-.632-.686 2.6 2.6 0 0 0-.825-.432q-.462-.15-1.014-.15a3 3 0 0 0-1.646.468q-.74.466-1.178 1.377-.438.909-.438 2.232t.443 2.232 1.198 1.377a3.17 3.17 0 0 0 1.7.468q.875 0 1.542-.373a2.65 2.65 0 0 0 1.044-1.064q.377-.692.377-1.626l.378.08h-3.062v-1.094h3.878v1.094q0 1.258-.537 2.187a3.7 3.7 0 0 1-1.472 1.442q-.935.507-2.148.507-1.351 0-2.376-.636-1.02-.636-1.591-1.81-.567-1.173-.567-2.784 0-1.208.323-2.172a4.8 4.8 0 0 1 .925-1.651 4.04 4.04 0 0 1 1.412-1.044 4.4 4.4 0 0 1 1.795-.363q.805 0 1.501.244.701.239 1.248.681.552.437.92 1.049a4 4 0 0 1 .507 1.347zm6.487 7.159q-1.104 0-1.904-.487a3.27 3.27 0 0 1-1.228-1.372q-.428-.885-.428-2.059 0-1.173.428-2.068.432-.9 1.203-1.402.775-.507 1.81-.507.596 0 1.178.199.582.2 1.059.646.477.442.76 1.174.284.73.284 1.799v.498h-5.887v-1.015h4.694q0-.646-.259-1.153a1.94 1.94 0 0 0-.726-.8q-.467-.294-1.103-.294-.702 0-1.214.348a2.3 2.3 0 0 0-.78.895 2.6 2.6 0 0 0-.273 1.183v.676q0 .865.298 1.467.303.597.84.91.537.308 1.248.308.463 0 .835-.129.378-.134.651-.398.275-.269.423-.666l1.133.318a2.5 2.5 0 0 1-.601 1.014q-.423.433-1.044.676-.621.24-1.397.239m8.049 0q-1.034 0-1.815-.492a3.35 3.35 0 0 1-1.213-1.377q-.432-.885-.432-2.068 0-1.193.432-2.084a3.35 3.35 0 0 1 1.213-1.382q.78-.492 1.815-.492 1.033 0 1.81.492.78.493 1.213 1.382.437.89.437 2.084 0 1.183-.437 2.068a3.3 3.3 0 0 1-1.213 1.377q-.777.492-1.81.492m0-1.054q.785 0 1.292-.403a2.36 2.36 0 0 0 .751-1.059q.244-.656.244-1.421 0-.766-.244-1.427a2.4 2.4 0 0 0-.751-1.069q-.506-.408-1.292-.408t-1.293.408a2.4 2.4 0 0 0-.75 1.069 4.1 4.1 0 0 0-.244 1.427q0 .765.244 1.421.243.657.75 1.059.507.403 1.293.403m8.652-6.741v.994h-4.117v-.994zm-2.884 7.636v-8.69q0-.656.308-1.094.309-.438.801-.656a2.5 2.5 0 0 1 1.039-.219q.433 0 .706.07.273.069.408.129l-.339 1.014a5 5 0 0 0-.248-.075 1.6 1.6 0 0 0-.408-.044q-.582 0-.84.293-.254.294-.254.86v8.412zm7.316.159q-1.034 0-1.815-.492a3.35 3.35 0 0 1-1.213-1.377q-.432-.885-.432-2.068 0-1.193.432-2.084a3.35 3.35 0 0 1 1.213-1.382q.78-.492 1.815-.492 1.033 0 1.81.492.78.493 1.213 1.382.437.89.437 2.084 0 1.183-.437 2.068a3.3 3.3 0 0 1-1.213 1.377q-.777.492-1.81.492m0-1.054q.786 0 1.292-.403a2.36 2.36 0 0 0 .751-1.059q.244-.656.244-1.421 0-.766-.244-1.427a2.4 2.4 0 0 0-.751-1.069q-.506-.408-1.292-.408t-1.293.408a2.4 2.4 0 0 0-.75 1.069 4.1 4.1 0 0 0-.244 1.427q0 .765.244 1.421.243.657.75 1.059.507.403 1.293.403m5.251.895v-7.636h1.134v1.153h.079q.208-.566.756-.92a2.22 2.22 0 0 1 1.233-.353q.13 0 .323.005.194.006.293.015v1.193a4 4 0 0 0-.273-.044 2.6 2.6 0 0 0-.443-.035q-.556 0-.994.234a1.712 1.712 0 0 0-.935 1.556v4.832zm8.059 3.023q-.85 0-1.462-.219a3.1 3.1 0 0 1-1.019-.567 3.1 3.1 0 0 1-.641-.746l.935-.656q.159.21.402.477.245.274.666.473.427.204 1.119.204.925 0 1.526-.448.602-.447.602-1.402v-1.551h-.1a6 6 0 0 1-.367.517 2.1 2.1 0 0 1-.677.542q-.437.234-1.183.234-.924 0-1.66-.438-.732-.437-1.159-1.273-.422-.835-.422-2.028 0-1.173.412-2.043.412-.875 1.149-1.353.735-.482 1.7-.482.746 0 1.183.249.443.243.676.557.24.308.368.507h.12v-1.213h1.133v7.855q0 .984-.447 1.601a2.55 2.55 0 0 1-1.193.909 4.5 4.5 0 0 1-1.661.294m-.04-4.196q.707 0 1.193-.323.488-.324.741-.93.254-.606.254-1.452 0-.825-.249-1.457a2.2 2.2 0 0 0-.736-.989q-.486-.358-1.203-.358-.745 0-1.243.378-.492.378-.74 1.014a3.9 3.9 0 0 0-.244 1.412q0 .795.249 1.407.253.607.745.955.498.343 1.233.343m8.691 1.332q-1.104 0-1.905-.487a3.27 3.27 0 0 1-1.227-1.372q-.428-.885-.428-2.059 0-1.173.428-2.068.432-.9 1.203-1.402.775-.507 1.809-.507.597 0 1.179.199.58.2 1.059.646.477.442.76 1.174.284.73.284 1.799v.498h-5.887v-1.015h4.693q0-.646-.258-1.153a1.94 1.94 0 0 0-.726-.8q-.467-.294-1.104-.294-.7 0-1.213.348a2.3 2.3 0 0 0-.78.895 2.6 2.6 0 0 0-.274 1.183v.676q0 .865.299 1.467.303.597.84.91.537.308 1.248.308.462 0 .835-.129.378-.134.651-.398a1.8 1.8 0 0 0 .423-.666l1.133.318q-.179.577-.601 1.014-.423.433-1.044.676-.622.24-1.397.239m16.003-7.159a3.6 3.6 0 0 0-.432-.9 2.8 2.8 0 0 0-.632-.686 2.6 2.6 0 0 0-.825-.432q-.462-.15-1.014-.15a3 3 0 0 0-1.646.468q-.74.466-1.178 1.377-.438.909-.438 2.232t.443 2.232q.442.91 1.198 1.377a3.17 3.17 0 0 0 1.7.468q.876 0 1.541-.373a2.65 2.65 0 0 0 1.045-1.064q.377-.692.377-1.626l.378.08h-3.062v-1.094h3.878v1.094q0 1.258-.537 2.187a3.7 3.7 0 0 1-1.472 1.442q-.934.507-2.148.507-1.352 0-2.376-.636-1.02-.636-1.591-1.81-.567-1.173-.567-2.784 0-1.208.323-2.172a4.8 4.8 0 0 1 .925-1.651 4.04 4.04 0 0 1 1.412-1.044 4.4 4.4 0 0 1 1.795-.363q.805 0 1.501.244.701.239 1.248.681.552.437.92 1.049a4 4 0 0 1 .507 1.347zm5.532 7.179q-.726 0-1.317-.273a2.26 2.26 0 0 1-.94-.801q-.348-.526-.348-1.273 0-.656.259-1.064a1.8 1.8 0 0 1 .691-.646q.432-.234.954-.348.528-.119 1.059-.189.696-.089 1.129-.134.437-.05.636-.164.204-.114.204-.398v-.04q0-.735-.403-1.143-.398-.408-1.208-.408-.84 0-1.317.368t-.671.786l-1.114-.398q.299-.696.795-1.084.503-.393 1.094-.547a4.6 4.6 0 0 1 1.173-.159q.368 0 .846.09.482.084.929.353.453.269.751.81t.298 1.452v5.031h-1.173v-1.034h-.06a2 2 0 0 1-.397.532q-.279.284-.741.482-.462.2-1.129.199m.179-1.054q.696 0 1.174-.273a1.87 1.87 0 0 0 .974-1.616v-1.074q-.075.09-.328.164a6 6 0 0 1-.577.124q-.323.05-.631.09-.303.035-.492.059a4.6 4.6 0 0 0-.856.194 1.5 1.5 0 0 0-.636.393q-.239.259-.239.706 0 .612.453.925.458.308 1.158.308m5.463.875v-7.636h1.133v1.193h.1q.239-.611.77-.95.533-.343 1.278-.343.756 0 1.258.343.507.339.79.95h.08a2.2 2.2 0 0 1 .88-.94q.587-.353 1.407-.353 1.024 0 1.675.642.651.636.652 1.983v5.111H193.8v-5.111q0-.845-.462-1.208a1.7 1.7 0 0 0-1.089-.363q-.806 0-1.248.487-.442.483-.442 1.223v4.972h-1.193v-5.23q0-.651-.423-1.049-.423-.403-1.089-.403-.458 0-.855.244a1.83 1.83 0 0 0-.636.676 2 2 0 0 0-.239.989v4.773zm15.369.159q-1.103 0-1.904-.487a3.3 3.3 0 0 1-1.228-1.372q-.427-.885-.427-2.059 0-1.173.427-2.068.433-.9 1.204-1.402.776-.507 1.809-.507.597 0 1.178.199.582.2 1.059.646.478.442.761 1.174.283.73.283 1.799v.498h-5.886v-1.015h4.693q0-.646-.258-1.153a1.94 1.94 0 0 0-.726-.8q-.468-.294-1.104-.294-.701 0-1.213.348a2.3 2.3 0 0 0-.78.895 2.6 2.6 0 0 0-.274 1.183v.676q0 .865.298 1.467.304.597.841.91.537.308 1.247.308.463 0 .836-.129.378-.134.651-.398a1.8 1.8 0 0 0 .423-.666l1.133.318q-.179.577-.601 1.014-.423.433-1.044.676-.622.24-1.398.239"/><circle cx="278.5" cy="279.5" r="3.5" fill="red"/><path fill="#DEDEDE" d="M292.801 276.864a1.56 1.56 0 0 0-.726-1.174q-.636-.417-1.561-.417-.676 0-1.183.218a1.9 1.9 0 0 0-.786.602 1.45 1.45 0 0 0-.278.87q0 .408.194.701.2.288.507.482.309.19.646.314.339.119.622.193l1.034.279q.398.104.885.288.492.184.939.502.453.314.746.806.294.492.294 1.208 0 .825-.433 1.491-.428.666-1.253 1.059-.82.393-1.993.393-1.094 0-1.895-.353-.795-.352-1.252-.984a2.8 2.8 0 0 1-.513-1.467h1.273q.05.577.388.955a2.1 2.1 0 0 0 .865.556q.526.18 1.134.179.706 0 1.267-.228.562-.234.89-.647.328-.417.328-.974 0-.507-.283-.825a2.1 2.1 0 0 0-.746-.517 8 8 0 0 0-.999-.348l-1.253-.358q-1.193-.344-1.889-.98t-.696-1.665q0-.856.462-1.492a3.1 3.1 0 0 1 1.253-.994 4.2 4.2 0 0 1 1.765-.358q.985 0 1.75.353.765.348 1.213.955.453.606.477 1.377zm6.522 0v.994h-3.958v-.994zm-2.804-1.83h1.173v7.278q0 .498.144.746.15.244.378.328.234.08.492.08.194 0 .318-.02l.199-.04.239 1.054q-.12.045-.333.09a2.5 2.5 0 0 1-.542.049q-.497 0-.975-.213a1.94 1.94 0 0 1-.785-.652q-.308-.437-.308-1.103zm7.589 9.625q-1.034 0-1.815-.492a3.35 3.35 0 0 1-1.213-1.377q-.432-.885-.432-2.068 0-1.193.432-2.084a3.35 3.35 0 0 1 1.213-1.382q.78-.492 1.815-.492t1.809.492a3.3 3.3 0 0 1 1.214 1.382q.437.89.437 2.084 0 1.183-.437 2.068a3.3 3.3 0 0 1-1.214 1.377q-.776.492-1.809.492m0-1.054q.785 0 1.292-.403.507-.402.751-1.059t.244-1.421q0-.766-.244-1.427a2.4 2.4 0 0 0-.751-1.069q-.507-.408-1.292-.408-.786 0-1.293.408a2.4 2.4 0 0 0-.751 1.069 4.1 4.1 0 0 0-.243 1.427q0 .765.243 1.421.244.657.751 1.059.507.403 1.293.403m5.251 3.759v-10.5h1.134v1.213h.139q.129-.2.358-.507.233-.314.666-.557.438-.249 1.183-.249.965 0 1.7.482.736.483 1.149 1.368.412.885.412 2.088 0 1.212-.412 2.103-.412.885-1.144 1.372-.73.482-1.685.482-.736 0-1.178-.244a2.2 2.2 0 0 1-.681-.561 8 8 0 0 1-.368-.527h-.1v4.037zm1.153-6.682q0 .865.254 1.526.253.657.741 1.029.487.368 1.193.368.735 0 1.228-.388.497-.393.746-1.054.253-.666.253-1.481 0-.805-.248-1.452a2.25 2.25 0 0 0-.741-1.029q-.492-.383-1.238-.383-.715 0-1.203.363-.487.358-.736 1.004-.249.642-.249 1.497m7.378 6.682v-10.5h1.134v1.213h.139q.129-.2.358-.507.234-.314.666-.557.438-.249 1.183-.249.964 0 1.701.482.735.483 1.148 1.368t.413 2.088q0 1.212-.413 2.103-.412.885-1.143 1.372-.731.482-1.686.482-.735 0-1.178-.244a2.2 2.2 0 0 1-.681-.561 8 8 0 0 1-.368-.527h-.099v4.037zm1.154-6.682q0 .865.253 1.526.254.657.741 1.029.488.368 1.193.368.736 0 1.228-.388a2.37 2.37 0 0 0 .746-1.054q.253-.666.253-1.481 0-.805-.248-1.452a2.25 2.25 0 0 0-.741-1.029q-.492-.383-1.238-.383-.716 0-1.203.363-.487.358-.736 1.004-.248.642-.248 1.497m10.579 3.977q-1.103 0-1.904-.487a3.27 3.27 0 0 1-1.228-1.372q-.427-.885-.427-2.059 0-1.173.427-2.068.433-.9 1.203-1.402.776-.507 1.81-.507.596 0 1.178.199.582.2 1.059.646.477.442.761 1.174.283.73.283 1.799v.498h-5.886v-1.015h4.693q0-.646-.259-1.153a1.95 1.95 0 0 0-.725-.8q-.468-.294-1.104-.294-.701 0-1.213.348a2.3 2.3 0 0 0-.781.895 2.6 2.6 0 0 0-.273 1.183v.676q0 .865.298 1.467.303.597.84.91.537.308 1.248.308.462 0 .835-.129.378-.134.652-.398.273-.269.422-.666l1.134.318q-.179.577-.602 1.014a2.9 2.9 0 0 1-1.044.676q-.621.24-1.397.239m7.83 0q-.954 0-1.685-.482-.73-.487-1.143-1.372-.413-.891-.413-2.103 0-1.203.413-2.088t1.148-1.368 1.7-.482q.746 0 1.179.249.436.243.666.557.234.308.363.507h.099v-3.759h1.173V284.5h-1.133v-1.173h-.139a8 8 0 0 1-.368.527 2.2 2.2 0 0 1-.681.561q-.442.244-1.179.244m.16-1.054q.705 0 1.193-.368.487-.372.741-1.029.253-.661.253-1.526 0-.855-.249-1.497-.248-.646-.735-1.004-.488-.363-1.203-.363-.747 0-1.243.383a2.3 2.3 0 0 0-.741 1.029 4.1 4.1 0 0 0-.244 1.452q0 .815.249 1.481.253.661.746 1.054.496.388 1.233.388"/><path fill="#000" d="M524 269.5a6 6 0 0 1 6-6h20a6 6 0 0 1 6 6v20a6 6 0 0 1-6 6h-20a6 6 0 0 1-6-6z"/><path stroke="#fff" stroke-linecap="round" stroke-linejoin="round" d="M540 280.167a.667.667 0 1 0-.001-1.335.667.667 0 0 0 .001 1.335M544.667 280.167a.667.667 0 1 0-.001-1.333.667.667 0 0 0 .001 1.333M535.333 280.167a.667.667 0 1 0 0-1.334.667.667 0 0 0 0 1.334"/><path fill="#27272A" stroke="#FAFAFA" d="M45.5 324.5A3.5 3.5 0 0 1 49 321h8a3.5 3.5 0 0 1 3.5 3.5v8A3.5 3.5 0 0 1 57 336h-8a3.5 3.5 0 0 1-3.5-3.5z"/><path fill="#DEDEDE" d="M101.233 333.5v-10.182h3.44q1.199 0 1.959.433a2.7 2.7 0 0 1 1.134 1.158q.368.73.368 1.631 0 .9-.368 1.635a2.74 2.74 0 0 1-1.124 1.174q-.76.432-1.949.432h-2.466v-1.093h2.426q.82 0 1.318-.284a1.7 1.7 0 0 0 .721-.766q.228-.487.228-1.098a2.5 2.5 0 0 0-.228-1.094 1.64 1.64 0 0 0-.726-.756q-.502-.278-1.332-.278h-2.168v9.088zm11.748.159q-1.034 0-1.815-.492a3.35 3.35 0 0 1-1.213-1.377q-.432-.885-.432-2.068 0-1.193.432-2.084a3.35 3.35 0 0 1 1.213-1.382q.78-.492 1.815-.492t1.809.492a3.3 3.3 0 0 1 1.214 1.382q.437.89.437 2.084 0 1.183-.437 2.068a3.3 3.3 0 0 1-1.214 1.377q-.776.492-1.809.492m0-1.054q.785 0 1.292-.403a2.36 2.36 0 0 0 .751-1.059q.244-.656.244-1.421 0-.766-.244-1.427a2.4 2.4 0 0 0-.751-1.069q-.507-.408-1.292-.408-.786 0-1.293.408a2.4 2.4 0 0 0-.75 1.069 4.1 4.1 0 0 0-.244 1.427q0 .765.244 1.421.243.657.75 1.059.507.403 1.293.403m5.251.895v-7.636h1.134v1.153h.079q.208-.566.756-.92a2.22 2.22 0 0 1 1.233-.353q.13 0 .323.005.194.006.293.015v1.193a4 4 0 0 0-.273-.044 2.6 2.6 0 0 0-.443-.035q-.556 0-.994.234a1.712 1.712 0 0 0-.935 1.556v4.832zm9.009-7.636v.994h-3.958v-.994zm-2.804-1.83h1.173v7.278q0 .498.144.746.15.244.378.328.234.08.492.08.194 0 .318-.02l.199-.04.239 1.054q-.12.045-.333.09a2.5 2.5 0 0 1-.542.049q-.497 0-.975-.213a1.94 1.94 0 0 1-.785-.652q-.309-.437-.308-1.103zm7.688 9.625q-1.103 0-1.904-.487a3.27 3.27 0 0 1-1.228-1.372q-.427-.885-.427-2.059 0-1.173.427-2.068.432-.9 1.203-1.402.775-.507 1.81-.507.596 0 1.178.199.582.2 1.059.646.477.442.761 1.174.283.73.283 1.799v.498h-5.886v-1.015h4.693q0-.646-.259-1.153a1.95 1.95 0 0 0-.725-.8q-.468-.294-1.104-.294-.701 0-1.213.348a2.3 2.3 0 0 0-.781.895 2.6 2.6 0 0 0-.273 1.183v.676q0 .865.298 1.467.303.597.84.91.537.308 1.248.308.462 0 .835-.129.378-.134.652-.398.273-.269.422-.666l1.134.318a2.5 2.5 0 0 1-.602 1.014q-.422.433-1.044.676-.621.24-1.397.239m4.947-.159v-7.636h1.133v1.153h.08q.209-.566.756-.92a2.22 2.22 0 0 1 1.233-.353q.13 0 .323.005.194.006.293.015v1.193a4 4 0 0 0-.273-.044 2.6 2.6 0 0 0-.443-.035q-.556 0-.994.234a1.712 1.712 0 0 0-.935 1.556v4.832z"/><circle cx="278.5" cy="328.5" r="3.5" fill="red"/><path fill="#DEDEDE" d="M291.801 325.864a1.56 1.56 0 0 0-.726-1.174q-.636-.417-1.561-.417-.676 0-1.183.218a1.9 1.9 0 0 0-.786.602 1.45 1.45 0 0 0-.278.87q0 .408.194.701.2.288.507.482.309.19.646.314.339.119.622.193l1.034.279q.398.104.885.288.492.184.939.502.453.314.746.806.294.492.294 1.208 0 .825-.433 1.491-.428.666-1.253 1.059-.82.393-1.993.393-1.094 0-1.895-.353-.795-.352-1.252-.984a2.8 2.8 0 0 1-.513-1.467h1.273q.05.577.388.955a2.1 2.1 0 0 0 .865.556q.526.18 1.134.179.706 0 1.267-.228.562-.234.89-.647.328-.417.328-.974 0-.507-.283-.825a2.1 2.1 0 0 0-.746-.517 8 8 0 0 0-.999-.348l-1.253-.358q-1.193-.344-1.889-.98t-.696-1.665q0-.856.462-1.492a3.1 3.1 0 0 1 1.253-.994 4.2 4.2 0 0 1 1.765-.358q.985 0 1.75.353.765.348 1.213.955.453.606.477 1.377zm6.522 0v.994h-3.958v-.994zm-2.804-1.83h1.173v7.278q0 .498.144.746.15.244.378.328.234.08.492.08.194 0 .318-.02l.199-.04.239 1.054q-.12.045-.333.09a2.5 2.5 0 0 1-.542.049q-.497 0-.975-.213a1.94 1.94 0 0 1-.785-.652q-.308-.437-.308-1.103zm7.589 9.625q-1.034 0-1.815-.492a3.35 3.35 0 0 1-1.213-1.377q-.432-.885-.432-2.068 0-1.193.432-2.084a3.35 3.35 0 0 1 1.213-1.382q.78-.492 1.815-.492t1.809.492a3.3 3.3 0 0 1 1.214 1.382q.437.89.437 2.084 0 1.183-.437 2.068a3.3 3.3 0 0 1-1.214 1.377q-.776.492-1.809.492m0-1.054q.785 0 1.292-.403.507-.402.751-1.059t.244-1.421q0-.766-.244-1.427a2.4 2.4 0 0 0-.751-1.069q-.507-.408-1.292-.408-.786 0-1.293.408a2.4 2.4 0 0 0-.751 1.069 4.1 4.1 0 0 0-.243 1.427q0 .765.243 1.421.244.657.751 1.059.507.403 1.293.403m5.251 3.759v-10.5h1.134v1.213h.139q.129-.2.358-.507.233-.314.666-.557.438-.249 1.183-.249.965 0 1.7.482.736.483 1.149 1.368.412.885.412 2.088 0 1.212-.412 2.103-.412.885-1.144 1.372-.73.482-1.685.482-.736 0-1.178-.244a2.2 2.2 0 0 1-.681-.561 8 8 0 0 1-.368-.527h-.1v4.037zm1.153-6.682q0 .865.254 1.526.253.657.741 1.029.487.368 1.193.368.735 0 1.228-.388.497-.393.746-1.054.253-.666.253-1.481 0-.805-.248-1.452a2.25 2.25 0 0 0-.741-1.029q-.492-.383-1.238-.383-.715 0-1.203.363-.487.358-.736 1.004-.249.642-.249 1.497m7.378 6.682v-10.5h1.134v1.213h.139q.129-.2.358-.507.234-.314.666-.557.438-.249 1.183-.249.964 0 1.701.482.735.483 1.148 1.368t.413 2.088q0 1.212-.413 2.103-.412.885-1.143 1.372-.731.482-1.686.482-.735 0-1.178-.244a2.2 2.2 0 0 1-.681-.561 8 8 0 0 1-.368-.527h-.099v4.037zm1.154-6.682q0 .865.253 1.526.254.657.741 1.029.488.368 1.193.368.736 0 1.228-.388a2.37 2.37 0 0 0 .746-1.054q.253-.666.253-1.481 0-.805-.248-1.452a2.25 2.25 0 0 0-.741-1.029q-.492-.383-1.238-.383-.716 0-1.203.363-.487.358-.736 1.004-.248.642-.248 1.497m10.579 3.977q-1.103 0-1.904-.487a3.27 3.27 0 0 1-1.228-1.372q-.427-.885-.427-2.059 0-1.173.427-2.068.433-.9 1.203-1.402.776-.507 1.81-.507.596 0 1.178.199.582.2 1.059.646.477.442.761 1.174.283.73.283 1.799v.498h-5.886v-1.015h4.693q0-.646-.259-1.153a1.95 1.95 0 0 0-.725-.8q-.468-.294-1.104-.294-.701 0-1.213.348a2.3 2.3 0 0 0-.781.895 2.6 2.6 0 0 0-.273 1.183v.676q0 .865.298 1.467.303.597.84.91.537.308 1.248.308.462 0 .835-.129.378-.134.652-.398.273-.269.422-.666l1.134.318q-.179.577-.602 1.014a2.9 2.9 0 0 1-1.044.676q-.621.24-1.397.239m7.83 0q-.954 0-1.685-.482-.73-.487-1.143-1.372-.413-.891-.413-2.103 0-1.203.413-2.088t1.148-1.368 1.7-.482q.746 0 1.179.249.436.243.666.557.234.308.363.507h.099v-3.759h1.173V333.5h-1.133v-1.173h-.139a8 8 0 0 1-.368.527 2.2 2.2 0 0 1-.681.561q-.442.244-1.179.244m.16-1.054q.705 0 1.193-.368.487-.372.741-1.029.253-.661.253-1.526 0-.855-.249-1.497-.248-.646-.735-1.004-.488-.363-1.203-.363-.747 0-1.243.383a2.3 2.3 0 0 0-.741 1.029 4.1 4.1 0 0 0-.244 1.452q0 .815.249 1.481.253.661.746 1.054.496.388 1.233.388"/><path fill="#000" d="M524 318.5a6 6 0 0 1 6-6h20a6 6 0 0 1 6 6v20a6 6 0 0 1-6 6h-20a6 6 0 0 1-6-6z"/><path stroke="#fff" stroke-linecap="round" stroke-linejoin="round" d="M540 329.167a.667.667 0 1 0-.001-1.335.667.667 0 0 0 .001 1.335M544.667 329.167a.667.667 0 1 0-.001-1.333.667.667 0 0 0 .001 1.333M535.333 329.167a.667.667 0 1 0 0-1.334.667.667 0 0 0 0 1.334"/><path fill="#FAFAFA" d="M26.375 488.139q-1.124 0-1.914-.611-.79-.616-1.208-1.785-.418-1.173-.418-2.834 0-1.65.418-2.819.423-1.173 1.213-1.79.796-.621 1.909-.621t1.904.621q.795.617 1.213 1.79.423 1.169.423 2.819 0 1.66-.418 2.834-.416 1.169-1.208 1.785-.79.61-1.914.611m0-1.094q1.114 0 1.73-1.073.617-1.074.617-3.063 0-1.322-.284-2.252-.278-.93-.805-1.417a1.78 1.78 0 0 0-1.258-.487q-1.103 0-1.725 1.089-.622 1.084-.622 3.067 0 1.323.279 2.247.278.925.8 1.407a1.8 1.8 0 0 0 1.268.482m12.489 1.114q-1.035 0-1.815-.492a3.34 3.34 0 0 1-1.213-1.377q-.432-.885-.433-2.068 0-1.193.433-2.084a3.35 3.35 0 0 1 1.213-1.382q.78-.492 1.815-.492 1.033 0 1.81.492.78.493 1.212 1.382.438.89.438 2.084 0 1.183-.438 2.068a3.3 3.3 0 0 1-1.213 1.377q-.775.492-1.81.492m0-1.054q.785 0 1.292-.403.507-.402.751-1.059a4 4 0 0 0 .244-1.421q0-.766-.244-1.427a2.4 2.4 0 0 0-.75-1.069q-.509-.408-1.293-.408-.786 0-1.293.408a2.4 2.4 0 0 0-.75 1.069 4.1 4.1 0 0 0-.244 1.427q0 .765.243 1.421.244.657.751 1.059.507.403 1.293.403m8.651-6.741v.994H43.4v-.994zM44.632 488v-8.69q0-.656.308-1.094.31-.438.8-.656a2.5 2.5 0 0 1 1.04-.219q.432 0 .706.07.273.069.407.129l-.338 1.014a6 6 0 0 0-.248-.075 1.6 1.6 0 0 0-.408-.044q-.582 0-.84.293-.255.294-.254.86V488zm11.627.139a3.5 3.5 0 0 1-1.576-.348 2.9 2.9 0 0 1-1.123-.954 2.6 2.6 0 0 1-.463-1.382h1.194q.07.69.626 1.143.562.447 1.342.447.628 0 1.114-.293.492-.293.77-.805.284-.517.284-1.169 0-.666-.294-1.188a2.15 2.15 0 0 0-.795-.83 2.25 2.25 0 0 0-1.158-.308 3.1 3.1 0 0 0-.96.144q-.492.144-.81.373l-1.154-.139.617-5.012h5.29v1.094h-4.256l-.358 3.003h.06q.313-.248.785-.413t.985-.164q.934 0 1.665.448.736.441 1.153 1.213.423.77.423 1.76 0 .974-.437 1.74a3.2 3.2 0 0 1-1.194 1.203q-.76.437-1.73.437m9.293-.139v-7.636h1.134v1.153h.08q.208-.567.755-.92a2.23 2.23 0 0 1 1.233-.353q.13 0 .323.005.194.006.294.015v1.193a4 4 0 0 0-.274-.044 2.6 2.6 0 0 0-.442-.035q-.558 0-.995.234a1.713 1.713 0 0 0-.935 1.556V488zm8.08.159q-1.035 0-1.815-.492a3.34 3.34 0 0 1-1.213-1.377q-.433-.885-.433-2.068 0-1.193.432-2.084a3.34 3.34 0 0 1 1.214-1.382q.78-.492 1.814-.492t1.81.492q.78.493 1.213 1.382.438.89.437 2.084 0 1.183-.437 2.068a3.3 3.3 0 0 1-1.213 1.377q-.775.492-1.81.492m0-1.054q.785 0 1.292-.403.507-.402.75-1.059a4 4 0 0 0 .244-1.421q0-.766-.244-1.427a2.4 2.4 0 0 0-.75-1.069q-.508-.408-1.293-.408t-1.292.408a2.4 2.4 0 0 0-.751 1.069 4.1 4.1 0 0 0-.244 1.427q0 .765.244 1.421.244.657.75 1.059.508.403 1.293.403m6.72.895-2.326-7.636h1.233l1.65 5.846h.08l1.63-5.846h1.254l1.61 5.826h.08l1.65-5.826h1.234L86.12 488h-1.154l-1.67-5.866h-.12L81.507 488zm10.063-4.295q0-1.88.487-3.456a10.8 10.8 0 0 1 1.403-2.908h1.034a6.4 6.4 0 0 0-.672 1.213 12 12 0 0 0-.541 1.576q-.234.855-.368 1.77-.13.915-.13 1.805 0 1.183.23 2.401.227 1.218.615 2.262.389 1.044.866 1.7h-1.034a10.8 10.8 0 0 1-1.403-2.903q-.487-1.581-.487-3.46m10.064-1.631-1.054.298a2 2 0 0 0-.293-.512 1.4 1.4 0 0 0-.517-.418q-.33-.164-.84-.164-.702 0-1.169.324-.462.318-.462.81 0 .438.318.691.319.253.994.423l1.134.278q1.024.248 1.526.761.502.507.502 1.307 0 .657-.378 1.173-.372.517-1.044.816-.67.298-1.56.298-1.17 0-1.935-.507t-.97-1.482l1.115-.278q.159.616.601.925.448.308 1.168.308.821 0 1.303-.348.487-.353.487-.845a.89.89 0 0 0-.278-.666q-.278-.275-.855-.408l-1.273-.298q-1.05-.249-1.541-.771-.487-.527-.487-1.317 0-.646.362-1.144a2.5 2.5 0 0 1 1-.78 3.5 3.5 0 0 1 1.442-.284q1.133 0 1.78.497.65.498.924 1.313m4.411 1.631q0 1.879-.492 3.46a10.7 10.7 0 0 1-1.397 2.903h-1.034a6.3 6.3 0 0 0 .666-1.213q.313-.716.547-1.571a14 14 0 0 0 .363-1.775q.134-.92.134-1.804 0-1.184-.229-2.402a14 14 0 0 0-.616-2.262q-.388-1.044-.865-1.7h1.034a10.7 10.7 0 0 1 1.397 2.908q.492 1.577.492 3.456m11.913-1.631-1.054.298a2 2 0 0 0-.293-.512 1.4 1.4 0 0 0-.517-.418q-.328-.164-.84-.164-.701 0-1.169.324-.462.318-.462.81 0 .438.318.691t.995.423l1.133.278q1.025.248 1.526.761.502.507.502 1.307 0 .657-.377 1.173-.374.517-1.044.816-.672.298-1.561.298-1.169 0-1.934-.507-.766-.507-.97-1.482l1.114-.278q.159.616.601.925.448.308 1.169.308.82 0 1.302-.348.487-.353.487-.845a.89.89 0 0 0-.278-.666q-.279-.275-.855-.408l-1.273-.298q-1.049-.249-1.541-.771-.487-.527-.487-1.317 0-.646.363-1.144a2.47 2.47 0 0 1 .999-.78 3.5 3.5 0 0 1 1.442-.284q1.133 0 1.78.497.651.498.924 1.313m5.107 6.085q-1.103 0-1.904-.487a3.3 3.3 0 0 1-1.228-1.372q-.427-.885-.427-2.059 0-1.173.427-2.068.433-.9 1.203-1.402.776-.507 1.81-.507.597 0 1.178.199.582.2 1.059.646.477.442.761 1.174.283.73.283 1.799v.498h-5.886v-1.015h4.693q0-.646-.258-1.153a1.94 1.94 0 0 0-.726-.8q-.468-.294-1.104-.294-.701 0-1.213.348a2.3 2.3 0 0 0-.781.895 2.6 2.6 0 0 0-.273 1.183v.676q0 .865.298 1.467.304.597.84.91.537.308 1.248.308.463 0 .836-.129.377-.134.651-.398.273-.268.422-.666l1.134.318q-.179.577-.602 1.014a2.9 2.9 0 0 1-1.044.676q-.621.24-1.397.239m6.12-10.341V488h-1.173v-10.182zm5.351 10.341q-1.103 0-1.904-.487a3.27 3.27 0 0 1-1.228-1.372q-.428-.885-.428-2.059 0-1.173.428-2.068.432-.9 1.203-1.402.775-.507 1.81-.507.596 0 1.178.199.582.2 1.059.646.477.442.761 1.174.283.73.283 1.799v.498h-5.886v-1.015h4.693q0-.646-.259-1.153a1.94 1.94 0 0 0-.726-.8q-.467-.294-1.103-.294-.702 0-1.213.348a2.3 2.3 0 0 0-.781.895 2.6 2.6 0 0 0-.273 1.183v.676q0 .865.298 1.467.303.597.84.91.537.308 1.248.308.463 0 .835-.129.378-.134.652-.398.273-.268.422-.666l1.134.318a2.5 2.5 0 0 1-.602 1.014q-.423.433-1.044.676-.621.24-1.397.239m8.049 0q-1.074 0-1.849-.507a3.3 3.3 0 0 1-1.194-1.397q-.417-.89-.417-2.033 0-1.163.427-2.054a3.4 3.4 0 0 1 1.203-1.397q.777-.507 1.81-.507.805 0 1.452.298.647.299 1.059.836a2.6 2.6 0 0 1 .512 1.253h-1.173a1.82 1.82 0 0 0-.597-.925q-.458-.408-1.233-.408a2.06 2.06 0 0 0-1.203.358q-.512.353-.801.999-.282.642-.283 1.507 0 .885.279 1.541.283.656.795 1.019.517.363 1.213.363.458 0 .83-.159.373-.159.632-.457.258-.299.368-.716h1.173a2.7 2.7 0 0 1-.492 1.218 2.76 2.76 0 0 1-1.029.855q-.638.313-1.482.313m8.039-7.795v.994h-3.957v-.994zm-2.804-1.83h1.173v7.278q0 .498.145.746a.74.74 0 0 0 .377.328q.234.08.493.08.194 0 .318-.02l.199-.04.238 1.054q-.118.045-.333.09a2.5 2.5 0 0 1-.542.049q-.497 0-.974-.213a1.94 1.94 0 0 1-.786-.652q-.308-.437-.308-1.103zm7.689 9.625q-1.104 0-1.904-.487a3.27 3.27 0 0 1-1.228-1.372q-.428-.885-.428-2.059 0-1.173.428-2.068.432-.9 1.203-1.402.776-.507 1.809-.507.597 0 1.179.199.58.2 1.059.646.477.442.76 1.174.284.73.284 1.799v.498h-5.887v-1.015h4.693q0-.646-.258-1.153a1.94 1.94 0 0 0-.726-.8q-.467-.294-1.104-.294-.7 0-1.213.348a2.3 2.3 0 0 0-.78.895 2.6 2.6 0 0 0-.274 1.183v.676q0 .865.299 1.467.303.597.84.91.537.308 1.248.308.462 0 .835-.129.378-.134.651-.398a1.8 1.8 0 0 0 .423-.666l1.133.318q-.179.577-.601 1.014-.423.433-1.044.676-.622.24-1.397.239m7.83 0q-.954 0-1.685-.482-.732-.487-1.144-1.372-.413-.891-.413-2.103 0-1.203.413-2.088.412-.885 1.149-1.368.735-.482 1.7-.482.746 0 1.178.249.438.243.666.557.234.308.363.507h.1v-3.759h1.173V488h-1.134v-1.173h-.139a8 8 0 0 1-.368.527 2.2 2.2 0 0 1-.681.561q-.443.244-1.178.244m.159-1.054q.706 0 1.193-.368.488-.372.741-1.029.254-.661.254-1.526 0-.855-.249-1.497-.249-.646-.736-1.004-.488-.363-1.203-.363-.745 0-1.243.383a2.3 2.3 0 0 0-.741 1.029 4.1 4.1 0 0 0-.243 1.452q0 .815.248 1.481.254.661.746 1.054.498.388 1.233.388m6.508.975a.86.86 0 0 1-.632-.264.86.86 0 0 1-.263-.631q0-.368.263-.632a.87.87 0 0 1 .632-.263q.368 0 .631.263a.86.86 0 0 1 .264.632.84.84 0 0 1-.125.447.9.9 0 0 1-.323.328.85.85 0 0 1-.447.12"/><g filter="url(#i)" opacity="0.5"><path fill="#09090B" d="M501 473a6 6 0 0 1 6-6h62a6 6 0 0 1 6 6v20a6 6 0 0 1-6 6h-62a6 6 0 0 1-6-6z" shape-rendering="crispEdges"/><path stroke="#18181A" d="M507 467.5h62a5.5 5.5 0 0 1 5.5 5.5v20a5.5 5.5 0 0 1-5.5 5.5h-62a5.5 5.5 0 0 1-5.5-5.5v-20a5.5 5.5 0 0 1 5.5-5.5Z" shape-rendering="crispEdges"/><path fill="#747475" d="M513.959 487v-8.727h3.111q1.018 0 1.687.37.669.372 1.002 1.015.332.639.332 1.44 0 .805-.337 1.449a2.44 2.44 0 0 1-1.005 1.014q-.67.37-1.684.371h-2.139v-1.117h2.02q.644 0 1.044-.221.4-.226.588-.614.188-.387.188-.882t-.188-.878a1.34 1.34 0 0 0-.592-.601q-.401-.217-1.057-.217h-1.653V487zm7.573 0v-6.545h1.232v1.039h.068q.179-.528.631-.831a1.8 1.8 0 0 1 1.031-.306 5 5 0 0 1 .541.029v1.219a2 2 0 0 0-.273-.047q-.195-.03-.392-.03a1.66 1.66 0 0 0-.805.192 1.43 1.43 0 0 0-.759 1.283V487zm7.192.132q-.966 0-1.666-.413a2.8 2.8 0 0 1-1.074-1.172q-.375-.759-.375-1.777 0-1.006.375-1.773.38-.767 1.057-1.197.682-.43 1.594-.431.553 0 1.074.184.519.183.933.575t.652 1.018q.239.622.239 1.513v.452h-5.203v-.955h3.954q0-.503-.204-.89a1.55 1.55 0 0 0-.576-.618 1.6 1.6 0 0 0-.861-.226q-.536 0-.937.264a1.8 1.8 0 0 0-.614.682 2 2 0 0 0-.213.908v.745q0 .657.23 1.117.235.46.652.703.418.239.976.239.363 0 .661-.103.298-.106.515-.315a1.4 1.4 0 0 0 .333-.516l1.206.218q-.145.532-.52.933-.37.396-.933.618a3.5 3.5 0 0 1-1.275.217m9.634-6.677L535.985 487h-1.364l-2.378-6.545h1.368l1.658 5.036h.068l1.653-5.036zm1.198 6.545v-6.545h1.274V487zm.643-7.555a.8.8 0 0 1-.571-.222.72.72 0 0 1-.234-.537q0-.315.234-.537a.8.8 0 0 1 .571-.226q.333 0 .567.226a.7.7 0 0 1 .239.537q0 .31-.239.537a.8.8 0 0 1-.567.222m5.102 7.687q-.92 0-1.606-.422a2.84 2.84 0 0 1-1.066-1.18q-.38-.759-.379-1.773 0-1.019.379-1.781a2.83 2.83 0 0 1 1.066-1.185q.686-.422 1.606-.422t1.607.422q.685.421 1.065 1.185.38.762.379 1.781 0 1.014-.379 1.773a2.84 2.84 0 0 1-1.065 1.18q-.687.422-1.607.422m.004-1.07q.597 0 .989-.315t.58-.839q.19-.525.191-1.155 0-.627-.191-1.151a1.9 1.9 0 0 0-.58-.848q-.392-.32-.989-.319-.6 0-.997.319a1.9 1.9 0 0 0-.584.848q-.187.524-.187 1.151 0 .63.187 1.155.192.524.584.839.396.315.997.315m8.616-1.776v-3.831h1.278V487h-1.253v-1.134h-.068q-.226.525-.724.874-.495.345-1.232.345a2.2 2.2 0 0 1-1.116-.277 1.94 1.94 0 0 1-.759-.831q-.273-.549-.272-1.359v-4.163h1.274v4.009q0 .67.37 1.066.372.396.963.396.358 0 .712-.179.358-.179.592-.541.24-.362.235-.92m7.895-2.233-1.155.204a1.4 1.4 0 0 0-.23-.422 1.1 1.1 0 0 0-.418-.328 1.5 1.5 0 0 0-.66-.128q-.541 0-.903.243-.363.238-.363.618a.65.65 0 0 0 .243.528q.244.2.784.329l1.04.238q.903.209 1.347.644.443.434.443 1.129 0 .588-.341 1.048-.336.456-.942.716-.6.26-1.393.26-1.1 0-1.794-.469-.694-.472-.853-1.342l1.232-.187q.115.481.473.728.359.243.933.243.627 0 1.002-.26.375-.264.375-.643a.67.67 0 0 0-.23-.516q-.227-.209-.695-.315l-1.108-.243q-.917-.209-1.355-.665-.435-.456-.435-1.155 0-.579.324-1.014t.895-.678a3.3 3.3 0 0 1 1.308-.247q1.061 0 1.671.461.609.455.805 1.223"/></g><g filter="url(#j)" opacity="0.5"><path fill="#09090B" d="M591 473a6 6 0 0 1 6-6h39a6 6 0 0 1 6 6v20a6 6 0 0 1-6 6h-39a6 6 0 0 1-6-6z" shape-rendering="crispEdges"/><path stroke="#18181A" d="M597 467.5h39a5.5 5.5 0 0 1 5.5 5.5v20a5.5 5.5 0 0 1-5.5 5.5h-39a5.5 5.5 0 0 1-5.5-5.5v-20a5.5 5.5 0 0 1 5.5-5.5Z" shape-rendering="crispEdges"/><path fill="#747475" d="M611.003 478.273V487h-1.21l-4.436-6.401h-.081V487h-1.317v-8.727h1.219l4.44 6.409h.081v-6.409zm4.639 8.859q-.966 0-1.666-.413a2.8 2.8 0 0 1-1.074-1.172q-.375-.759-.375-1.777 0-1.006.375-1.773.38-.767 1.057-1.197.682-.43 1.594-.431.554 0 1.074.184.519.183.933.575t.652 1.018q.239.622.239 1.513v.452h-5.203v-.955h3.954q0-.503-.204-.89a1.55 1.55 0 0 0-.576-.618 1.6 1.6 0 0 0-.861-.226q-.537 0-.937.264a1.8 1.8 0 0 0-.614.682 2 2 0 0 0-.213.908v.745q0 .657.23 1.117.235.46.652.703.418.239.976.239.363 0 .661-.103.298-.106.515-.315a1.4 1.4 0 0 0 .333-.516l1.206.218q-.145.532-.52.933-.37.396-.933.618a3.5 3.5 0 0 1-1.275.217m5.076-6.677 1.444 2.548 1.458-2.548h1.393l-2.041 3.272L625.03 487h-1.393l-1.475-2.446-1.47 2.446h-1.398l2.037-3.273-2.011-3.272zm8.659 0v1.022h-3.576v-1.022zm-2.617-1.569h1.274v6.192q0 .37.111.558a.58.58 0 0 0 .286.252q.178.064.388.064.153 0 .268-.022l.179-.034.23 1.053a2.534 2.534 0 0 1-.827.136 2.2 2.2 0 0 1-.937-.179 1.6 1.6 0 0 1-.703-.579q-.269-.393-.269-.985z"/></g><defs><filter id="a" width="324" height="40" x="15" y="15" color-interpolation-filters="sRGB" filterUnits="userSpaceOnUse"><feFlood flood-opacity="0" result="BackgroundImageFix"/><feColorMatrix in="SourceAlpha" result="hardAlpha" values="0 0 0 0 0 0 0 0 0 0 0 0 0 0 0 0 0 0 127 0"/><feOffset dy="1"/><feGaussianBlur stdDeviation="1"/><feComposite in2="hardAlpha" operator="out"/><feColorMatrix values="0 0 0 0 0 0 0 0 0 0 0 0 0 0 0 0 0 0 0.05 0"/><feBlend in2="BackgroundImageFix" result="effect1_dropShadow_3505_2968"/><feBlend in="SourceGraphic" in2="effect1_dropShadow_3505_2968" result="shape"/></filter><filter id="b" width="121" height="40" x="526" y="15" color-interpolation-filters="sRGB" filterUnits="userSpaceOnUse"><feFlood flood-opacity="0" result="BackgroundImageFix"/><feColorMatrix in="SourceAlpha" result="hardAlpha" values="0 0 0 0 0 0 0 0 0 0 0 0 0 0 0 0 0 0 127 0"/><feOffset dy="1"/><feGaussianBlur stdDeviation="1"/><feComposite in2="hardAlpha" operator="out"/><feColorMatrix values="0 0 0 0 0 0 0 0 0 0 0 0 0 0 0 0 0 0 0.05 0"/><feBlend in2="BackgroundImageFix" result="effect1_dropShadow_3505_2968"/><feBlend in="SourceGraphic" in2="effect1_dropShadow_3505_2968" result="shape"/></filter><filter id="i" width="78" height="36" x="499" y="466" color-interpolation-filters="sRGB" filterUnits="userSpaceOnUse"><feFlood flood-opacity="0" result="BackgroundImageFix"/><feColorMatrix in="SourceAlpha" result="hardAlpha" values="0 0 0 0 0 0 0 0 0 0 0 0 0 0 0 0 0 0 127 0"/><feOffset dy="1"/><feGaussianBlur stdDeviation="1"/><feComposite in2="hardAlpha" operator="out"/><feColorMatrix values="0 0 0 0 0 0 0 0 0 0 0 0 0 0 0 0 0 0 0.05 0"/><feBlend in2="BackgroundImageFix" result="effect1_dropShadow_3505_2968"/><feBlend in="SourceGraphic" in2="effect1_dropShadow_3505_2968" result="shape"/></filter><filter id="j" width="55" height="36" x="589" y="466" color-interpolation-filters="sRGB" filterUnits="userSpaceOnUse"><feFlood flood-opacity="0" result="BackgroundImageFix"/><feColorMatrix in="SourceAlpha" result="hardAlpha" values="0 0 0 0 0 0 0 0 0 0 0 0 0 0 0 0 0 0 127 0"/><feOffset dy="1"/><feGaussianBlur stdDeviation="1"/><feComposite in2="hardAlpha" operator="out"/><feColorMatrix values="0 0 0 0 0 0 0 0 0 0 0 0 0 0 0 0 0 0 0.05 0"/><feBlend in2="BackgroundImageFix" result="effect1_dropShadow_3505_2968"/><feBlend in="SourceGraphic" in2="effect1_dropShadow_3505_2968" result="shape"/></filter></defs></svg>