<svg xmlns="http://www.w3.org/2000/svg" width="2152" height="1524" viewBox="0 0 2152 1524" fill="none">
<rect width="2152" height="1524" rx="85" fill="#09090B"/>
<path d="M280.892 161.309C196.053 161.309 201.351 198.1 201.351 198.1L201.446 236.215H282.405V247.66H169.289C169.289 247.66 115 241.503 115 327.106C115 412.71 162.384 409.674 162.384 409.674H190.663V369.951C190.663 369.951 189.139 322.566 237.291 322.566H317.589C317.589 322.566 362.703 323.296 362.703 278.965V205.666C362.703 205.666 369.553 161.309 280.892 161.309ZM236.251 186.94C244.306 186.94 250.816 193.45 250.816 201.505C250.816 209.56 244.306 216.07 236.251 216.07C228.196 216.07 221.685 209.56 221.685 201.505C221.685 193.45 228.196 186.94 236.251 186.94Z" fill="url(#paint0_linear_4_2)"/>
<path d="M283.302 493.762C368.141 493.762 362.843 456.971 362.843 456.971L362.748 418.855H281.788V407.411H394.905C394.905 407.411 449.194 413.568 449.194 327.964C449.194 242.361 401.81 245.397 401.81 245.397H373.53V285.12C373.53 285.12 375.055 332.504 326.903 332.504H246.605C246.605 332.504 201.491 331.775 201.491 376.105V449.404C201.491 449.404 194.641 493.762 283.302 493.762ZM327.943 468.131C319.888 468.131 313.378 461.621 313.378 453.566C313.378 445.511 319.888 439.001 327.943 439.001C335.998 439.001 342.508 445.511 342.508 453.566C342.508 461.621 335.998 468.131 327.943 468.131Z" fill="url(#paint1_linear_4_2)"/>
<path d="M606.987 341.352C607.448 351.251 616.946 346.637 621.187 343.562C625.244 340.583 626.443 343.082 626.812 337.315C627.088 333.471 627.457 329.723 627.273 325.879C621.095 325.302 614.456 326.84 609.385 330.684C606.711 332.606 601.916 338.949 606.987 341.352Z" fill="#F6D2A2"/>
<path d="M796.288 463.022C803.572 467.731 816.942 481.954 805.97 488.874C795.458 498.869 789.557 477.822 780.336 474.939C784.301 469.268 789.28 464.079 796.288 463.022Z" fill="#F6D2A2"/>
<path d="M665.908 479.071C657.332 480.417 652.538 488.49 645.345 492.622C638.614 496.755 636.033 491.277 635.479 490.123C634.465 489.643 634.557 490.604 632.897 488.874C626.627 478.591 639.352 471.095 645.991 466.001C655.212 464.079 661.021 472.44 665.908 479.071Z" fill="#F6D2A2"/>
<path d="M836.767 340.102C836.305 350.001 826.808 345.388 822.567 342.313C818.51 339.333 817.311 341.832 816.942 336.066C816.665 332.222 816.297 328.473 816.481 324.629C822.659 324.053 829.298 325.59 834.369 329.435C836.951 331.357 841.838 337.7 836.767 340.102Z" fill="#F6D2A2"/>
<path d="M811.594 219.393C844.512 207.284 818.786 160.288 790.11 181.047C771.3 164.229 745.39 161.153 718.189 161.153C691.541 163.364 666.184 168.457 648.48 184.603C619.896 165.382 593.525 211.513 627.088 223.142C617.683 261.199 628.379 300.026 626.904 338.757C625.521 373.547 616.761 420.158 635.295 451.393C651.062 478.11 684.994 487.625 712.933 488.682C748.617 490.027 791.862 480.897 809.197 444.858C825.794 410.548 821.184 367.781 819.063 330.78C816.942 293.395 820.907 255.433 811.594 219.393Z" fill="#69D7E2"/>
<path d="M839.256 334.24C838.334 332.222 836.582 329.915 834.923 328.666C830.681 325.494 825.241 323.764 819.616 323.572C819.432 317.614 819.247 311.078 819.247 302.813V295.317C819.155 271.675 818.879 261.296 817.588 248.321C816.573 238.134 815.006 228.716 812.793 219.874C820.262 216.895 825.149 211.993 827.085 205.65C828.929 199.788 828.007 193.157 824.872 187.294C821.645 181.528 816.481 177.203 810.488 175.473C804.033 173.647 797.026 174.993 790.294 179.702C784.301 174.416 777.386 170.379 769.64 167.304C755.901 162.018 739.95 160 718.281 160V160.961L718.189 160C695.045 161.922 677.894 165.67 663.695 172.878C657.978 175.761 652.906 179.221 648.481 183.258C641.657 178.837 634.557 177.78 628.011 179.894C621.925 181.816 616.669 186.333 613.534 192.195C610.399 198.058 609.661 204.785 611.782 210.552C613.903 216.318 618.79 220.835 626.074 223.622C623.769 233.329 622.57 243.612 622.386 254.953C622.202 266.005 622.663 274.846 624.322 294.836C625.521 309.733 625.982 316.556 626.166 324.821C619.896 324.533 613.626 326.263 608.924 329.819C607.264 331.068 605.42 333.279 604.59 335.393C603.391 338.084 603.852 340.487 606.25 341.928C606.619 346.541 609.108 348.656 612.889 348.271C615.655 347.983 618.974 346.445 621.833 344.331C622.478 343.85 623.124 343.466 623.769 343.178C624.046 343.082 624.23 342.985 624.507 342.889C624.507 342.889 625.06 342.697 625.244 342.601C625.521 342.505 625.798 342.409 625.982 342.217C625.798 346.734 625.429 351.443 624.599 362.207C623.677 374.316 623.216 380.947 623.031 388.347C622.202 415.834 625.337 435.824 634.742 451.681C637.692 456.679 641.288 461.099 645.53 465.136C644.7 465.713 641.196 468.404 640.09 469.268C636.217 472.344 633.543 474.939 631.976 477.822C629.947 481.57 629.947 485.318 632.252 489.259L632.344 489.355L632.437 489.451C633.451 490.508 634.004 490.796 634.742 490.796H634.834H635.018C635.111 490.988 635.203 491.085 635.295 491.277C635.572 491.757 635.848 492.142 636.125 492.526C638.43 495.313 641.657 495.986 645.991 493.295C648.296 492.046 649.956 490.604 653.46 487.529C653.552 487.432 653.552 487.433 653.644 487.336C659.269 482.339 662.035 480.513 666.184 479.84L667.66 479.552C668.213 479.84 668.766 480.032 669.411 480.321C682.505 485.799 697.719 488.778 713.117 489.355C733.034 490.123 752.213 487.529 768.441 481.378C772.775 479.744 776.832 477.822 780.705 475.708C783.102 476.669 785.131 478.687 789.004 483.396C789.188 483.588 789.188 483.588 789.28 483.78C789.465 483.973 789.465 484.069 789.557 484.165C789.741 484.453 790.018 484.645 790.202 484.934C793.245 488.682 795.274 490.508 797.579 491.565C800.622 492.911 803.572 492.238 806.615 489.355C811.963 485.895 812.332 480.513 808.828 474.362C806.338 470.037 802.005 465.52 797.948 462.637C802.742 457.736 806.892 451.873 810.119 445.242C818.971 426.79 822.382 405.262 822.198 377.584C822.106 367.781 821.737 359.227 820.723 342.889V342.409C821.184 342.601 821.645 342.889 822.106 343.274C824.964 345.292 828.284 346.926 831.05 347.214C834.83 347.599 837.32 345.484 837.689 340.871C839.994 339.333 840.455 336.931 839.256 334.24ZM809.935 177.491C815.467 179.029 820.262 183.065 823.212 188.447C826.163 193.829 826.993 199.884 825.333 205.266C823.581 210.936 819.155 215.453 812.24 218.144C810.857 212.954 809.197 207.861 807.353 202.959C810.027 200.557 811.318 197.577 809.197 193.349C807.076 189.12 803.388 188.64 799.607 189.889C797.21 186.621 794.536 183.738 791.77 181.047C797.855 177.011 804.125 175.857 809.935 177.491ZM613.35 209.975C611.413 204.785 612.059 198.635 615.009 193.253C617.96 187.871 622.755 183.642 628.472 181.912C634.373 180.086 640.735 180.951 647.005 184.795C643.409 188.159 640.182 192.003 637.416 196.232C632.621 193.637 627.734 193.157 624.968 198.442C622.109 204.113 625.429 207.668 630.131 210.359C629.486 211.993 628.84 213.723 628.287 215.453C627.642 217.567 626.996 219.778 626.443 221.988C619.712 219.297 615.286 215.165 613.35 209.975ZM624.507 340.967C624.415 340.967 623.861 341.159 623.861 341.256C623.585 341.352 623.308 341.448 623.031 341.64C622.294 341.928 621.556 342.409 620.819 342.985C618.237 344.908 615.102 346.349 612.704 346.541C609.938 346.83 608.371 345.58 608.094 342.121C610.03 341.448 610.86 340.967 611.598 339.814L610.123 338.661C609.569 339.43 609.016 339.718 607.356 340.294C607.264 340.294 607.264 340.294 607.172 340.391C605.697 339.526 605.42 338.18 606.25 336.258C606.988 334.528 608.647 332.51 610.03 331.453C614.456 328.089 620.357 326.455 626.259 326.84C626.259 329.242 626.351 331.645 626.259 333.952C626.259 334.24 626.259 334.432 626.166 334.72C626.074 336.066 626.074 336.642 625.982 337.315C625.705 340.102 625.521 340.487 624.507 340.967ZM652.353 485.991C652.261 486.087 652.261 486.087 652.169 486.183C648.757 489.258 647.097 490.508 644.977 491.757C641.473 493.968 639.075 493.487 637.416 491.373C637.139 491.085 636.955 490.7 636.77 490.412C636.678 490.316 636.586 490.123 636.494 490.027C636.494 490.027 636.494 490.027 636.494 489.931C636.678 488.201 637.324 486.952 638.983 484.261C639.075 484.165 639.075 484.165 639.075 484.069C640.09 482.531 640.551 481.666 641.012 480.609L639.352 479.84C638.983 480.705 638.522 481.474 637.6 483.012C637.508 483.108 637.508 483.108 637.508 483.204C635.848 485.703 635.111 487.24 634.742 488.97H634.65C634.65 488.97 634.65 488.97 634.557 488.97H634.373C634.188 488.874 633.912 488.682 633.543 488.297C629.947 482.339 632.805 477.245 640.92 470.902C641.934 470.133 645.345 467.635 646.268 466.866C646.452 466.866 646.636 466.77 646.821 466.674C651.8 471.095 657.609 474.939 664.063 478.11C664.063 478.206 664.156 478.302 664.248 478.399C660.467 479.36 657.517 481.378 652.353 485.991ZM807.168 475.515C810.027 480.513 809.935 484.549 806.338 487.336C806.062 486.76 805.877 486.087 805.509 485.126C805.509 485.03 805.509 485.03 805.416 484.934C804.125 481.282 803.296 479.744 801.728 478.014L800.437 479.36C801.82 480.705 802.466 482.147 803.757 485.51C803.757 485.606 803.757 485.606 803.849 485.703C804.31 486.952 804.587 487.721 804.863 488.394C802.466 490.508 800.345 490.892 798.132 489.835C796.196 488.97 794.352 487.144 791.401 483.684C791.217 483.492 791.032 483.204 790.848 482.916C790.756 482.819 790.663 482.723 790.571 482.531C790.387 482.339 790.387 482.339 790.294 482.147C786.883 478.014 784.854 475.804 782.641 474.554C787.805 471.479 792.415 468.019 796.565 463.983C800.437 466.962 804.771 471.383 807.168 475.515ZM808.459 444.377C800.529 461.003 786.514 472.728 767.704 479.84C751.66 485.895 732.665 488.394 713.025 487.625C679.185 486.375 649.864 474.074 636.125 450.816C626.904 435.343 623.861 415.641 624.691 388.54C624.968 381.139 625.337 374.508 626.259 362.399C627.273 348.752 627.55 344.811 627.826 338.661C628.011 334.24 628.011 329.723 627.918 324.918C627.734 316.46 627.273 309.733 626.074 294.644C624.415 274.654 623.954 265.909 624.138 254.953C624.415 240.537 626.259 227.851 630.131 215.837C636.401 196.328 647.927 183.161 664.524 174.608C678.448 167.496 695.322 163.844 718.281 161.922C739.765 161.922 755.44 163.94 768.995 169.13C785.223 175.377 797.302 186.333 805.601 203.152C810.949 216.799 814.084 231.503 815.744 248.417C817.034 261.296 817.311 271.675 817.403 295.221V302.717C817.495 314.346 817.68 322.515 818.141 330.684C818.325 333.855 818.418 335.201 818.879 342.793C819.893 359.131 820.262 367.589 820.354 377.391C820.538 404.974 817.219 426.213 808.459 444.377ZM836.674 339.141C836.582 339.141 836.49 339.045 836.398 339.045C834.738 338.468 834.185 338.084 833.632 337.411L832.156 338.565C832.986 339.718 833.816 340.198 835.66 340.871C835.291 344.331 833.724 345.58 831.05 345.292C828.652 345.1 825.517 343.562 822.936 341.736C822.198 341.159 821.46 340.775 820.723 340.391C820.63 340.391 820.538 340.294 820.446 340.294C820.077 335.009 820.077 333.663 819.893 330.876C819.801 329.146 819.708 327.416 819.616 325.686C824.78 325.783 829.851 327.416 833.724 330.396C835.107 331.453 836.767 333.471 837.504 335.201C838.426 336.835 838.242 338.276 836.674 339.141Z" fill="black"/>
<path d="M732.168 260.267C732.26 265.168 733.182 270.55 732.352 275.74C731.061 278.239 728.664 278.527 726.543 279.488C723.593 279.008 721.103 276.989 719.904 274.106C719.167 268.244 720.089 262.67 720.365 256.807C720.365 256.615 723.869 256.903 727.004 257.864C729.678 258.729 732.168 260.171 732.168 260.267Z" fill="white"/>
<path d="M706.073 260.651C703.491 270.839 709.485 287.465 719.351 273.818C718.613 268.052 719.443 262.477 719.72 256.807C719.812 256.327 706.165 259.979 706.073 260.651Z" fill="white"/>
<path d="M733.274 264.784C733.09 261.901 732.998 260.747 732.998 259.306V258.633L732.352 258.441L720.734 254.693V254.02L719.535 254.308H719.443V254.404L706.35 257.864L705.889 257.96L705.704 258.441C703.676 263.535 704.137 271.223 706.719 275.932C709.669 281.314 714.464 281.41 719.351 275.259C720.734 278.047 723.316 279.969 726.266 280.449H726.543L726.82 280.353C727.189 280.161 727.557 280.065 728.203 279.776C728.295 279.776 728.295 279.776 728.387 279.68C731.061 278.719 732.168 277.95 733.09 276.124L733.182 276.028V275.836C733.459 274.106 733.551 272.28 733.551 270.262C733.551 268.82 733.459 267.475 733.274 264.784ZM718.521 261.228C718.429 262.958 718.337 263.631 718.245 264.592C718.06 268.148 718.06 270.839 718.337 273.53C714.003 279.296 710.591 279.296 708.286 274.971C706.073 270.935 705.612 264.111 707.272 259.594L718.89 256.519C718.798 257.768 718.706 259.018 718.521 261.228ZM731.43 275.452C730.785 276.605 729.955 277.182 727.742 277.95C727.65 277.95 727.65 277.95 727.557 278.047C727.004 278.239 726.635 278.431 726.359 278.527C723.869 278.047 721.748 276.317 720.734 273.914C720.457 271.319 720.457 268.628 720.642 265.072C720.734 264.111 720.734 263.438 720.919 261.709C721.103 259.498 721.195 258.153 721.195 256.903L731.246 260.075C731.246 261.324 731.338 262.477 731.522 264.976C731.707 267.571 731.799 268.916 731.799 270.454C731.799 272.28 731.707 273.914 731.43 275.452Z" fill="black"/>
<path d="M650.569 218.395C659.052 252.801 711.886 243.959 709.858 209.457C707.46 168.132 642.455 176.109 650.569 218.395Z" fill="white"/>
<path d="M710.78 209.361C710.227 199.366 705.985 191.582 698.977 186.68C692.707 182.259 684.409 180.53 676.202 181.587C667.996 182.74 660.435 186.584 655.456 192.639C649.923 199.366 647.803 208.208 649.739 218.395L650.569 218.203L649.739 218.395C658.406 253.762 712.808 245.209 710.78 209.361ZM651.399 218.203C649.554 208.496 651.583 200.231 656.747 193.984C661.449 188.314 668.549 184.566 676.387 183.509C684.224 182.452 692.062 184.085 697.963 188.314C704.51 192.927 708.475 200.135 709.028 209.65C710.964 243.191 659.605 251.263 651.399 218.203Z" fill="black"/>
<path d="M665.138 222.816C670.077 222.816 674.082 218.298 674.082 212.725C674.082 207.152 670.077 202.634 665.138 202.634C660.198 202.634 656.193 207.152 656.193 212.725C656.193 218.298 660.198 222.816 665.138 222.816Z" fill="black"/>
<path d="M669.194 217.626C670.366 217.626 671.315 216.465 671.315 215.032C671.315 213.598 670.366 212.437 669.194 212.437C668.023 212.437 667.074 213.598 667.074 215.032C667.074 216.465 668.023 217.626 669.194 217.626Z" fill="white"/>
<path d="M724.665 211.963C731.212 251.462 793.175 240.987 784.231 201.199C776.209 165.447 722.452 175.346 724.665 211.963Z" fill="white"/>
<path d="M785.061 201.007C776.854 164.198 721.53 174.289 723.743 212.059V212.155C726.786 230.799 742.738 240.314 760.349 237.239C768.371 235.797 775.564 231.76 780.266 225.802C785.43 219.171 787.274 210.617 785.061 201.007ZM778.883 224.649C774.457 230.223 767.726 234.067 760.073 235.413C743.383 238.296 728.446 229.358 725.495 211.867C723.467 176.307 775.656 166.793 783.401 201.391C785.43 210.521 783.77 218.498 778.883 224.649Z" fill="black"/>
<path d="M739.879 220.324C744.717 220.324 748.639 215.806 748.639 210.233C748.639 204.66 744.717 200.142 739.879 200.142C735.042 200.142 731.12 204.66 731.12 210.233C731.12 215.806 735.042 220.324 739.879 220.324Z" fill="black"/>
<path d="M743.937 215.134C745.057 215.134 745.965 213.972 745.965 212.539C745.965 211.106 745.057 209.944 743.937 209.944C742.816 209.944 741.908 211.106 741.908 212.539C741.908 213.972 742.816 215.134 743.937 215.134Z" fill="white"/>
<path d="M707.977 239.889C700.693 240.562 694.791 249.5 698.572 256.612C703.551 266.03 714.708 255.747 721.623 256.708C729.645 256.9 736.192 265.549 742.554 258.245C749.654 250.172 739.512 242.292 731.49 238.832L707.977 239.889Z" fill="#F6D2A2"/>
<path d="M743.477 246.328C740.987 243.061 736.653 240.081 731.951 238.063L731.766 237.967H731.582L707.977 238.928C699.771 239.697 693.869 249.596 697.834 257.092C699.402 259.975 701.523 261.417 704.381 261.609C706.502 261.705 708.715 261.225 712.126 259.975C712.403 259.879 712.772 259.783 713.233 259.591C717.843 257.957 719.687 257.477 721.531 257.765H721.624C723.837 257.765 725.681 258.438 729.185 259.879C733.057 261.513 734.256 261.993 736.192 262.186C738.866 262.378 741.172 261.417 743.292 259.014C746.888 254.882 746.704 250.461 743.477 246.328ZM741.909 257.669C740.157 259.687 738.405 260.36 736.285 260.264C734.625 260.167 733.518 259.687 729.83 258.149C726.142 256.515 724.113 255.939 721.716 255.843C719.411 255.554 717.474 256.035 712.587 257.765C712.126 257.957 711.758 258.053 711.481 258.149C704.75 260.552 701.523 260.36 699.31 256.131C695.99 249.884 701.062 241.427 707.977 240.754L731.305 239.793C735.731 241.715 739.696 244.502 742.001 247.482C744.768 250.941 744.86 254.401 741.909 257.669Z" fill="#231F20"/>
<path d="M733.334 235.757C730.476 224.801 706.502 226.434 707.055 239.505C708.254 249.211 736.1 246.617 733.334 235.757Z" fill="black"/>
<g clip-path="url(#clip0_4_2)">
<path fill-rule="evenodd" clip-rule="evenodd" d="M1055 160H1390V495H1055V160V160Z" fill="#F7DF1E"/>
<path fill-rule="evenodd" clip-rule="evenodd" d="M1143.08 439.951L1168.72 424.436C1173.67 433.205 1178.17 440.624 1188.96 440.624C1199.3 440.624 1205.82 436.578 1205.82 420.838V313.797H1237.31V421.283C1237.31 453.89 1218.19 468.731 1190.31 468.731C1165.12 468.731 1150.5 455.688 1143.08 439.948" fill="black"/>
<path fill-rule="evenodd" clip-rule="evenodd" d="M1254.4 436.577L1280.04 421.736C1286.79 432.755 1295.56 440.85 1311.07 440.85C1324.12 440.85 1332.43 434.328 1332.43 425.333C1332.43 414.539 1323.89 410.716 1309.5 404.422L1301.63 401.046C1278.92 391.379 1263.85 379.236 1263.85 353.6C1263.85 329.988 1281.84 311.997 1309.95 311.997C1329.96 311.997 1344.35 318.969 1354.7 337.184L1330.18 352.924C1324.79 343.256 1318.94 339.433 1309.95 339.433C1300.73 339.433 1294.88 345.28 1294.88 352.924C1294.88 362.369 1300.73 366.193 1314.22 372.04L1322.09 375.413C1348.85 386.882 1363.92 398.574 1363.92 424.883C1363.92 453.219 1341.65 468.734 1311.75 468.734C1282.51 468.734 1263.62 454.793 1254.41 436.577" fill="black"/>
</g>
<ellipse cx="1781" cy="327.445" rx="250" ry="131.445" fill="url(#paint2_radial_4_2)"/>
<ellipse cx="1781" cy="327.445" rx="240.234" ry="121.68" fill="#6181B6"/>
<path fill-rule="evenodd" clip-rule="evenodd" d="M1829.63 366.898L1841.55 305.57C1844.28 291.703 1841.94 281.352 1834.91 274.906C1828.07 268.656 1816.35 265.531 1799.16 265.531H1778.46L1784.32 235.062C1784.52 233.891 1784.32 232.719 1783.54 231.742C1782.76 230.766 1781.78 230.375 1780.61 230.375H1752.09C1750.14 230.375 1748.58 231.742 1748.19 233.5L1735.49 298.539C1734.32 291.117 1731.59 284.867 1726.9 279.789C1718.5 270.219 1705.41 265.336 1687.64 265.336H1632.76C1630.8 265.336 1629.24 266.703 1628.85 268.461L1603.27 400.492C1603.07 401.664 1603.27 402.836 1604.05 403.812C1604.83 404.789 1605.8 405.18 1606.98 405.18H1635.69C1637.64 405.18 1639.2 403.812 1639.59 402.055L1645.84 370.219H1667.13C1678.27 370.219 1687.84 369.047 1695.06 366.703C1702.68 364.164 1709.52 360.062 1715.57 354.398C1720.45 349.906 1724.55 344.828 1727.68 339.359L1722.6 365.727C1722.41 366.898 1722.6 368.07 1723.38 369.047C1724.16 370.023 1725.14 370.414 1726.31 370.414H1754.83C1756.78 370.414 1758.34 369.047 1758.73 367.289L1772.8 295.023H1792.33C1800.73 295.023 1803.07 296.586 1803.85 297.367C1804.44 297.953 1805.61 300.297 1804.24 307.523L1792.91 365.922C1792.72 367.094 1792.91 368.266 1793.7 369.242C1794.48 370.219 1795.45 370.609 1796.63 370.609H1825.92C1827.68 370.023 1829.24 368.656 1829.63 366.898V366.898ZM1697.6 316.117C1695.84 325.297 1692.52 331.938 1687.64 335.648C1682.76 339.359 1674.75 341.312 1664.2 341.312H1651.51L1660.69 294.047H1677.09C1689.2 294.047 1694.09 296.586 1696.04 298.734C1698.58 301.859 1699.16 307.914 1697.6 316.117V316.117Z" fill="white"/>
<path fill-rule="evenodd" clip-rule="evenodd" d="M1951.51 279.789C1943.11 270.219 1930.02 265.336 1912.25 265.336H1856.98C1855.02 265.336 1853.46 266.703 1853.07 268.461L1827.48 400.297C1827.29 401.469 1827.48 402.641 1828.27 403.617C1829.05 404.594 1830.02 404.984 1831.2 404.984H1859.91C1861.86 404.984 1863.42 403.617 1863.81 401.859L1870.06 370.023H1891.35C1902.48 370.023 1912.05 368.852 1919.28 366.508C1926.9 363.969 1933.73 359.867 1939.79 354.203C1944.87 349.516 1949.16 344.242 1952.29 338.578C1955.41 332.914 1957.76 326.664 1959.13 319.828C1962.45 302.836 1959.91 289.555 1951.51 279.789V279.789ZM1921.63 316.117C1919.87 325.297 1916.55 331.938 1911.66 335.648C1906.78 339.359 1898.77 341.312 1888.23 341.312H1875.53L1884.71 294.047H1901.12C1913.23 294.047 1918.11 296.586 1920.06 298.734C1922.8 301.859 1923.38 307.914 1921.63 316.117V316.117Z" fill="white"/>
<path fill-rule="evenodd" clip-rule="evenodd" d="M1677.09 290.141C1688.03 290.141 1695.26 292.094 1698.97 296.195C1702.68 300.297 1703.46 307.133 1701.51 316.898C1699.55 327.055 1695.65 334.477 1689.98 338.773C1684.32 343.07 1675.73 345.219 1664.2 345.219H1646.82L1657.56 290.141H1677.09V290.141ZM1607.17 401.078H1635.88L1642.72 366.117H1667.33C1678.27 366.117 1687.05 364.945 1694.09 362.602C1701.12 360.258 1707.37 356.547 1713.23 351.078C1718.11 346.586 1722.02 341.703 1724.95 336.43C1727.88 331.156 1730.02 325.297 1731.2 318.852C1734.32 303.227 1731.98 291.117 1724.36 282.328C1716.74 273.539 1704.63 269.242 1688.03 269.242H1632.76L1607.17 401.078V401.078Z" fill="#000004"/>
<path fill-rule="evenodd" clip-rule="evenodd" d="M1752.29 234.281H1780.8L1773.97 269.242H1799.36C1815.38 269.242 1826.31 271.977 1832.37 277.641C1838.42 283.305 1840.18 292.289 1837.84 304.789L1825.92 366.117H1797.02L1808.34 307.719C1809.71 301.078 1809.12 296.586 1806.98 294.242C1804.83 291.898 1799.95 290.531 1792.72 290.531H1769.87L1755.22 366.117H1726.7L1752.29 234.281V234.281Z" fill="#000004"/>
<path fill-rule="evenodd" clip-rule="evenodd" d="M1901.12 290.141C1912.05 290.141 1919.28 292.094 1922.99 296.195C1926.7 300.297 1927.48 307.133 1925.53 316.898C1923.58 327.055 1919.67 334.477 1914.01 338.773C1908.34 343.07 1899.75 345.219 1888.23 345.219H1870.84L1881.59 290.141H1901.12V290.141ZM1831.2 401.078H1859.91L1866.74 366.117H1891.35C1902.29 366.117 1911.08 364.945 1918.11 362.602C1925.14 360.258 1931.39 356.547 1937.25 351.078C1942.13 346.586 1946.04 341.703 1948.97 336.43C1951.9 331.156 1954.05 325.297 1955.22 318.852C1958.34 303.227 1956 291.117 1948.38 282.328C1940.77 273.539 1928.66 269.242 1912.05 269.242H1856.78L1831.2 401.078V401.078Z" fill="#000004"/>
<path d="M1219.11 1039L1230.16 1047C1249.37 1062.5 1260.42 1080 1262.82 1099.99C1283.48 1095.99 1309.9 1098.99 1321.43 1106.99L1332 1113.49L1330.08 1117.49C1326.72 1124.99 1325.75 1126.99 1325.27 1127.99C1306.54 1165.49 1269.55 1165.99 1252.26 1165.49C1208.54 1274.99 1115.35 1335.49 989.484 1335.49C931.357 1335.49 887.162 1316.99 857.378 1280.49C817.986 1232.49 817.986 1169.99 821.349 1149.99L822.31 1145.99H1169.63C1187.88 1145.99 1201.82 1140.99 1208.54 1136.99C1201.33 1125.99 1198.93 1113.49 1198.45 1106.49C1197.01 1086.5 1201.82 1065.5 1211.42 1050.5L1219.11 1039ZM912.622 1086V1135.99H859.78V1086H912.622ZM975.073 1086V1135.99H922.23V1086H975.073ZM1037.52 1086V1135.99H984.68V1086H1037.52ZM1099.97 1086V1135.99H1047.13V1086H1099.97ZM1162.42 1086V1135.99H1109.58V1086H1162.42ZM1099.97 1026V1076H1047.13V1026H1099.97ZM1037.52 1026V1076H984.68V1026H1037.52ZM975.073 1026V1076H922.23V1026H975.073ZM1099.97 966V1016H1047.13V966H1099.97Z" fill="#2396ED"/>
<path d="M327.5 504.5L815.5 1040.5" stroke="white" stroke-width="11" stroke-linecap="round"/>
<path d="M726 505L930.5 954" stroke="white" stroke-width="11" stroke-linecap="round"/>
<path d="M1279.5 517L1155.5 963.5" stroke="white" stroke-width="11" stroke-linecap="round"/>
<path d="M1686 469L1279.5 1044" stroke="white" stroke-width="11" stroke-linecap="round"/>
<path d="M872.748 1449H846.265V1363.18H873.921C882.246 1363.18 889.37 1364.9 895.292 1368.34C901.214 1371.74 905.754 1376.65 908.911 1383.04C912.067 1389.41 913.646 1397.04 913.646 1405.92C913.646 1414.86 912.053 1422.56 908.869 1429.01C905.684 1435.44 901.047 1440.38 894.957 1443.85C888.867 1447.28 881.464 1449 872.748 1449ZM856.657 1439.78H872.078C879.173 1439.78 885.054 1438.41 889.719 1435.67C894.384 1432.94 897.862 1429.04 900.153 1423.98C902.444 1418.93 903.589 1412.91 903.589 1405.92C903.589 1399 902.458 1393.03 900.195 1388.03C897.932 1383 894.552 1379.15 890.054 1376.47C885.557 1373.76 879.955 1372.4 873.251 1372.4H856.657V1439.78ZM955.884 1450.34C950.074 1450.34 944.976 1448.96 940.59 1446.19C936.232 1443.43 932.824 1439.56 930.365 1434.59C927.935 1429.61 926.72 1423.8 926.72 1417.15C926.72 1410.45 927.935 1404.6 930.365 1399.6C932.824 1394.6 936.232 1390.71 940.59 1387.95C944.976 1385.18 950.074 1383.8 955.884 1383.8C961.695 1383.8 966.779 1385.18 971.137 1387.95C975.523 1390.71 978.931 1394.6 981.362 1399.6C983.82 1404.6 985.049 1410.45 985.049 1417.15C985.049 1423.8 983.82 1429.61 981.362 1434.59C978.931 1439.56 975.523 1443.43 971.137 1446.19C966.779 1448.96 961.695 1450.34 955.884 1450.34ZM955.884 1441.46C960.298 1441.46 963.93 1440.33 966.779 1438.06C969.629 1435.8 971.738 1432.83 973.107 1429.14C974.476 1425.45 975.16 1421.46 975.16 1417.15C975.16 1412.85 974.476 1408.84 973.107 1405.13C971.738 1401.41 969.629 1398.41 966.779 1396.12C963.93 1393.83 960.298 1392.68 955.884 1392.68C951.471 1392.68 947.839 1393.83 944.99 1396.12C942.14 1398.41 940.031 1401.41 938.662 1405.13C937.293 1408.84 936.609 1412.85 936.609 1417.15C936.609 1421.46 937.293 1425.45 938.662 1429.14C940.031 1432.83 942.14 1435.8 944.99 1438.06C947.839 1440.33 951.471 1441.46 955.884 1441.46ZM1026.29 1450.34C1020.26 1450.34 1015.06 1448.92 1010.7 1446.07C1006.35 1443.22 1002.99 1439.29 1000.65 1434.29C998.301 1429.29 997.128 1423.58 997.128 1417.15C997.128 1410.62 998.329 1404.85 1000.73 1399.85C1003.16 1394.82 1006.54 1390.89 1010.87 1388.07C1015.23 1385.22 1020.31 1383.8 1026.12 1383.8C1030.65 1383.8 1034.73 1384.64 1038.36 1386.31C1041.99 1387.99 1044.97 1390.34 1047.29 1393.35C1049.6 1396.37 1051.04 1399.89 1051.6 1403.91H1041.71C1040.96 1400.98 1039.28 1398.38 1036.68 1396.12C1034.11 1393.83 1030.65 1392.68 1026.29 1392.68C1022.44 1392.68 1019.06 1393.69 1016.15 1395.7C1013.27 1397.68 1011.03 1400.49 1009.41 1404.12C1007.81 1407.73 1007.02 1411.96 1007.02 1416.82C1007.02 1421.79 1007.8 1426.12 1009.36 1429.81C1010.96 1433.5 1013.19 1436.36 1016.07 1438.4C1018.97 1440.44 1022.38 1441.46 1026.29 1441.46C1028.86 1441.46 1031.2 1441.01 1033.29 1440.12C1035.39 1439.22 1037.16 1437.94 1038.61 1436.26C1040.06 1434.59 1041.1 1432.57 1041.71 1430.23H1051.6C1051.04 1434.03 1049.66 1437.45 1047.45 1440.49C1045.27 1443.51 1042.38 1445.91 1038.78 1447.7C1035.2 1449.46 1031.04 1450.34 1026.29 1450.34ZM1075.28 1425.53L1075.11 1413.3H1077.12L1105.28 1384.64H1117.52L1087.51 1414.97H1086.68L1075.28 1425.53ZM1066.06 1449V1363.18H1075.95V1449H1066.06ZM1106.96 1449L1081.81 1417.15L1088.85 1410.28L1119.53 1449H1106.96ZM1154.58 1450.34C1148.38 1450.34 1143.03 1448.97 1138.53 1446.23C1134.06 1443.47 1130.61 1439.61 1128.18 1434.67C1125.78 1429.7 1124.58 1423.91 1124.58 1417.32C1124.58 1410.73 1125.78 1404.92 1128.18 1399.89C1130.61 1394.83 1133.99 1390.89 1138.32 1388.07C1142.68 1385.22 1147.76 1383.8 1153.57 1383.8C1156.93 1383.8 1160.24 1384.36 1163.51 1385.47C1166.77 1386.59 1169.75 1388.41 1172.43 1390.92C1175.11 1393.41 1177.25 1396.7 1178.84 1400.81C1180.43 1404.92 1181.23 1409.97 1181.23 1415.98V1420.17H1131.62V1411.62H1171.17C1171.17 1407.99 1170.45 1404.75 1168.99 1401.9C1167.57 1399.05 1165.53 1396.8 1162.88 1395.15C1160.25 1393.51 1157.15 1392.68 1153.57 1392.68C1149.64 1392.68 1146.23 1393.66 1143.35 1395.62C1140.5 1397.54 1138.31 1400.06 1136.77 1403.16C1135.23 1406.26 1134.47 1409.58 1134.47 1413.13V1418.83C1134.47 1423.69 1135.3 1427.81 1136.98 1431.19C1138.68 1434.54 1141.05 1437.1 1144.06 1438.86C1147.08 1440.59 1150.59 1441.46 1154.58 1441.46C1157.18 1441.46 1159.52 1441.09 1161.62 1440.37C1163.74 1439.61 1165.57 1438.5 1167.11 1437.02C1168.65 1435.51 1169.83 1433.64 1170.67 1431.4L1180.22 1434.08C1179.22 1437.32 1177.53 1440.17 1175.15 1442.63C1172.78 1445.06 1169.85 1446.96 1166.35 1448.33C1162.86 1449.67 1158.94 1450.34 1154.58 1450.34ZM1196.27 1449V1384.64H1205.83V1394.36H1206.5C1207.67 1391.17 1209.79 1388.59 1212.87 1386.61C1215.94 1384.62 1219.4 1383.63 1223.26 1383.63C1223.99 1383.63 1224.89 1383.64 1225.98 1383.67C1227.07 1383.7 1227.9 1383.74 1228.46 1383.8V1393.86C1228.12 1393.77 1227.35 1393.65 1226.15 1393.48C1224.98 1393.28 1223.73 1393.18 1222.42 1393.18C1219.29 1393.18 1216.5 1393.84 1214.04 1395.15C1211.61 1396.44 1209.68 1398.23 1208.26 1400.52C1206.86 1402.78 1206.16 1405.36 1206.16 1408.27V1449H1196.27Z" fill="white"/>
<defs>
<linearGradient id="paint0_linear_4_2" x1="147.117" y1="191.212" x2="312.731" y2="355.174" gradientUnits="userSpaceOnUse">
<stop stop-color="#387EB8"/>
<stop offset="1" stop-color="#366994"/>
</linearGradient>
<linearGradient id="paint1_linear_4_2" x1="248.771" y1="296.498" x2="426.623" y2="464.627" gradientUnits="userSpaceOnUse">
<stop stop-color="#FFE052"/>
<stop offset="1" stop-color="#FFC331"/>
</linearGradient>
<radialGradient id="paint2_radial_4_2" cx="0" cy="0" r="1" gradientUnits="userSpaceOnUse" gradientTransform="translate(1681.1 242.226) scale(709.095 372.829)">
<stop stop-color="white"/>
<stop offset="0.5" stop-color="#4C6B97"/>
<stop offset="1" stop-color="#231F20"/>
</radialGradient>
<clipPath id="clip0_4_2">
<rect width="335" height="335" fill="white" transform="translate(1055 160)"/>
</clipPath>
</defs>
</svg>