<svg width="1023" height="274" viewBox="0 0 1023 274" fill="none" xmlns="http://www.w3.org/2000/svg">
<path d="M130 235L127 233.5L170.5 169.5L216.5 154.5V189L158.5 237H136.5L130 235Z" fill="#42474D"/>
<path d="M55 171L118 229L161 167L110 104H61.5L55 171Z" fill="#42474D"/>
<path d="M216.5 95V144.5L168 160L120.5 100L183.5 56L216.5 95Z" fill="#42474D"/>
<path d="M113 94H64.5L126 38L130.5 37L173.5 50L113 94Z" fill="#42474D"/>
<path d="M130 235L127 233.5L170.5 169.5L216.5 154.5V189L158.5 237H136.5L130 235Z" stroke="black"/>
<path d="M55 171L118 229L161 167L110 104H61.5L55 171Z" stroke="black"/>
<path d="M216.5 95V144.5L168 160L120.5 100L183.5 56L216.5 95Z" stroke="black"/>
<path d="M113 94H64.5L126 38L130.5 37L173.5 50L113 94Z" stroke="black"/>
<path d="M332.744 136.727C332.744 147.776 330.675 157.24 326.536 165.118C322.43 172.962 316.822 178.971 309.712 183.143C302.635 187.316 294.607 189.402 285.627 189.402C276.648 189.402 268.603 187.316 261.493 183.143C254.417 178.937 248.809 172.912 244.669 165.067C240.564 157.19 238.511 147.743 238.511 136.727C238.511 125.678 240.564 116.232 244.669 108.387C248.809 100.509 254.417 94.484 261.493 90.3114C268.603 86.1388 276.648 84.0526 285.627 84.0526C294.607 84.0526 302.635 86.1388 309.712 90.3114C316.822 94.484 322.43 100.509 326.536 108.387C330.675 116.232 332.744 125.678 332.744 136.727ZM314.068 136.727C314.068 128.95 312.849 122.39 310.413 117.049C308.009 111.675 304.671 107.619 300.398 104.882C296.126 102.112 291.202 100.726 285.627 100.726C280.053 100.726 275.129 102.112 270.857 104.882C266.584 107.619 263.229 111.675 260.792 117.049C258.389 122.39 257.187 128.95 257.187 136.727C257.187 144.505 258.389 151.081 260.792 156.455C263.229 161.796 266.584 165.852 270.857 168.623C275.129 171.36 280.053 172.728 285.627 172.728C291.202 172.728 296.126 171.36 300.398 168.623C304.671 165.852 308.009 161.796 310.413 156.455C312.849 151.081 314.068 144.505 314.068 136.727ZM367.631 142.936V188H349.506V111.091H366.83V124.159H367.731C369.501 119.853 372.321 116.432 376.193 113.895C380.099 111.358 384.922 110.089 390.664 110.089C395.972 110.089 400.595 111.224 404.534 113.494C408.506 115.764 411.577 119.052 413.747 123.358C415.95 127.664 417.035 132.888 417.001 139.031V188H398.876V141.835C398.876 136.694 397.54 132.672 394.87 129.767C392.233 126.863 388.578 125.411 383.904 125.411C380.733 125.411 377.913 126.112 375.442 127.514C373.006 128.883 371.086 130.869 369.684 133.473C368.316 136.076 367.631 139.231 367.631 142.936ZM435.427 188V111.091H453.553V188H435.427ZM444.54 100.175C441.67 100.175 439.199 99.2241 437.13 97.3214C435.06 95.3853 434.025 93.0653 434.025 90.3615C434.025 87.6243 435.06 85.3043 437.13 83.4016C439.199 81.4655 441.67 80.4975 444.54 80.4975C447.445 80.4975 449.915 81.4655 451.951 83.4016C454.021 85.3043 455.055 87.6243 455.055 90.3615C455.055 93.0653 454.021 95.3853 451.951 97.3214C449.915 99.2241 447.445 100.175 444.54 100.175ZM487.013 111.091L502.535 139.481L518.308 111.091H537.485L514.302 149.545L537.885 188H518.808L502.535 160.311L486.412 188H467.185L490.618 149.545L467.786 111.091H487.013Z" fill="#42474D"/>
<path d="M552.306 188V85.4545H619V101.027H570.882V128.866H615.545V144.438H570.882V172.428H619.401V188H552.306ZM655.277 142.936V188H637.151V111.091H654.476V124.159H655.377C657.146 119.853 659.967 116.432 663.839 113.895C667.744 111.358 672.568 110.089 678.309 110.089C683.617 110.089 688.24 111.224 692.179 113.494C696.151 115.764 699.222 119.052 701.392 123.358C703.595 127.664 704.68 132.888 704.647 139.031V188H686.521V141.835C686.521 136.694 685.186 132.672 682.515 129.767C679.878 126.863 676.223 125.411 671.55 125.411C668.379 125.411 665.558 126.112 663.088 127.514C660.651 128.883 658.732 130.869 657.33 133.473C655.961 136.076 655.277 139.231 655.277 142.936ZM789.017 111.091L761.628 188H741.599L714.21 111.091H733.538L751.213 168.222H752.014L769.739 111.091H789.017ZM801.559 188V111.091H819.685V188H801.559ZM810.672 100.175C807.801 100.175 805.331 99.2241 803.262 97.3214C801.192 95.3853 800.157 93.0653 800.157 90.3615C800.157 87.6243 801.192 85.3043 803.262 83.4016C805.331 81.4655 807.801 80.4975 810.672 80.4975C813.576 80.4975 816.047 81.4655 818.083 83.4016C820.152 85.3043 821.187 87.6243 821.187 90.3615C821.187 93.0653 820.152 95.3853 818.083 97.3214C816.047 99.2241 813.576 100.175 810.672 100.175ZM838.324 188V111.091H855.899V123.909H856.7C858.102 119.469 860.505 116.048 863.91 113.645C867.348 111.208 871.271 109.989 875.677 109.989C876.678 109.989 877.797 110.039 879.032 110.14C880.3 110.206 881.352 110.323 882.186 110.49V127.164C881.418 126.897 880.2 126.663 878.531 126.463C876.895 126.229 875.31 126.112 873.774 126.112C870.47 126.112 867.499 126.83 864.862 128.265C862.258 129.667 860.205 131.62 858.703 134.124C857.201 136.627 856.45 139.515 856.45 142.786V188H838.324ZM924.609 189.502C917.098 189.502 910.589 187.85 905.081 184.545C899.573 181.24 895.301 176.617 892.263 170.675C889.259 164.734 887.757 157.79 887.757 149.846C887.757 141.901 889.259 134.941 892.263 128.966C895.301 122.991 899.573 118.351 905.081 115.047C910.589 111.742 917.098 110.089 924.609 110.089C932.119 110.089 938.629 111.742 944.137 115.047C949.644 118.351 953.9 122.991 956.905 128.966C959.942 134.941 961.461 141.901 961.461 149.846C961.461 157.79 959.942 164.734 956.905 170.675C953.9 176.617 949.644 181.24 944.137 184.545C938.629 187.85 932.119 189.502 924.609 189.502ZM924.709 174.982C928.781 174.982 932.186 173.863 934.923 171.627C937.661 169.357 939.697 166.319 941.032 162.514C942.401 158.708 943.085 154.469 943.085 149.796C943.085 145.089 942.401 140.833 941.032 137.028C939.697 133.189 937.661 130.135 934.923 127.865C932.186 125.595 928.781 124.46 924.709 124.46C920.536 124.46 917.065 125.595 914.294 127.865C911.557 130.135 909.504 133.189 908.135 137.028C906.8 140.833 906.133 145.089 906.133 149.796C906.133 154.469 906.8 158.708 908.135 162.514C909.504 166.319 911.557 169.357 914.294 171.627C917.065 173.863 920.536 174.982 924.709 174.982Z" fill="#4A7B5B"/>
</svg>
