<svg width="1202" height="493" viewBox="0 0 1202 493" fill="none" xmlns="http://www.w3.org/2000/svg">
<rect x="0.5" y="0.5" width="1201" height="492" stroke="black"/>
<path d="M148.125 96H154.375L158.125 98.5L160 102.25L159.375 107.875L156.875 111L141.25 117.875L128.75 124.75L118.75 131.625L108.75 139.75L100 148.5L92.5 156.625L85 167.25L80 175.375L74.375 186L69.375 198.5L65.625 210.375L62.5 226L61.25 237.25V256L63.125 271.625L66.875 287.25L70.625 298.5L76.25 311L81.25 320.375L88.75 331.625L93.75 337.875L101.25 346.625L111.875 356.625L121.875 364.125L133.75 371.625L147.5 378.5L163.125 384.125L178.75 387.875L193.75 389.75H215.625L230 387.875L245.625 384.125L256.875 380.375L268.125 375.375L278.75 369.75L288.125 363.5L296.25 357.25L303.75 350.375L307.5 347.25L311.875 342.25L318.75 334.125L327.5 321L333.75 309.75L340 294.75L344.375 279.75L346.875 266L348.125 251.625V242.25L346.875 227.25L343.75 211L340 198.5L334.375 185.375L327.5 172.25L321.25 162.875L314.375 154.125L307.5 146.625L299.375 138.5L288.75 130.375L279.375 124.125L265.625 116.625L252.5 111L250 107.875L249.375 106.625V101.625L251.875 97.875L254.375 96H260.625L273.125 101L286.25 107.875L299.375 116.625L308.125 123.5L314.375 129.125L321.875 136L326.25 141L333.125 149.125L343.125 164.125L350.625 177.875L356.875 192.875L361.25 207.25L364.375 222.25L365.625 231.625L366.25 241V253.5L365 267.875L361.875 284.125L357.5 299.125L352.5 311.625L347.5 321.625L341.25 332.875L335 341.625L328.125 350.375L319.375 359.75L313.125 366L306.25 371.625L298.125 377.875L286.25 385.375L271.875 392.875L255.625 399.125L242.5 402.875L228.75 405.375L217.5 406.625H193.125L178.125 404.75L163.75 401.625L145 395.375L132.5 389.75L119.375 382.25L108.75 374.75L102.5 369.75L90 358.5L83.125 351L76.25 342.25L67.5 329.125L61.25 317.875L55 303.5L50.625 290.375L46.875 274.125L45 259.125V232.875L46.875 218.5L50.625 202.25L55.625 187.25L63.125 171L69.375 160.375L78.125 147.875L85.625 139.125L93.75 130.375L98.75 126L106.875 119.125L117.5 111.625L126.875 106L136.875 101L148.125 96Z" fill="black"/>
<path d="M431.25 97.875H440L446.875 100.375L452.5 104.125L458.75 111.625L466.25 121.625L473.125 130.375L499.375 164.125L505.625 172.25L540.625 217.25L546.875 225.375L573.125 259.125L579.375 267.25L586.25 276L592.5 284.125L618.75 317.875L626.875 328.5L633.75 337.25L660 371L666.25 379.125L675 390.375L678.125 393.5L684.375 394.75L690 392.875L693.125 390.375L695 386.625L695.625 104.75L696.875 101.625L698.75 99.75L703.75 99.125L708.125 101L709.375 103.5V387.25L707.5 393.5L704.375 398.5L701.25 402.25L694.375 406.625L688.125 408.5H679.375L671.25 406L666.25 402.25L661.875 397.25L654.375 387.25L646.875 377.875L634.375 361.625L599.375 316.625L591.25 306L584.375 297.25L558.125 263.5L551.875 255.375L525.625 221.625L517.5 211L510.625 202.25L484.375 168.5L478.125 160.375L451.875 126.625L443.75 116L440.625 113.5L438.75 112.875H431.875L426.875 116L424.375 120.375L423.75 122.875L423.125 404.125L420.625 407.25L418.75 407.875H414.375L411.25 406L410 404.125V117.875L412.5 111L416.25 106L420.625 102.25L426.25 99.125L431.25 97.875Z" fill="black"/>
<path d="M873.5 98H879.75L883.5 100.5L884.125 101.75L884.75 135.5L886 147.375L889.125 161.75L894.125 175.5L901.625 189.875L909.125 200.5L916.625 209.25L923.5 216.125L932.25 223L941.625 229.25L953.5 235.5L966.625 240.5L979.75 243.625L990.375 244.875H1032.88L1046.01 243L1057.88 239.875L1070.38 234.875L1082.24 228.625L1089.74 223.625L1096.01 218.625L1102.24 213L1110.38 204.875L1116.62 196.75L1122.24 188L1128.51 176.125L1134.12 160.5L1137.24 144.875L1137.88 139.25L1138.51 103L1140.38 99.875L1142.88 98H1149.12L1152.24 99.875L1153.51 101.75V141.75L1151.62 154.875L1147.88 169.875L1142.88 183L1137.88 193L1132.88 201.75L1126.62 210.5L1121.01 217.375L1114.12 224.875L1109.12 229.25L1100.38 236.125L1089.74 243L1072.88 251.75H1071.01V253L1076.62 254.875L1091.01 262.375L1102.24 269.875L1111.01 276.75L1119.12 284.25L1123.51 288.625L1129.12 295.5L1136.01 304.875L1142.88 316.75L1147.88 327.375L1151.62 338L1154.74 349.875L1156.62 362.375L1157.24 371.75V401.75L1156.01 406.125L1154.12 408L1152.24 408.625H1146.62L1143.51 406.75L1141.62 403L1141.01 365.5L1139.12 353L1135.38 339.875L1131.62 330.5L1126.62 320.5L1120.38 310.5L1113.51 301.75L1106.01 293.625L1099.74 288L1090.38 281.125L1081.01 275.5L1067.88 269.25L1054.74 264.875L1041.62 262.375L1036.01 261.75H985.375L970.375 264.25L959.75 267.375L947.875 272.375L937.25 278L929.75 283L921 289.875L914.75 295.5L910.375 300.5L902.875 309.875L896 321.125L891 331.125L887.25 340.5L883.5 354.25L882.25 361.75L881.625 368.625L881 404.25L879.125 407.375L876 408.625H870.375L867.25 406.75L866 404.25V364.875L867.875 351.75L871 338.625L876 324.875L882.25 312.375L891 299.25L896.625 292.375L902.25 286.125L912.875 275.5L923.5 267.375L932.875 261.75L950.375 253H951.625V251.75L947.875 250.5L934.125 243.625L923.5 236.75L915.375 230.5L907.25 223L902.25 218L895.375 209.25L889.125 200.5L881.625 186.75L876.625 174.25L872.875 162.375L870.375 149.875L869.125 138.625V102.375L871 99.25L873.5 98Z" fill="black"/>
<path d="M777.5 97.875H783.75L786.875 99.75L788.125 101.625V404.75L785.625 407.875L783.75 408.5H777.5L775 407.25L773.125 402.875V102.875L775 99.75L777.5 97.875Z" fill="black"/>
<path d="M201.875 71H208.75L212.5 74.125L213.75 76.625V248.5L211.25 252.25L208.75 254.125L203.75 254.75L200 252.875L197.5 249.75L196.875 247.875V77.875L198.75 73.5L201.875 71Z" fill="black"/>
</svg>
